<svg width="44" height="44" viewBox="0 0 44 44" fill="none" xmlns="http://www.w3.org/2000/svg"><g clip-path="url(#clip0_6005_1228)"><path d="M37.125 6.875H6.875C6.14565 6.875 5.44618 7.16473 4.93046 7.68046C4.41473 8.19618 4.125 8.89565 4.125 9.625V31.625C4.125 32.3543 4.41473 33.0538 4.93046 33.5695C5.44618 34.0853 6.14565 34.375 6.875 34.375H17.1016L19.6453 38.6203C19.89 39.026 20.2354 39.3615 20.648 39.5944C21.0605 39.8274 21.5262 39.9498 22 39.9498C22.4738 39.9498 22.9395 39.8274 23.352 39.5944C23.7646 39.3615 24.11 39.026 24.3547 38.6203L26.8984 34.375H37.125C37.8543 34.375 38.5538 34.0853 39.0695 33.5695C39.5853 33.0538 39.875 32.3543 39.875 31.625V9.625C39.875 8.89565 39.5853 8.19618 39.0695 7.68046C38.5538 7.16473 37.8543 6.875 37.125 6.875ZM27.5 24.75H16.5C16.1353 24.75 15.7856 24.6051 15.5277 24.3473C15.2699 24.0894 15.125 23.7397 15.125 23.375C15.125 23.0103 15.2699 22.6606 15.5277 22.4027C15.7856 22.1449 16.1353 22 16.5 22H27.5C27.8647 22 28.2144 22.1449 28.4723 22.4027C28.7301 22.6606 28.875 23.0103 28.875 23.375C28.875 23.7397 28.7301 24.0894 28.4723 24.3473C28.2144 24.6051 27.8647 24.75 27.5 24.75ZM27.5 19.25H16.5C16.1353 19.25 15.7856 19.1051 15.5277 18.8473C15.2699 18.5894 15.125 18.2397 15.125 17.875C15.125 17.5103 15.2699 17.1606 15.5277 16.9027C15.7856 16.6449 16.1353 16.5 16.5 16.5H27.5C27.8647 16.5 28.2144 16.6449 28.4723 16.9027C28.7301 17.1606 28.875 17.5103 28.875 17.875C28.875 18.2397 28.7301 18.5894 28.4723 18.8473C28.2144 19.1051 27.8647 19.25 27.5 19.25Z" fill="black"/></g><defs><clipPath id="clip0_6005_1228"><rect width="44" height="44" fill="white"/></clipPath></defs></svg>