<svg width="44" height="44" viewBox="0 0 44 44" fill="none" xmlns="http://www.w3.org/2000/svg">
<g clip-path="url(#clip0_6003_676)">
<path d="M35.3197 17.2047L32.3978 12.1516C32.1518 11.7204 31.823 11.3421 31.4303 11.0385C31.0375 10.7349 30.5886 10.512 30.1094 10.3826C29.6301 10.2532 29.13 10.2199 28.6378 10.2845C28.1456 10.3492 27.6711 10.5106 27.2415 10.7594C26.4755 11.1949 25.8903 11.8898 25.5915 12.7188L22.5665 7.51097C22.3206 7.07977 21.9918 6.70148 21.599 6.39787C21.2063 6.09427 20.7574 5.87135 20.2781 5.74195C19.7989 5.61255 19.2987 5.57923 18.8066 5.64391C18.3144 5.70858 17.8399 5.86997 17.4103 6.11879C16.6443 6.5543 16.0591 7.2492 15.7603 8.07816C15.2356 7.25574 14.4147 6.66671 13.4675 6.43313C12.5204 6.19954 11.5197 6.33931 10.6728 6.82347C10.2431 7.07269 9.86689 7.4045 9.56601 7.79979C9.26512 8.19507 9.04545 8.64601 8.91967 9.1266C8.76893 9.6638 8.74539 10.2287 8.85092 10.7766C8.17961 10.828 7.52804 11.0276 6.94311 11.361C5.91679 11.9573 5.16868 12.9362 4.86263 14.083C4.55658 15.2299 4.71756 16.4513 5.3103 17.4797L5.65405 18.0641C5.06432 18.1325 4.49596 18.3259 3.98686 18.6313C2.96172 19.2243 2.21393 20.2001 1.90777 21.3442C1.60161 22.4882 1.76212 23.7071 2.35405 24.7328L8.71342 35.75C10.0723 38.1076 12.1002 40.009 14.5403 41.2135C16.9804 42.4179 19.7231 42.8712 22.421 42.516C25.1189 42.1609 27.6507 41.0131 29.696 39.2182C31.7412 37.4233 33.2079 35.0618 33.9103 32.4328L33.9619 32.2094C35.6985 30.1489 36.7601 27.6046 37.0029 24.9208C37.2458 22.2371 36.6582 19.5435 35.3197 17.2047ZM31.2462 31.7282C30.8776 33.124 30.2349 34.4324 29.3556 35.5774C28.4763 36.7223 27.3778 37.6807 26.1244 38.3969C23.5988 39.8546 20.5977 40.2497 17.7809 39.4956C14.964 38.7414 12.5619 36.8996 11.1025 34.375L4.74311 23.3578C4.57196 23.064 4.49183 22.726 4.51284 22.3866C4.53386 22.0472 4.65508 21.7217 4.86116 21.4512C5.06724 21.1807 5.34893 20.9774 5.67058 20.8671C5.99223 20.7567 6.33938 20.7443 6.66811 20.8313C7.10889 20.9549 7.48466 21.2444 7.71655 21.6391L11.8415 28.7891C11.9644 28.9951 12.1378 29.1664 12.3453 29.2867C12.5528 29.4071 12.7876 29.4724 13.0275 29.4766C13.2684 29.4757 13.5049 29.4116 13.7133 29.2906C13.9216 29.1695 14.0945 28.9959 14.2146 28.787C14.3347 28.5781 14.3979 28.3413 14.3976 28.1004C14.3974 27.8594 14.3339 27.6228 14.2134 27.4141L7.68217 16.1047C7.45425 15.7081 7.39321 15.2373 7.51247 14.7957C7.63173 14.3541 7.92153 13.978 8.31811 13.75C8.71469 13.5221 9.18557 13.4611 9.62716 13.5803C10.0687 13.6996 10.4449 13.9894 10.6728 14.386L17.204 25.6953C17.286 25.8663 17.4025 26.0185 17.5462 26.1423C17.6898 26.266 17.8575 26.3588 18.0387 26.4147C18.2199 26.4705 18.4106 26.4883 18.599 26.4669C18.7874 26.4455 18.9694 26.3854 19.1334 26.2903C19.2975 26.1952 19.4401 26.0672 19.5523 25.9143C19.6645 25.7615 19.7438 25.5871 19.7854 25.4021C19.8269 25.2171 19.8298 25.0255 19.7937 24.8393C19.7577 24.6532 19.6835 24.4765 19.5759 24.3203L14.4197 15.3828C14.1948 14.9856 14.1354 14.5157 14.2544 14.075C14.3735 13.6343 14.6613 13.2582 15.0556 13.0282C15.4503 12.8041 15.9175 12.7452 16.3554 12.8643C16.7934 12.9835 17.1664 13.271 17.3931 13.6641L24.6119 26.1766C24.7362 26.3851 24.9123 26.558 25.1231 26.6784C25.3339 26.7989 25.5722 26.8628 25.815 26.8641C26.0561 26.8581 26.2922 26.7932 26.5025 26.675C26.8162 26.4919 27.0446 26.1921 27.138 25.8411C27.2314 25.4901 27.1821 25.1164 27.0009 24.8016L24.2509 20.0235C24.0252 19.6335 23.9634 19.1699 24.079 18.7344C24.134 18.5134 24.2342 18.3061 24.3732 18.1256C24.5122 17.9452 24.6871 17.7955 24.8869 17.686C25.0781 17.5696 25.2914 17.4942 25.5133 17.4646C25.7352 17.435 25.9609 17.4519 26.1759 17.5141C26.3947 17.569 26.6003 17.6672 26.7804 17.803C26.9605 17.9388 27.1114 18.1095 27.2244 18.3047L30.1462 23.375C30.8739 24.625 31.3459 26.0072 31.5348 27.4412C31.7236 28.8752 31.6255 30.3324 31.2462 31.7282ZM28.3587 4.24535L29.0634 1.58129C29.1097 1.40636 29.19 1.24226 29.2997 1.09836C29.4093 0.954458 29.5463 0.833569 29.7027 0.742597C29.8591 0.651625 30.0319 0.59235 30.2112 0.568157C30.3905 0.543965 30.5729 0.555328 30.7478 0.601599C30.9227 0.647869 31.0868 0.72814 31.2307 0.83783C31.3746 0.947519 31.4955 1.08448 31.5865 1.24089C31.6775 1.39729 31.7367 1.57009 31.7609 1.74941C31.7851 1.92872 31.7738 2.11105 31.7275 2.28597L31.0056 4.95004C30.9292 5.24216 30.7575 5.50046 30.5179 5.68412C30.2782 5.86777 29.9841 5.96629 29.6822 5.9641L29.3212 5.92972C28.9707 5.83324 28.6727 5.60187 28.4923 5.28622C28.3119 4.97056 28.2639 4.59632 28.3587 4.24535ZM32.879 5.8266L34.4603 3.57504C34.6716 3.27623 34.992 3.07263 35.3523 3.0083C35.7125 2.94397 36.0837 3.02407 36.3853 3.23129C36.5337 3.33575 36.66 3.46858 36.7569 3.6221C36.8537 3.77562 36.9192 3.9468 36.9496 4.12576C36.9799 4.30472 36.9746 4.48792 36.9338 4.66479C36.893 4.84166 36.8175 5.00871 36.7119 5.15629L35.1306 7.40785C35.0277 7.55572 34.8965 7.68164 34.7444 7.77828C34.5924 7.87492 34.4227 7.94034 34.2451 7.97074C34.0675 8.00113 33.8857 7.99588 33.7102 7.95531C33.5347 7.91474 33.369 7.83965 33.2228 7.73441C32.9251 7.52628 32.7219 7.20883 32.6575 6.85139C32.5931 6.49394 32.6728 6.12553 32.879 5.8266ZM40.4244 9.5391L38.1728 11.1203C37.9375 11.2741 37.6632 11.3576 37.3822 11.361C37.092 11.3587 36.8101 11.2647 36.5766 11.0924C36.3431 10.9201 36.1702 10.6784 36.0824 10.4018C35.9947 10.1252 35.9967 9.82801 36.0881 9.55265C36.1796 9.27729 36.3558 9.03792 36.5915 8.86879L38.8431 7.28754C38.9907 7.18185 39.1577 7.10644 39.3346 7.06564C39.5115 7.02484 39.6947 7.01946 39.8736 7.04982C40.0526 7.08018 40.2238 7.14567 40.3773 7.24252C40.5308 7.33937 40.6636 7.46566 40.7681 7.6141C40.9753 7.91574 41.0554 8.28685 40.9911 8.64711C40.9268 9.00737 40.7232 9.32781 40.4244 9.5391Z" fill="black"/>
</g>
<defs>
<clipPath id="clip0_6003_676">
<rect width="44" height="44" fill="white"/>
</clipPath>
</defs>
</svg>
