<svg width="44" height="44" viewBox="0 0 44 44" fill="none" xmlns="http://www.w3.org/2000/svg"><g clip-path="url(#clip0_6003_658)"><path d="M37.8986 14.8844L23.7876 10.7766H23.7704L7.64856 6.0672C7.23799 5.94531 6.80442 5.92225 6.38324 5.99992C5.96206 6.07758 5.56522 6.25376 5.22512 6.51407C4.88056 6.76738 4.60113 7.09895 4.40988 7.48145C4.21863 7.86396 4.12103 8.28644 4.12512 8.71407V32.5359C4.12511 33.2623 4.41248 33.9592 4.92449 34.4744C5.43651 34.9897 6.13157 35.2814 6.85794 35.2859C7.12487 35.2866 7.39072 35.2519 7.64856 35.1828L22.0001 30.9891V33C22.0001 33.7294 22.2899 34.4288 22.8056 34.9446C23.3213 35.4603 24.0208 35.75 24.7501 35.75H30.2501C30.9795 35.75 31.6789 35.4603 32.1947 34.9446C32.7104 34.4288 33.0001 33.7294 33.0001 33V27.7922L37.8986 26.3656C38.4688 26.1956 38.9691 25.8463 39.3251 25.3695C39.6812 24.8927 39.8741 24.3138 39.8751 23.7188V17.5313C39.8741 16.9362 39.6812 16.3573 39.3251 15.8805C38.9691 15.4037 38.4688 15.0544 37.8986 14.8844ZM30.2501 33H24.7501V30.1984L30.2501 28.5828V33ZM37.1251 23.7188L31.2126 25.4375L24.7501 27.3281V13.9219L37.1251 17.5313V23.7188Z" fill="black"/></g><defs><clipPath id="clip0_6003_658"><rect width="44" height="44" fill="white"/></clipPath></defs></svg>