<svg width="44" height="44" viewBox="0 0 44 44" fill="none" xmlns="http://www.w3.org/2000/svg">
<g clip-path="url(#clip0_6003_813)">
<path d="M16.5005 15.125C16.4973 15.5671 16.5202 16.009 16.5693 16.4484L3.71304 33.9797C3.32369 34.5099 3.13734 35.1622 3.18779 35.8182C3.23825 36.4741 3.52217 37.0902 3.98804 37.5547L6.44586 40.0125C6.91034 40.4784 7.52645 40.7623 8.18237 40.8127C8.8383 40.8632 9.49058 40.6768 10.0209 40.2875L27.5521 27.4312C27.9915 27.4803 28.4334 27.5032 28.8755 27.5C31.4015 27.5002 33.8669 26.7264 35.9396 25.2828C36.0213 25.2247 36.0893 25.1495 36.1389 25.0624C36.1884 24.9753 36.2183 24.8785 36.2265 24.7786C36.2347 24.6787 36.221 24.5782 36.1862 24.4842C36.1515 24.3902 36.0967 24.3049 36.0255 24.2344L19.7662 7.97499C19.6956 7.90385 19.6103 7.84899 19.5163 7.81428C19.4223 7.77956 19.3218 7.76581 19.222 7.774C19.1221 7.78218 19.0252 7.81211 18.9381 7.86167C18.851 7.91123 18.7758 7.97924 18.7177 8.06092C17.2741 10.1337 16.5003 12.599 16.5005 15.125ZM19.5427 26.4172L16.1052 29.8547C15.8424 30.1088 15.4911 30.2509 15.1255 30.2509C14.76 30.2509 14.4087 30.1088 14.1459 29.8547C13.8877 29.594 13.7428 29.2419 13.7428 28.875C13.7428 28.5081 13.8877 28.156 14.1459 27.8953L17.5834 24.4578C17.8505 24.2385 18.1897 24.1265 18.5349 24.1434C18.8801 24.1604 19.2066 24.3051 19.451 24.5495C19.6954 24.7939 19.8401 25.1205 19.8571 25.4657C19.874 25.8109 19.762 26.15 19.5427 26.4172ZM41.2334 14.4375C41.3853 17.1944 40.6109 19.923 39.0334 22.189C38.9753 22.2707 38.9001 22.3387 38.813 22.3883C38.7259 22.4379 38.629 22.4678 38.5291 22.476C38.4292 22.4842 38.3288 22.4704 38.2348 22.4357C38.1408 22.401 38.0555 22.3461 37.9849 22.275L21.7255 6.01561C21.6544 5.94503 21.5996 5.85975 21.5648 5.76574C21.5301 5.67173 21.5164 5.57127 21.5246 5.4714C21.5327 5.37152 21.5627 5.27464 21.6122 5.18754C21.6618 5.10044 21.7298 5.02523 21.8115 4.96717C23.6193 3.70979 25.7299 2.95758 27.9254 2.78815C30.121 2.61872 32.322 3.03822 34.3013 4.00336C36.2806 4.96849 37.9665 6.4443 39.1851 8.27849C40.4037 10.1127 41.1107 12.2388 41.2334 14.4375Z" fill="black"/>
</g>
<defs>
<clipPath id="clip0_6003_813">
<rect width="44" height="44" fill="white"/>
</clipPath>
</defs>
</svg>
