<svg width="44" height="44" viewBox="0 0 44 44" fill="none" xmlns="http://www.w3.org/2000/svg"><g clip-path="url(#clip0_6003_663)"><path d="M34.375 5.5H31.625V4.125C31.625 3.76033 31.4801 3.41059 31.2223 3.15273C30.9644 2.89487 30.6147 2.75 30.25 2.75C29.8853 2.75 29.5356 2.89487 29.2777 3.15273C29.0199 3.41059 28.875 3.76033 28.875 4.125V5.5H23.375V4.125C23.375 3.76033 23.2301 3.41059 22.9723 3.15273C22.7144 2.89487 22.3647 2.75 22 2.75C21.6353 2.75 21.2856 2.89487 21.0277 3.15273C20.7699 3.41059 20.625 3.76033 20.625 4.125V5.5H15.125V4.125C15.125 3.76033 14.9801 3.41059 14.7223 3.15273C14.4644 2.89487 14.1147 2.75 13.75 2.75C13.3853 2.75 13.0356 2.89487 12.7777 3.15273C12.5199 3.41059 12.375 3.76033 12.375 4.125V5.5H9.625C8.89565 5.5 8.19618 5.78973 7.68046 6.30546C7.16473 6.82118 6.875 7.52065 6.875 8.25V34.375C6.875 35.8337 7.45446 37.2326 8.48591 38.2641C9.51736 39.2955 10.9163 39.875 12.375 39.875H31.625C33.0837 39.875 34.4826 39.2955 35.5141 38.2641C36.5455 37.2326 37.125 35.8337 37.125 34.375V8.25C37.125 7.52065 36.8353 6.82118 36.3195 6.30546C35.8038 5.78973 35.1043 5.5 34.375 5.5ZM27.5 28.875H16.5C16.1353 28.875 15.7856 28.7301 15.5277 28.4723C15.2699 28.2144 15.125 27.8647 15.125 27.5C15.125 27.1353 15.2699 26.7856 15.5277 26.5277C15.7856 26.2699 16.1353 26.125 16.5 26.125H27.5C27.8647 26.125 28.2144 26.2699 28.4723 26.5277C28.7301 26.7856 28.875 27.1353 28.875 27.5C28.875 27.8647 28.7301 28.2144 28.4723 28.4723C28.2144 28.7301 27.8647 28.875 27.5 28.875ZM27.5 23.375H16.5C16.1353 23.375 15.7856 23.2301 15.5277 22.9723C15.2699 22.7144 15.125 22.3647 15.125 22C15.125 21.6353 15.2699 21.2856 15.5277 21.0277C15.7856 20.7699 16.1353 20.625 16.5 20.625H27.5C27.8647 20.625 28.2144 20.7699 28.4723 21.0277C28.7301 21.2856 28.875 21.6353 28.875 22C28.875 22.3647 28.7301 22.7144 28.4723 22.9723C28.2144 23.2301 27.8647 23.375 27.5 23.375Z" fill="black"/></g><defs><clipPath id="clip0_6003_663"><rect width="44" height="44" fill="white"/></clipPath></defs></svg>