<svg width="44" height="44" viewBox="0 0 44 44" fill="none" xmlns="http://www.w3.org/2000/svg"><g clip-path="url(#clip0_6003_653)"><path d="M37.125 6.875H23.375V4.125C23.375 3.76033 23.2301 3.41059 22.9723 3.15273C22.7144 2.89487 22.3647 2.75 22 2.75C21.6353 2.75 21.2856 2.89487 21.0277 3.15273C20.7699 3.41059 20.625 3.76033 20.625 4.125V6.875H6.875C6.14565 6.875 5.44618 7.16473 4.93046 7.68046C4.41473 8.19618 4.125 8.89566 4.125 9.625V30.25C4.125 30.9793 4.41473 31.6788 4.93046 32.1945C5.44618 32.7103 6.14565 33 6.875 33H13.6469L9.93437 37.6406C9.77287 37.8423 9.67148 38.0855 9.64181 38.3422C9.61214 38.5988 9.6554 38.8587 9.76664 39.0919C9.87787 39.3252 10.0526 39.5223 10.2707 39.6608C10.4889 39.7993 10.7416 39.8736 11 39.875C11.2052 39.8764 11.4081 39.8306 11.5928 39.7412C11.7776 39.6518 11.9393 39.5212 12.0656 39.3594L17.1531 33H26.8469L31.9344 39.3594C32.0607 39.5212 32.2224 39.6518 32.4072 39.7412C32.5919 39.8306 32.7948 39.8764 33 39.875C33.2584 39.8736 33.5111 39.7993 33.7293 39.6608C33.9474 39.5223 34.1221 39.3252 34.2334 39.0919C34.3446 38.8587 34.3879 38.5988 34.3582 38.3422C34.3285 38.0855 34.2271 37.8423 34.0656 37.6406L30.3531 33H37.125C37.8543 33 38.5538 32.7103 39.0695 32.1945C39.5853 31.6788 39.875 30.9793 39.875 30.25V9.625C39.875 8.89566 39.5853 8.19618 39.0695 7.68046C38.5538 7.16473 37.8543 6.875 37.125 6.875Z" fill="black"/></g><defs><clipPath id="clip0_6003_653"><rect width="44" height="44" fill="white"/></clipPath></defs></svg>