<svg width="149" height="33" viewBox="0 0 149 33" fill="none" xmlns="http://www.w3.org/2000/svg"><g clip-path="url(#clip0_8023_15)"><path d="M46.1613 7.98696H45.8625V2.91768C45.8625 2.71304 45.7993 2.54348 45.6787 2.409C45.558 2.28037 45.3856 2.21021 45.173 2.21021C44.9604 2.21021 44.7881 2.27452 44.6674 2.409C44.5467 2.53763 44.4835 2.70719 44.4835 2.91768V7.98696H41.4727V2.91768C41.4727 2.71304 41.4095 2.54348 41.2889 2.409C41.1682 2.28037 40.9958 2.21021 40.7832 2.21021C40.5707 2.21021 40.3983 2.27452 40.2776 2.409C40.157 2.53763 40.0938 2.70719 40.0938 2.91768V8.58919C40.0938 8.78799 40.157 8.95755 40.2891 9.09203C40.4213 9.22651 40.5821 9.29082 40.7832 9.29082H45.4661V10.1971C45.4661 10.4017 45.5293 10.5713 45.6499 10.7058C45.7706 10.8344 45.943 10.8987 46.1556 10.8987C46.3682 10.8987 46.5405 10.8344 46.6612 10.7058C46.7819 10.5771 46.8451 10.4076 46.8451 10.1971V8.68859C46.8451 8.48979 46.7819 8.32023 46.6497 8.18575C46.5176 8.05128 46.3509 7.98696 46.1556 7.98696H46.1613Z" fill="white"/><path d="M48.58 9.29069H52.8721C53.0445 9.29069 53.1939 9.22637 53.3203 9.0919C53.4467 8.95742 53.5099 8.81124 53.5099 8.63584C53.5099 8.46043 53.4467 8.30841 53.3203 8.17978C53.1939 8.05114 53.0445 7.98683 52.8721 7.98683H49.2695V6.37893H51.8838C52.0562 6.37893 52.1941 6.32046 52.309 6.20936C52.4182 6.09827 52.4757 5.9521 52.4757 5.77669C52.4757 5.60129 52.4182 5.46096 52.309 5.34402C52.1999 5.23293 52.0562 5.17446 51.8838 5.17446H49.2695V3.56656H52.7687C52.9411 3.56656 53.0905 3.50224 53.2169 3.36776C53.3433 3.23913 53.4065 3.08711 53.4065 2.9117C53.4065 2.7363 53.3433 2.58428 53.2169 2.45564C53.0905 2.32701 52.9411 2.2627 52.7687 2.2627H48.5743C48.3789 2.2627 48.2123 2.32701 48.0801 2.46149C47.948 2.59597 47.8848 2.76553 47.8848 2.96433V8.58321C47.8848 8.78201 47.948 8.95157 48.0801 9.08605C48.2123 9.22053 48.3732 9.28484 48.5743 9.28484L48.58 9.29069Z" fill="white"/><path d="M55.0899 9.33761C55.3082 9.33761 55.4749 9.27329 55.5955 9.14466C55.7162 9.01603 55.7794 8.84647 55.7794 8.63598V6.32645H58.8879V8.63598C58.8879 8.84647 58.9511 9.01018 59.0717 9.14466C59.1924 9.27329 59.3648 9.33761 59.5774 9.33761C59.7899 9.33761 59.9623 9.27329 60.083 9.14466C60.2036 9.01603 60.2668 8.84647 60.2668 8.63598V2.91769C60.2668 2.7189 60.2036 2.54934 60.0715 2.41486C59.9393 2.28038 59.7727 2.21606 59.5774 2.21606C59.382 2.21606 59.2154 2.28038 59.0832 2.41486C58.9511 2.54934 58.8879 2.71305 58.8879 2.91769V5.12783H55.7794V2.91769C55.7794 2.7189 55.7162 2.54934 55.584 2.41486C55.4519 2.28038 55.291 2.21606 55.0899 2.21606C54.8888 2.21606 54.7279 2.28038 54.5957 2.41486C54.4636 2.54934 54.4004 2.71305 54.4004 2.91769V8.64183C54.4004 8.85232 54.4636 9.01603 54.5843 9.15051C54.7049 9.27914 54.8773 9.34346 55.0899 9.34346V9.33761Z" fill="white"/><path d="M63.4221 3.56655V8.63582C63.4221 8.84631 63.4853 9.01003 63.6059 9.14451C63.7266 9.27314 63.899 9.33745 64.1116 9.33745C64.3242 9.33745 64.4908 9.27314 64.6172 9.14451C64.7436 9.01587 64.8068 8.84631 64.8068 8.63582V3.56655H66.4846C66.6799 3.56655 66.8466 3.50223 66.9787 3.3736C67.1109 3.24497 67.1741 3.09295 67.1741 2.91169C67.1741 2.73044 67.1109 2.57842 66.9787 2.44978C66.8466 2.32115 66.6857 2.25684 66.4846 2.25684H61.75C61.5547 2.25684 61.3881 2.32115 61.2559 2.44978C61.1238 2.57842 61.0605 2.73044 61.0605 2.91169C61.0605 3.09295 61.1238 3.24497 61.2559 3.3736C61.3881 3.50223 61.5489 3.56655 61.75 3.56655H63.4278H63.4221Z" fill="white"/><path d="M68.6504 9.33747C68.8458 9.33747 69.0124 9.27315 69.1446 9.13867C69.2767 9.00419 69.3399 8.84048 69.3399 8.63584V7.08055H70.92C71.7359 7.08055 72.4024 6.84668 72.9138 6.37892C73.4252 5.91117 73.6838 5.34402 73.6838 4.67163C73.6838 3.99923 73.4252 3.43208 72.9138 2.96433C72.4024 2.49657 71.7359 2.2627 70.92 2.2627H68.6504C68.4551 2.2627 68.2885 2.32701 68.1563 2.46149C68.0241 2.59597 67.9609 2.76553 67.9609 2.96433V8.63584C67.9609 8.83463 68.0241 9.00419 68.1563 9.13867C68.2885 9.27315 68.4493 9.33747 68.6504 9.33747ZM69.3399 3.56656H70.92C71.3567 3.56656 71.6842 3.66596 71.914 3.86475C72.1439 4.06355 72.253 4.3325 72.253 4.66578C72.253 4.99905 72.1381 5.26801 71.914 5.46681C71.6842 5.6656 71.3567 5.765 70.92 5.765H69.3399V3.55486V3.56656Z" fill="white"/><path d="M40.789 19.6573C41.0073 19.6573 41.174 19.593 41.2946 19.4643C41.4153 19.3357 41.4785 19.1661 41.4785 18.9557V13.8864H44.6329V18.9557C44.6329 19.1661 44.6961 19.3299 44.8168 19.4643C44.9375 19.593 45.1098 19.6573 45.3224 19.6573C45.535 19.6573 45.7074 19.593 45.8281 19.4643C45.9487 19.3357 46.0119 19.1661 46.0119 18.9557V13.2841C46.0119 13.0854 45.9487 12.9158 45.8166 12.7813C45.6844 12.6468 45.5235 12.5825 45.3224 12.5825H40.7832C40.5879 12.5825 40.4213 12.6468 40.2891 12.7813C40.157 12.9158 40.0938 13.0854 40.0938 13.2841V18.9557C40.0938 19.1661 40.157 19.3299 40.2776 19.4643C40.3983 19.593 40.5707 19.6573 40.7832 19.6573H40.789Z" fill="white"/><path d="M48.2813 19.6573C48.4766 19.6573 48.6433 19.593 48.7754 19.4585C48.9076 19.324 48.9708 19.1603 48.9708 18.9557V17.4004H50.5509C51.3668 17.4004 52.0333 17.1665 52.5447 16.6987C53.056 16.231 53.3146 15.6638 53.3146 14.9914C53.3146 14.3191 53.056 13.7519 52.5447 13.2841C52.0333 12.8164 51.3668 12.5825 50.5509 12.5825H48.2813C48.0859 12.5825 47.9193 12.6468 47.7872 12.7813C47.655 12.9158 47.5918 13.0854 47.5918 13.2841V18.9557C47.5918 19.1545 47.655 19.324 47.7872 19.4585C47.9193 19.593 48.0802 19.6573 48.2813 19.6573ZM48.9708 13.8864H50.5509C50.9876 13.8864 51.3151 13.9858 51.5449 14.1846C51.7747 14.3834 51.8839 14.6523 51.8839 14.9856C51.8839 15.3189 51.769 15.5878 51.5449 15.7866C51.3151 15.9854 50.9876 16.0848 50.5509 16.0848H48.9708V13.8747V13.8864Z" fill="white"/><path d="M59.4394 18.9674C60.0255 18.4061 60.3185 17.7162 60.3185 16.8976V15.2897C60.3185 14.4711 60.0255 13.7812 59.4394 13.2199C58.8533 12.6586 58.1121 12.3779 57.21 12.3779C56.3079 12.3779 55.5667 12.6586 54.9807 13.2199C54.3946 13.7812 54.1016 14.4711 54.1016 15.2897V16.8976C54.1016 17.7162 54.3946 18.4061 54.9807 18.9674C55.5667 19.5287 56.3079 19.8094 57.21 19.8094C58.1121 19.8094 58.8533 19.5287 59.4394 18.9674ZM55.4863 16.8976V15.2897C55.4863 14.8278 55.6472 14.4419 55.9632 14.1379C56.2792 13.8338 56.6987 13.6818 57.21 13.6818C57.7214 13.6818 58.1409 13.8338 58.4569 14.1379C58.7786 14.4419 58.9338 14.8278 58.9338 15.2897V16.8976C58.9338 17.3595 58.7729 17.7454 58.4569 18.0494C58.1409 18.3535 57.7214 18.5055 57.21 18.5055C56.6987 18.5055 56.2792 18.3535 55.9632 18.0494C55.6414 17.7454 55.4863 17.3595 55.4863 16.8976Z" fill="white"/><path d="M66.4624 19.2246C67.0025 18.8387 67.2726 18.4762 67.2726 18.1488C67.2726 17.9734 67.2094 17.8214 67.083 17.6927C66.9566 17.5641 66.8072 17.4998 66.6348 17.4998C66.4395 17.4998 66.2556 17.5816 66.0947 17.7512C65.9511 17.8974 65.8304 18.0143 65.727 18.0962C65.6293 18.178 65.4684 18.2716 65.2386 18.3593C65.0145 18.4528 64.7674 18.4996 64.5146 18.4996C64.0032 18.4996 63.5838 18.3476 63.2678 18.0436C62.946 17.7395 62.7909 17.3536 62.7909 16.8917V15.2838C62.7909 14.8219 62.9518 14.436 63.2678 14.132C63.5838 13.8279 64.0032 13.6759 64.5146 13.6759C64.7789 13.6759 65.003 13.711 65.1984 13.7753C65.3937 13.8396 65.5316 13.9098 65.6178 13.9741C65.704 14.0384 65.8132 14.1437 65.9453 14.2723C66.1119 14.4419 66.2901 14.5237 66.4854 14.5237C66.6578 14.5237 66.8072 14.4594 66.9336 14.3249C67.06 14.1963 67.1232 14.0443 67.1232 13.8689C67.1232 13.5414 66.8761 13.2082 66.3877 12.869C65.8993 12.5299 65.2731 12.3604 64.5089 12.3604C63.6068 12.3604 62.8656 12.641 62.2795 13.2023C61.6934 13.7636 61.4004 14.4535 61.4004 15.2721V16.88C61.4004 17.6986 61.6934 18.3885 62.2795 18.9498C62.8656 19.5111 63.6068 19.7918 64.5089 19.7918C65.2731 19.7918 65.9223 19.5988 66.4624 19.2071V19.2246Z" fill="white"/><path d="M72.8056 15.8159C72.8803 15.7866 72.9665 15.7399 73.0642 15.6697C73.1676 15.5995 73.2653 15.5118 73.363 15.4124C73.4606 15.313 73.5468 15.1727 73.6215 14.9914C73.6962 14.8102 73.7307 14.6114 73.7307 14.3892C73.7307 13.9098 73.5124 13.4829 73.0814 13.1263C72.6447 12.7638 72.0759 12.5825 71.3634 12.5825H68.8985C68.7031 12.5825 68.5365 12.6468 68.4043 12.7813C68.2722 12.9158 68.209 13.0854 68.209 13.2841V18.903C68.209 19.1018 68.2722 19.2714 68.4043 19.4059C68.5365 19.5403 68.6974 19.6047 68.8985 19.6047H71.6105C72.346 19.6047 72.9493 19.4 73.4204 18.9966C73.8916 18.5932 74.1272 18.1254 74.1272 17.5992C74.1272 17.3185 74.0754 17.0671 73.972 16.8449C73.8686 16.6227 73.7537 16.459 73.6273 16.3421C73.5009 16.231 73.3515 16.1316 73.1906 16.0556C73.024 15.9796 72.9148 15.9328 72.8516 15.9211C72.7884 15.9094 72.7367 15.8977 72.6965 15.8919V15.8393L72.8056 15.81V15.8159ZM69.588 13.8864H71.3634C71.6737 13.8864 71.9035 13.9507 72.0644 14.0793C72.2253 14.208 72.3 14.3775 72.3 14.5939C72.3 14.8277 72.2195 15.0148 72.0644 15.1435C71.9093 15.2779 71.6737 15.3423 71.3634 15.3423H69.588V13.8864ZM72.4207 18.0728C72.2368 18.2248 71.9667 18.3067 71.6105 18.3067H69.588V16.5526H71.6105C71.9725 16.5526 72.2425 16.6344 72.4264 16.7923C72.6103 16.956 72.6965 17.1723 72.6965 17.453C72.6965 17.7161 72.6045 17.9208 72.4207 18.0728Z" fill="white"/><path d="M75.9023 19.6105H80.1944C80.3668 19.6105 80.5162 19.5462 80.6426 19.4117C80.769 19.2831 80.8322 19.1311 80.8322 18.9557C80.8322 18.7803 80.769 18.6282 80.6426 18.4996C80.5162 18.371 80.3668 18.3067 80.1944 18.3067H76.5918V16.6987H79.2061C79.3785 16.6987 79.5164 16.6403 79.6313 16.5292C79.7405 16.4181 79.7979 16.2719 79.7979 16.0965C79.7979 15.9211 79.7405 15.7808 79.6313 15.6638C79.5221 15.5528 79.3785 15.4943 79.2061 15.4943H76.5918V13.8864H80.091C80.2633 13.8864 80.4127 13.8221 80.5391 13.6876C80.6655 13.559 80.7287 13.4069 80.7287 13.2315C80.7287 13.0561 80.6655 12.9041 80.5391 12.7755C80.4127 12.6468 80.2633 12.5825 80.091 12.5825H75.8965C75.7012 12.5825 75.5345 12.6468 75.4024 12.7813C75.2702 12.9158 75.207 13.0854 75.207 13.2841V18.903C75.207 19.1018 75.2702 19.2714 75.4024 19.4059C75.5345 19.5404 75.6954 19.6047 75.8965 19.6047L75.9023 19.6105Z" fill="white"/><path d="M81.6252 13.8864H83.3029V18.9556C83.3029 19.1661 83.3661 19.3298 83.4868 19.4643C83.6075 19.593 83.7798 19.6573 83.9924 19.6573C84.205 19.6573 84.3716 19.593 84.4981 19.4643C84.6245 19.3357 84.6877 19.1661 84.6877 18.9556V13.8864H86.3654C86.5608 13.8864 86.7274 13.8221 86.8596 13.6934C86.9917 13.5648 87.0549 13.4128 87.0549 13.2315C87.0549 13.0503 86.9917 12.8982 86.8596 12.7696C86.7274 12.641 86.5665 12.5767 86.3654 12.5767H81.6309C81.4356 12.5767 81.2689 12.641 81.1368 12.7696C81.0046 12.8982 80.9414 13.0503 80.9414 13.2315C80.9414 13.4128 81.0046 13.5648 81.1368 13.6934C81.2689 13.8221 81.4298 13.8864 81.6309 13.8864H81.6252Z" fill="white"/><path d="M88.5312 19.6574C88.8185 19.6574 89.054 19.5405 89.2207 19.3066L92.4268 15.091H92.4728V18.9558C92.4728 19.1663 92.536 19.33 92.6567 19.4645C92.7773 19.5931 92.9497 19.6574 93.1623 19.6574C93.3749 19.6574 93.5473 19.5931 93.6679 19.4645C93.7886 19.3358 93.8518 19.1663 93.8518 18.9558V13.2316C93.8518 13.0329 93.7886 12.8633 93.6564 12.7288C93.5243 12.5943 93.3577 12.53 93.1623 12.53C92.875 12.53 92.6452 12.647 92.4728 12.8808L89.2666 17.0965H89.2149V13.2316C89.2149 13.027 89.1517 12.8574 89.0311 12.723C88.9104 12.5943 88.738 12.5242 88.5254 12.5242C88.3128 12.5242 88.1405 12.5885 88.0198 12.723C87.8991 12.8516 87.8359 13.0212 87.8359 13.2316V18.9558C87.8359 19.1546 87.8991 19.3241 88.0313 19.4586C88.1635 19.5931 88.3301 19.6574 88.5254 19.6574H88.5312Z" fill="white"/><path d="M98.3908 13.8864H100.069C100.264 13.8864 100.431 13.8221 100.563 13.6934C100.695 13.5648 100.758 13.4128 100.758 13.2315C100.758 13.0503 100.695 12.8982 100.563 12.7696C100.431 12.641 100.27 12.5767 100.069 12.5767H95.334C95.1387 12.5767 94.972 12.641 94.8399 12.7696C94.7077 12.8982 94.6445 13.0503 94.6445 13.2315C94.6445 13.4128 94.7077 13.5648 94.8399 13.6934C94.972 13.8221 95.1329 13.8864 95.334 13.8864H97.0118V18.9556C97.0118 19.1661 97.075 19.3298 97.1957 19.4643C97.3163 19.593 97.4887 19.6573 97.7013 19.6573C97.9139 19.6573 98.0805 19.593 98.2069 19.4643C98.3333 19.3357 98.3965 19.1661 98.3965 18.9556V13.8864H98.3908Z" fill="white"/><path d="M106.98 18.4996C106.854 18.371 106.705 18.3067 106.532 18.3067H102.93V16.6987H105.544C105.716 16.6987 105.854 16.6403 105.969 16.5292C106.078 16.4181 106.136 16.2719 106.136 16.0965C106.136 15.9211 106.078 15.7808 105.969 15.6638C105.86 15.5528 105.716 15.4943 105.544 15.4943H102.93V13.8864H106.429C106.601 13.8864 106.751 13.8221 106.877 13.6876C107.003 13.5531 107.067 13.4069 107.067 13.2315C107.067 13.0561 107.003 12.9041 106.877 12.7755C106.751 12.6468 106.601 12.5825 106.429 12.5825H102.234C102.039 12.5825 101.872 12.6468 101.74 12.7813C101.608 12.9158 101.545 13.0854 101.545 13.2841V18.903C101.545 19.1018 101.608 19.2714 101.74 19.4059C101.872 19.5403 102.033 19.6047 102.234 19.6047H106.527C106.699 19.6047 106.848 19.5403 106.975 19.4059C107.101 19.2772 107.164 19.1252 107.164 18.9498C107.164 18.7744 107.101 18.6224 106.975 18.4938L106.98 18.4996Z" fill="white"/><path d="M113.335 12.5825H109.44C109.244 12.5825 109.078 12.6468 108.945 12.7813C108.813 12.9158 108.75 13.0854 108.75 13.2841V16.2953C108.75 16.9502 108.652 17.4355 108.457 17.7512C108.262 18.0669 107.951 18.3359 107.515 18.5522C107.285 18.6633 107.17 18.868 107.17 19.1545C107.17 19.3299 107.233 19.4819 107.365 19.6105C107.497 19.7391 107.641 19.8093 107.813 19.8093C108.359 19.8093 108.882 19.476 109.382 18.8095C109.882 18.1429 110.129 17.3068 110.129 16.2953V13.8864H112.646V18.9557C112.646 19.1545 112.709 19.324 112.841 19.4585C112.973 19.593 113.134 19.6573 113.335 19.6573C113.536 19.6573 113.697 19.593 113.829 19.4585C113.961 19.324 114.025 19.1603 114.025 18.9557V13.2841C114.025 13.0854 113.961 12.9158 113.829 12.7813C113.697 12.6468 113.536 12.5825 113.335 12.5825Z" fill="white"/><path d="M118.565 14.7928H116.984V13.2375C116.984 13.0387 116.921 12.8692 116.789 12.7347C116.657 12.6002 116.496 12.5359 116.295 12.5359C116.094 12.5359 115.933 12.6002 115.801 12.7347C115.669 12.8692 115.605 13.0329 115.605 13.2375V18.909C115.605 19.1078 115.669 19.2774 115.801 19.4119C115.933 19.5463 116.094 19.6107 116.295 19.6107H118.565C119.38 19.6107 120.047 19.3768 120.558 18.909C121.07 18.4413 121.328 17.8741 121.328 17.2017C121.328 16.5293 121.07 15.9622 120.558 15.4944C120.047 15.0267 119.38 14.7928 118.565 14.7928ZM119.559 18.0028C119.329 18.2016 119.001 18.3009 118.565 18.3009H116.984V16.0908H118.565C119.001 16.0908 119.329 16.1902 119.559 16.389C119.783 16.5878 119.898 16.8568 119.898 17.19C119.898 17.5233 119.783 17.7923 119.559 17.9911V18.0028Z" fill="white"/><path d="M127.397 17.4998C127.201 17.4998 127.017 17.5816 126.856 17.7512C126.713 17.8974 126.592 18.0143 126.489 18.0962C126.391 18.178 126.23 18.2716 126 18.3593C125.776 18.4528 125.535 18.4996 125.276 18.4996C124.765 18.4996 124.346 18.3476 124.029 18.0436C123.708 17.7395 123.553 17.3536 123.553 16.8917V15.2838C123.553 14.8219 123.713 14.436 124.029 14.132C124.346 13.8279 124.765 13.6759 125.276 13.6759C125.541 13.6759 125.765 13.711 125.96 13.7753C126.155 13.8396 126.293 13.9098 126.38 13.9741C126.466 14.0384 126.575 14.1437 126.707 14.2723C126.874 14.4419 127.052 14.5237 127.247 14.5237C127.42 14.5237 127.569 14.4594 127.695 14.3249C127.822 14.1904 127.885 14.0443 127.885 13.8689C127.885 13.5414 127.638 13.2082 127.149 12.869C126.661 12.5299 126.035 12.3604 125.271 12.3604C124.368 12.3604 123.627 12.641 123.041 13.2023C122.455 13.7636 122.162 14.4535 122.162 15.2721V16.88C122.162 17.6986 122.455 18.3885 123.041 18.9498C123.627 19.5111 124.368 19.7918 125.271 19.7918C126.035 19.7918 126.684 19.5988 127.224 19.2071C127.764 18.8212 128.034 18.4587 128.034 18.1313C128.034 17.9559 127.971 17.8038 127.845 17.6752C127.718 17.5466 127.569 17.4823 127.397 17.4823V17.4998Z" fill="white"/><path d="M132.47 15.5295L134.395 13.7345L134.452 13.6643C134.492 13.6176 134.533 13.5474 134.573 13.4538C134.613 13.3603 134.636 13.2667 134.636 13.1849C134.636 13.0095 134.573 12.8575 134.446 12.7288C134.32 12.6002 134.171 12.53 133.998 12.53C133.803 12.53 133.619 12.6119 133.458 12.7814L130.35 15.74V13.2317C130.35 13.0329 130.286 12.8633 130.154 12.7288C130.022 12.5943 129.861 12.53 129.66 12.53C129.459 12.53 129.298 12.5943 129.166 12.7288C129.034 12.8633 128.971 13.027 128.971 13.2317V18.9558C128.971 19.1663 129.034 19.33 129.155 19.4645C129.275 19.5931 129.448 19.6574 129.66 19.6574C129.873 19.6574 130.045 19.5931 130.166 19.4645C130.286 19.3358 130.35 19.1663 130.35 18.9558V17.4999L131.482 16.4416L133.797 19.406L133.855 19.4645C133.895 19.5054 133.958 19.5463 134.044 19.5873C134.13 19.6282 134.228 19.6516 134.337 19.6516C134.527 19.6516 134.682 19.5873 134.803 19.4586C134.923 19.33 134.981 19.178 134.981 18.9967C134.981 18.8272 134.918 18.6634 134.785 18.4939L132.47 15.5237V15.5295Z" fill="white"/><path d="M141.106 12.53C140.818 12.53 140.589 12.647 140.416 12.8808L137.21 17.0965H137.158V13.2316C137.158 13.027 137.095 12.8574 136.974 12.723C136.854 12.5943 136.681 12.5242 136.469 12.5242C136.256 12.5242 136.084 12.5885 135.963 12.723C135.843 12.8516 135.779 13.0212 135.779 13.2316V18.9558C135.779 19.1546 135.842 19.3241 135.975 19.4586C136.107 19.5931 136.273 19.6574 136.469 19.6574C136.756 19.6574 136.992 19.5405 137.158 19.3066L140.364 15.091H140.41V18.9558C140.41 19.1663 140.474 19.33 140.594 19.4645C140.715 19.5931 140.887 19.6574 141.1 19.6574C141.313 19.6574 141.485 19.5931 141.606 19.4645C141.726 19.3358 141.789 19.1663 141.789 18.9558V13.2316C141.789 13.0329 141.726 12.8633 141.594 12.7288C141.462 12.5943 141.295 12.53 141.1 12.53H141.106Z" fill="white"/><path d="M148.702 18.3477L146.76 15.9622L148.547 13.7754L148.616 13.7053C148.656 13.6585 148.696 13.5883 148.737 13.4948C148.777 13.4012 148.794 13.3135 148.794 13.2258C148.794 13.027 148.725 12.8633 148.593 12.7288C148.461 12.5943 148.294 12.53 148.105 12.53C147.857 12.53 147.639 12.647 147.461 12.8808L145.858 14.8571L144.255 12.8808C144.071 12.647 143.858 12.53 143.611 12.53C143.422 12.53 143.261 12.5943 143.123 12.7288C142.991 12.8633 142.922 13.027 142.922 13.2317C142.922 13.4363 143.002 13.6176 143.169 13.7813L144.95 15.9739L143.019 18.3536L142.951 18.4413C142.899 18.4939 142.847 18.5699 142.795 18.6751C142.744 18.7745 142.721 18.8681 142.721 18.9558C142.721 19.1429 142.79 19.3066 142.922 19.4469C143.06 19.5873 143.221 19.6574 143.41 19.6574C143.554 19.6574 143.669 19.634 143.755 19.5873C143.841 19.5405 143.939 19.4469 144.054 19.3125L145.852 17.0789V17.1082L147.651 19.3125C147.766 19.4528 147.863 19.5463 147.949 19.5931C148.036 19.6399 148.15 19.6633 148.294 19.6633C148.484 19.6633 148.65 19.5931 148.783 19.4528C148.92 19.3125 148.984 19.1487 148.984 18.9616C148.984 18.7628 148.886 18.5582 148.685 18.3594L148.702 18.3477Z" fill="white"/><path d="M45.4201 22.8498C45.1328 22.8498 44.903 22.9668 44.7306 23.2007L41.5245 27.4163H41.4727V23.5515C41.4727 23.3468 41.4095 23.1773 41.2889 23.0428C41.1682 22.9142 40.9958 22.844 40.7832 22.844C40.5707 22.844 40.3983 22.9083 40.2776 23.0428C40.157 23.1714 40.0938 23.341 40.0938 23.5515V29.2756C40.0938 29.4744 40.157 29.644 40.2891 29.7784C40.4213 29.9129 40.5879 29.9772 40.7832 29.9772C41.0705 29.9772 41.3061 29.8603 41.4727 29.6264L44.6789 25.4108H44.7249V29.2756C44.7249 29.4861 44.7881 29.6498 44.9087 29.7843C45.0294 29.9129 45.2018 29.9772 45.4144 29.9772C45.627 29.9772 45.7993 29.9129 45.92 29.7843C46.0406 29.6557 46.1039 29.4861 46.1039 29.2756V23.5515C46.1039 23.3527 46.0407 23.1831 45.9085 23.0486C45.7763 22.9142 45.6097 22.8498 45.4144 22.8498H45.4201Z" fill="white"/><path d="M52.8664 22.8499C52.6711 22.8499 52.5044 22.9142 52.3723 23.0486C52.2401 23.1831 52.1769 23.3468 52.1769 23.5515V25.7616H49.0684V23.5515C49.0684 23.3527 49.0052 23.1831 48.8731 23.0486C48.7409 22.9142 48.58 22.8499 48.3789 22.8499C48.1778 22.8499 48.017 22.9142 47.8848 23.0486C47.7527 23.1831 47.6895 23.3468 47.6895 23.5515V29.2756C47.6895 29.4861 47.7527 29.6498 47.8733 29.7843C47.994 29.9129 48.1664 29.9772 48.3789 29.9772C48.5915 29.9772 48.7639 29.9129 48.8846 29.7843C49.0052 29.6557 49.0684 29.4861 49.0684 29.2756V26.9661H52.1769V29.2756C52.1769 29.4861 52.2401 29.6498 52.3608 29.7843C52.4814 29.9129 52.6538 29.9772 52.8664 29.9772C53.079 29.9772 53.2514 29.9129 53.372 29.7843C53.4927 29.6557 53.5559 29.4861 53.5559 29.2756V23.5515C53.5559 23.3527 53.4927 23.1831 53.3606 23.0486C53.2284 22.9142 53.0618 22.8499 52.8664 22.8499Z" fill="white"/><path d="M60.4631 22.8498C60.1758 22.8498 59.946 22.9668 59.7736 23.2007L56.5674 27.4163H56.5157V23.5515C56.5157 23.3468 56.4525 23.1773 56.3318 23.0428C56.2112 22.9142 56.0388 22.844 55.8262 22.844C55.6136 22.844 55.4412 22.9083 55.3206 23.0428C55.1999 23.1714 55.1367 23.341 55.1367 23.5515V29.2756C55.1367 29.4744 55.1999 29.644 55.3321 29.7784C55.4642 29.9129 55.6309 29.9772 55.8262 29.9772C56.1135 29.9772 56.3491 29.8603 56.5157 29.6264L59.7219 25.4108H59.7678V29.2756C59.7678 29.4861 59.831 29.6498 59.9517 29.7843C60.0724 29.9129 60.2447 29.9772 60.4573 29.9772C60.6699 29.9772 60.8423 29.9129 60.963 29.7843C61.0836 29.6557 61.1468 29.4861 61.1468 29.2756V23.5515C61.1468 23.3527 61.0836 23.1831 60.9515 23.0486C60.8193 22.9142 60.6527 22.8498 60.4573 22.8498H60.4631Z" fill="white"/><path d="M68.8 28.6207H68.5012V23.5515C68.5012 23.3468 68.438 23.1773 68.3173 23.0428C68.1967 22.9142 68.0243 22.844 67.8117 22.844C67.5991 22.844 67.4267 22.9083 67.3061 23.0428C67.1854 23.1714 67.1222 23.341 67.1222 23.5515V28.6207H64.1114V23.5515C64.1114 23.3468 64.0482 23.1773 63.9275 23.0428C63.8069 22.9142 63.6345 22.844 63.4219 22.844C63.2093 22.844 63.0369 22.9083 62.9163 23.0428C62.7956 23.1714 62.7324 23.341 62.7324 23.5515V29.223C62.7324 29.4218 62.7956 29.5913 62.9278 29.7258C63.0599 29.8603 63.2208 29.9246 63.4219 29.9246H68.1047V30.8309C68.1047 31.0355 68.1679 31.2051 68.2886 31.3396C68.4093 31.4682 68.5816 31.5325 68.7942 31.5325C69.0068 31.5325 69.1792 31.4682 69.2999 31.3396C69.4205 31.2109 69.4837 31.0414 69.4837 30.8309V29.3224C69.4837 29.1236 69.4205 28.954 69.2884 28.8195C69.1562 28.6851 68.9896 28.6207 68.7942 28.6207H68.8Z" fill="white"/><path d="M75.8557 22.8498C75.5684 22.8498 75.3385 22.9668 75.1662 23.2007L71.96 27.4163H71.9083V23.5515C71.9083 23.3468 71.8451 23.1773 71.7244 23.0428C71.6038 22.9142 71.4314 22.844 71.2188 22.844C71.0062 22.844 70.8338 22.9083 70.7132 23.0428C70.5925 23.1714 70.5293 23.341 70.5293 23.5515V29.2756C70.5293 29.4744 70.5925 29.644 70.7247 29.7784C70.8568 29.9129 71.0234 29.9772 71.2188 29.9772C71.5061 29.9772 71.7417 29.8603 71.9083 29.6264L75.1144 25.4108H75.1604V29.2756C75.1604 29.4861 75.2236 29.6498 75.3443 29.7843C75.4649 29.9129 75.6373 29.9772 75.8499 29.9772C76.0625 29.9772 76.2349 29.9129 76.3555 29.7843C76.4762 29.6557 76.5394 29.4861 76.5394 29.2756V23.5515C76.5394 23.3527 76.4762 23.1831 76.344 23.0486C76.2119 22.9142 76.0453 22.8498 75.8499 22.8498H75.8557Z" fill="white"/><path d="M81.8497 23.5105C81.7635 23.2883 81.6314 23.0953 81.4532 22.9375C81.2751 22.7796 81.0625 22.6978 80.8097 22.6978C80.5569 22.6978 80.3443 22.7679 80.1662 22.9024C79.9881 23.0369 79.8559 23.2064 79.7697 23.3994L77.5001 28.8195L77.4829 28.8896C77.4657 28.9364 77.4427 28.9949 77.4312 29.0709C77.4139 29.1469 77.4082 29.2112 77.4082 29.2697C77.4082 29.4626 77.4772 29.6322 77.6093 29.7667C77.7415 29.9012 77.9081 29.9713 78.0977 29.9713C78.4424 29.9713 78.6838 29.7725 78.8389 29.3691L79.2813 28.2172H82.3611L82.8035 29.3749C82.9472 29.7784 83.1885 29.9772 83.516 29.9772C83.6999 29.9772 83.855 29.9128 83.9871 29.7784C84.1193 29.6439 84.1825 29.4802 84.1825 29.2931C84.1825 29.1644 84.148 29.0124 84.0848 28.8487L81.8497 23.5105ZM79.7985 26.9134L80.804 24.3524H80.8614L81.8669 26.9134H79.7927H79.7985Z" fill="white"/><path d="M89.1799 22.9023H84.4454C84.25 22.9023 84.0834 22.9667 83.9512 23.0953C83.8191 23.2239 83.7559 23.3759 83.7559 23.5572C83.7559 23.7385 83.8191 23.8905 83.9512 24.0191C84.0834 24.1477 84.2443 24.2121 84.4454 24.2121H86.1231V29.2813C86.1231 29.4918 86.1863 29.6555 86.307 29.79C86.4277 29.9186 86.6 29.983 86.8126 29.983C87.0252 29.983 87.1918 29.9186 87.3183 29.79C87.4447 29.6614 87.5079 29.4918 87.5079 29.2813V24.2121H89.1856C89.381 24.2121 89.5476 24.1477 89.6798 24.0191C89.8119 23.8905 89.8751 23.7385 89.8751 23.5572C89.8751 23.3759 89.8119 23.2239 89.6798 23.0953C89.5476 22.9667 89.3867 22.9023 89.1856 22.9023H89.1799Z" fill="white"/><path d="M95.9826 22.8498C95.6953 22.8498 95.4655 22.9668 95.2931 23.2007L92.087 27.4163H92.0352V23.5515C92.0352 23.3468 91.972 23.1773 91.8514 23.0428C91.7307 22.9142 91.5583 22.844 91.3457 22.844C91.1331 22.844 90.9608 22.9083 90.8401 23.0428C90.7195 23.1714 90.6562 23.341 90.6562 23.5515V29.2756C90.6562 29.4744 90.7195 29.644 90.8516 29.7784C90.9838 29.9129 91.1504 29.9772 91.3457 29.9772C91.633 29.9772 91.8686 29.8603 92.0352 29.6264L95.2414 25.4108H95.2874V29.2756C95.2874 29.4861 95.3506 29.6498 95.4712 29.7843C95.5919 29.9129 95.7643 29.9772 95.9769 29.9772C96.1894 29.9772 96.3618 29.9129 96.4825 29.7843C96.6031 29.6557 96.6664 29.4861 96.6664 29.2756V23.5515C96.6664 23.3527 96.6031 23.1831 96.471 23.0486C96.3388 22.9142 96.1722 22.8498 95.9769 22.8498H95.9826Z" fill="white"/><path d="M103.678 26.6678C103.552 26.5567 103.402 26.4573 103.241 26.3813C103.075 26.3053 102.966 26.2585 102.902 26.2468C102.839 26.2351 102.787 26.2234 102.747 26.2175V26.1649L102.856 26.1357C102.931 26.1065 103.017 26.0597 103.115 25.9895C103.218 25.9194 103.316 25.8316 103.414 25.7323C103.511 25.6329 103.598 25.4925 103.672 25.3113C103.747 25.13 103.781 24.9312 103.781 24.709C103.781 24.2296 103.563 23.8028 103.132 23.4461C102.696 23.0836 102.127 22.9023 101.414 22.9023H98.9493C98.7539 22.9023 98.5873 22.9667 98.4551 23.1011C98.323 23.2356 98.2598 23.4052 98.2598 23.604V29.2229C98.2598 29.4217 98.323 29.5912 98.4551 29.7257C98.5873 29.8602 98.7482 29.9245 98.9493 29.9245H101.661C102.397 29.9245 103 29.7199 103.471 29.3164C103.942 28.913 104.178 28.4452 104.178 27.919C104.178 27.6383 104.126 27.3869 104.023 27.1647C103.919 26.9426 103.804 26.7789 103.678 26.6619V26.6678ZM99.6388 24.2062H101.414C101.724 24.2062 101.954 24.2705 102.115 24.3992C102.276 24.5278 102.351 24.6973 102.351 24.9137C102.351 25.1476 102.27 25.3347 102.115 25.4633C101.96 25.5978 101.724 25.6621 101.414 25.6621H99.6388V24.2062ZM102.471 28.3926C102.288 28.5446 102.018 28.6265 101.661 28.6265H99.6388V26.8724H101.661C102.023 26.8724 102.293 26.9543 102.477 27.1121C102.661 27.2758 102.747 27.4922 102.747 27.7728C102.747 28.0359 102.655 28.2406 102.471 28.3926Z" fill="white"/><path d="M2.93036 14.3775C4.15996 15.3422 5.58491 15.8918 7.09606 16.038C7.30291 16.0672 7.46953 16.0614 7.61318 16.0614H14.3243C14.8414 16.0614 15.3183 15.6287 15.3183 15.0499V8.26745C15.3183 8.07451 15.2781 7.91664 15.2723 7.74123C15.1804 6.20349 14.6116 4.7593 13.6635 3.50806C13.2843 3.02862 12.8591 2.59594 12.342 2.16327C12.296 2.1165 11.5146 1.59027 11.233 1.4441C11.1296 1.37394 11.0262 1.33301 10.8768 1.25115C9.88277 0.771706 8.79681 0.531982 7.66489 0.531982C5.96414 0.531982 4.30935 1.11083 2.9361 2.16912C2.46495 2.55502 1.99379 2.98769 1.61457 3.51391C0.568834 4.90548 0 6.54261 0 8.2733C0 10.004 0.568834 11.6411 1.60882 13.0327C1.98805 13.5121 2.41323 13.9448 2.93036 14.3775ZM2.96483 4.73592L3.02229 4.65991C3.30383 4.32078 3.68306 3.94074 4.01631 3.64839C5.10227 2.78305 6.33187 2.3036 7.6534 2.3036C8.54974 2.3036 9.35416 2.49655 10.1126 2.82982C10.2045 2.8766 10.3022 2.92337 10.3941 2.97599C10.5838 3.06954 11.3365 3.64839 11.3365 3.64839C11.7157 3.93489 12.0432 4.32078 12.3305 4.65991C13.0372 5.57202 13.4624 6.72971 13.5601 7.88156C13.5601 7.88156 13.606 8.22068 13.606 8.40778V14.3249H7.6534C7.52125 14.3249 7.20523 14.3015 7.20523 14.3015C6.07331 14.2079 4.91266 13.746 4.01057 13.0736C3.63134 12.6877 3.30383 12.3544 3.01654 11.9686C2.21213 10.9103 1.78694 9.65902 1.78694 8.31423C1.78694 6.96944 2.15467 5.79421 2.95908 4.73592H2.96483Z" fill="white"/><path d="M14.3703 17.418H7.7052C7.51559 17.418 7.36046 17.4589 7.18808 17.4647C5.67694 17.5583 4.25773 18.1371 3.02813 19.1019C2.55697 19.4878 2.13178 19.9204 1.70659 20.4467C1.66063 20.4934 1.1435 21.2886 0.99986 21.5751C0.93091 21.6804 0.89069 21.7856 0.810249 21.9376C0.339093 22.9491 0.103516 24.0542 0.103516 25.206C0.103516 26.9367 0.67235 28.6206 1.71234 30.0181C2.09156 30.4975 2.51675 30.9828 3.03387 31.3629C4.40712 32.4211 6.01019 33 7.71095 33C9.41171 33 11.0205 32.4211 12.388 31.3629C12.8592 30.977 13.2844 30.5443 13.7096 30.0181C14.6576 28.7668 15.1977 27.3168 15.3414 25.779C15.3701 25.5686 15.3644 25.399 15.3644 25.2528V18.4236C15.3644 17.8974 14.9392 17.4121 14.3703 17.4121V17.418ZM13.6636 25.2119C13.6636 25.3464 13.6406 25.668 13.6406 25.668C13.5487 26.8198 13.0948 28.0009 12.434 28.9188C12.0548 29.3047 11.7273 29.638 11.348 29.9304C10.3081 30.7489 9.07845 31.1816 7.75692 31.1816C6.43538 31.1816 5.28048 30.8074 4.24049 29.9888L4.16579 29.9304C3.83254 29.6439 3.45906 29.258 3.17177 28.9188C2.32139 27.8138 1.85024 26.5625 1.85024 25.2177C1.85024 24.3056 2.03985 23.4871 2.36736 22.7153C2.41333 22.6217 2.45929 22.5223 2.511 22.4288C2.60294 22.2358 3.17177 21.4699 3.17177 21.4699C3.45332 21.084 3.83254 20.7507 4.16579 20.4584C5.06214 19.7392 6.19981 19.3065 7.33173 19.2071C7.33173 19.2071 7.66498 19.1603 7.84885 19.1603H13.6636V25.2177V25.2119Z" fill="white"/><path d="M31.3728 21.5751C31.2291 21.2886 30.712 20.4934 30.666 20.4408C30.2409 19.9146 29.8157 19.4819 29.3445 19.096C28.1149 18.1313 26.6957 17.5583 25.1846 17.4589C25.0122 17.453 24.8513 17.4121 24.6674 17.4121H18.0023C17.4335 17.4121 17.0083 17.8916 17.0083 18.4236V25.2528C17.0083 25.399 17.0025 25.5686 17.0313 25.779C17.1749 27.3168 17.715 28.7668 18.6631 30.0181C19.0883 30.5443 19.5134 30.977 19.9846 31.3629C21.3578 32.4211 22.9609 33 24.6617 33C26.3624 33 27.9713 32.4211 29.3388 31.3629C29.8559 30.977 30.2811 30.4975 30.6603 30.0181C31.7003 28.6206 32.2691 26.9426 32.2691 25.206C32.2691 24.0542 32.0335 22.9433 31.5624 21.9376C31.4819 21.7856 31.4417 21.6862 31.3728 21.5751ZM29.2009 28.9071C28.9193 29.2463 28.5401 29.6263 28.2068 29.9187L28.1321 29.9771C27.0922 30.7957 25.9372 31.1699 24.6157 31.1699C23.2942 31.1699 22.0646 30.7372 21.0246 29.9187C20.6454 29.6322 20.3179 29.293 19.9386 28.9071C19.2779 27.995 18.8297 26.814 18.732 25.6563C18.732 25.6563 18.7033 25.3405 18.709 25.2002V19.1369H24.5238C24.7134 19.1369 25.0409 19.1837 25.0409 19.1837C26.1728 19.2773 27.3105 19.7099 28.2068 20.435C28.5401 20.7215 28.9136 21.0606 29.2009 21.4465C29.2009 21.4465 29.7697 22.2183 29.8616 22.4054C29.9076 22.4989 29.9536 22.5983 30.0053 22.6919C30.3385 23.4637 30.5224 24.2764 30.5224 25.1944C30.5224 26.5391 30.0512 27.7904 29.2009 28.8955V28.9071Z" fill="white"/><path d="M26.5629 0.0935059H26.3733C25.9481 0.1052 25.6148 0.590494 25.6148 1.02317C25.6148 1.54939 26.04 2.01714 26.5571 2.01714H29.4875L24.1497 7.50155C23.7704 7.88745 23.7704 8.41367 24.1497 8.79956C24.3393 8.99251 24.5748 9.03929 24.8104 9.03929C25.046 9.03929 25.2816 8.94574 25.4712 8.79956L30.7171 3.41455V6.34971C30.7171 6.87593 31.2112 7.31445 31.7284 7.31445C32.1995 7.31445 32.6477 6.87593 32.6534 6.44326V6.34971V1.15764V0.0935059H26.5571H26.5629Z" fill="white"/><path d="M30.7235 8.12723V8.2734C30.7235 8.46635 30.7177 8.63591 30.7062 8.81132C30.6143 10.0158 30.1546 11.115 29.4019 12.0739C29.1664 12.413 28.4079 13.0854 28.362 13.1322C28.2413 13.2433 27.8908 13.4947 27.6035 13.6584C27.3679 13.8046 27.1324 13.8981 26.8451 14.0443C26.1383 14.3308 25.3799 14.477 24.6214 14.477C23.2539 14.477 21.9267 14.0443 20.8407 13.1322C20.4615 12.8457 20.0823 12.4598 19.8007 12.0739C18.9503 10.9688 18.4792 9.67081 18.4792 8.22662C18.4792 6.78244 18.9044 5.48442 19.7548 4.37935C20.088 3.99346 20.4155 3.60756 20.7947 3.32106C21.7371 2.54927 22.8747 2.09321 24.0526 1.99381C24.2192 1.98212 24.3859 1.97627 24.5755 1.97627H24.7191C24.4835 1.73655 24.2939 1.39743 24.2939 0.917978C24.2939 0.578857 24.3859 0.245583 24.5755 0.00585938C24.3859 0.00585938 24.1905 0.00585938 24.0066 0.0234001C22.3978 0.116951 20.8867 0.777652 19.6111 1.74239C19.0882 2.17507 18.6171 2.60774 18.2379 3.13981C17.1519 4.584 16.5371 6.31468 16.5371 8.19154C16.5371 10.0684 17.0945 11.7231 18.1804 13.214L18.2379 13.2901C18.6171 13.8163 19.0882 14.2548 19.6111 14.6875C21.0303 15.7925 22.7311 16.4182 24.5755 16.4182C25.7591 16.4182 26.937 16.1784 27.977 15.6464C28.1206 15.5996 28.2126 15.5002 28.3562 15.4534C28.5918 15.3072 28.8274 15.1669 29.0629 15.0207C29.7984 14.4945 30.5281 13.8689 30.9073 13.3368C31.9014 12.0388 32.5104 10.5245 32.6081 8.89317C32.6081 8.69438 32.6081 8.53066 32.6081 8.38449C32.3725 8.57744 32.091 8.67099 31.7118 8.67099C31.3785 8.63591 31.005 8.43127 30.7177 8.14477L30.7235 8.12723Z" fill="white"/></g><defs><clipPath id="clip0_8023_15"><rect width="149" height="33" fill="white"/></clipPath></defs></svg>