<svg width="135" height="32" viewBox="0 0 135 32" fill="none" xmlns="http://www.w3.org/2000/svg"><g clip-path="url(#clip0_8001_912)"><path d="M0 23.4321H4.43487V22.3508H0.933656V20.7905H4.43487V19.7092H0V23.4252V23.4321Z" fill="white"/><path d="M0 18.0394H4.43487V17.0197H0.933656V15.4047H4.43487V14.385H0V18.0394Z" fill="white"/><path d="M0 8.86903V10.1282L1.92733 11.6269H0V12.7082H4.43487V11.6269H2.33414L4.43487 10.0666V8.74585L2.04071 10.6004L0 8.86219L0 8.86903Z" fill="white"/><path d="M11.678 8.74585H6.18945V23.4251H9.28386V18.8126H12.0315C14.3656 18.751 16.353 17.0127 16.7064 14.5559C16.8798 12.9956 16.5864 11.5585 15.4793 10.3609C14.4857 9.22489 13.1452 8.74585 11.6847 8.74585H11.678ZM12.0315 15.8767C11.1578 15.9383 10.2242 15.8767 9.34388 15.8767V11.7433H9.57729C10.3976 11.7433 11.2112 11.7433 12.0315 11.8049C13.0252 11.9281 13.6654 12.763 13.6654 13.8442C13.6054 14.8639 12.9651 15.7604 12.0315 15.8836V15.8767Z" fill="white"/><path d="M23.4746 6.04969C20.6737 7.5484 19.1531 10.0668 18.3929 13.2422H22.6543C22.7744 13.2422 22.9478 13.0642 23.0078 12.941C24.2949 10.0052 27.1559 8.56808 30.1903 9.46457C32.351 10.0668 33.6915 11.5587 34.3917 13.8375H26.509V17.971H34.3317C33.5714 21.2695 30.0702 23.302 26.7958 22.344C24.8684 21.8033 23.5813 20.4894 22.8811 18.5664C22.8211 18.4432 22.7077 18.2653 22.5876 18.2653H18.3262C18.733 20.5989 19.6666 22.5766 21.3072 24.1369C23.2946 26.0531 25.6887 26.9564 28.3696 26.9564C31.0506 26.9564 33.7448 26.1147 35.7855 24.0822C38.8799 21.0232 39.7536 17.2524 38.7666 13.0574C37.0727 5.5638 29.1299 2.92907 23.4679 6.04969H23.4746Z" fill="white"/><path d="M57.1121 0C48.5291 0 41.5801 7.19247 41.5801 16C41.5801 19.237 42.5137 22.1728 44.0943 24.6912H48.6492V20.0171C48.1223 18.7579 47.7756 17.4371 47.7756 16C47.7756 10.6689 51.9237 6.41232 57.1188 6.41232C58.5193 6.41232 59.8664 6.71343 61.0335 7.30881H65.5884V2.57998C63.1342 0.964927 60.2132 0 57.1188 0H57.1121Z" fill="white"/><path d="M65.5154 7.30884V11.9829C66.0422 13.2421 66.389 14.5629 66.389 16C66.389 21.3311 62.2409 25.5877 57.0458 25.5877C55.6453 25.5877 54.2982 25.2866 53.1311 24.6912H48.5762V29.4269C51.0304 31.0419 53.8913 32.0069 57.0458 32.0069C65.6287 32.0069 72.5778 24.8144 72.5778 16.0069C72.5778 12.7699 71.6441 9.83407 70.0703 7.31568H65.5154V7.30884Z" fill="white"/><path d="M78.0145 10.6074H77.1875V5.95386H78.508C78.8414 5.95386 79.0882 5.95386 79.3349 6.03598C79.5817 6.1181 79.7484 6.20707 79.9084 6.37131C80.0752 6.5424 80.1552 6.70664 80.1552 6.87772C80.2352 7.04881 80.2352 7.21305 80.2352 7.4731C80.2352 7.8974 80.0685 8.23273 79.8217 8.5749C79.495 8.82811 79.1615 8.9992 78.588 8.9992H78.0078V10.6074H78.0145ZM78.508 6.71348H77.9278V8.15061H78.508C78.7547 8.15061 79.0015 8.06849 79.0882 7.97952C79.2549 7.8974 79.3349 7.64419 79.3349 7.38414C79.4149 6.95985 79.0882 6.70664 78.508 6.70664V6.71348Z" fill="white"/><path d="M80.8203 8.23942C80.8203 7.56192 81.0671 6.97338 81.4805 6.54908C81.894 6.12479 82.4675 5.87158 83.2145 5.87158C83.8747 5.87158 84.4482 6.12479 84.9484 6.54908C85.3619 6.97338 85.6086 7.56192 85.6086 8.32838C85.6086 9.00588 85.3619 9.59442 84.9484 10.0187C84.5349 10.443 83.9614 10.6962 83.2145 10.6962C82.5542 10.6962 81.974 10.443 81.4805 10.0187C80.987 9.59442 80.8203 9.00588 80.8203 8.23942ZM81.6473 8.23942C81.6473 8.74583 81.814 9.08801 82.0607 9.42334C82.3875 9.75867 82.721 9.92975 83.1344 9.92975C83.628 9.92975 83.9614 9.75867 84.2081 9.42334C84.4549 9.08801 84.6216 8.74583 84.6216 8.23942C84.6216 7.733 84.4549 7.39083 84.2081 7.0555C83.8814 6.72017 83.5479 6.63121 83.1344 6.63121C82.721 6.63121 82.3075 6.80229 82.0607 7.0555C81.7273 7.39083 81.6473 7.81512 81.6473 8.23942Z" fill="white"/><path d="M89.5577 9.51239L89.8845 10.1078C89.7178 10.2789 89.5577 10.361 89.311 10.4431C89.0642 10.5252 88.7308 10.6142 88.484 10.6142C87.8238 10.6142 87.2436 10.361 86.7501 9.93669C86.3366 9.51239 86.0898 8.92385 86.0898 8.15739C86.0898 7.47988 86.2566 6.8845 86.6634 6.46705C87.0769 6.04276 87.6504 5.78955 88.3973 5.78955C88.9775 5.78955 89.471 5.96064 89.7978 6.29597L89.471 6.89135C89.1442 6.72026 88.8108 6.55602 88.484 6.55602C88.0705 6.55602 87.7438 6.7271 87.4103 6.98031C87.1636 7.31564 86.9968 7.65781 86.9968 8.16423C86.9968 8.67065 87.1636 9.01282 87.4103 9.34815C87.7371 9.68348 88.0705 9.77244 88.564 9.77244C88.8908 9.94353 89.2243 9.77244 89.551 9.51923L89.5577 9.51239Z" fill="white"/><path d="M93.6855 9.51239L94.0122 10.1078C93.8455 10.2789 93.6855 10.361 93.4321 10.4431C93.1853 10.5252 92.8518 10.6142 92.6051 10.6142C91.9449 10.6142 91.3713 10.361 90.8712 9.93669C90.4577 9.51239 90.2109 8.92385 90.2109 8.15739C90.2109 7.47988 90.3777 6.8845 90.7911 6.46705C91.2046 6.04276 91.7781 5.78955 92.5251 5.78955C93.1053 5.78955 93.5988 5.96064 93.9255 6.29597L93.5988 6.89135C93.2653 6.72026 92.9385 6.55602 92.6118 6.55602C92.1983 6.55602 91.8715 6.7271 91.5381 6.98031C91.2913 7.31564 91.1246 7.65781 91.1246 8.16423C91.1246 8.67065 91.2913 9.01282 91.5381 9.34815C91.8715 9.68348 92.1983 9.77244 92.6918 9.77244C92.9385 9.94353 93.352 9.77244 93.6788 9.51923L93.6855 9.51239Z" fill="white"/><path d="M95.4122 10.6074H94.752V5.95386H95.5789V9.2524L97.9731 5.95386H98.6333V10.6074H97.8063V7.30886L95.4122 10.6074Z" fill="white"/><path d="M100.615 10.6072H99.875V5.95369H100.702V9.25224L103.096 5.95369H103.836V10.6072H103.009V7.3087L100.615 10.6072ZM100.615 4.76978H101.356C101.436 5.02298 101.602 5.19407 101.936 5.19407C102.269 5.19407 102.429 5.02298 102.429 4.76978H103.169C103.169 5.02298 103.003 5.27619 102.836 5.44728C102.589 5.61836 102.256 5.70049 101.929 5.70049C101.516 5.70049 101.269 5.61836 101.022 5.44728C100.775 5.36516 100.609 5.11195 100.609 4.76978H100.615Z" fill="white"/><path d="M108.198 9.51239L108.532 10.1078C108.365 10.2789 108.198 10.361 107.952 10.4431C107.705 10.5252 107.371 10.6142 107.125 10.6142C106.464 10.6142 105.891 10.361 105.391 9.93669C104.977 9.51239 104.73 8.92385 104.73 8.15739C104.73 7.47988 104.897 6.8845 105.311 6.46705C105.724 6.04276 106.298 5.78955 107.045 5.78955C107.625 5.78955 108.118 5.96064 108.445 6.29597L108.118 6.89135C107.792 6.72026 107.458 6.55602 107.131 6.55602C106.718 6.55602 106.391 6.7271 106.058 6.98031C105.811 7.31564 105.644 7.65781 105.644 8.16423C105.644 8.67065 105.811 9.01282 106.058 9.34815C106.384 9.68348 106.718 9.77244 107.211 9.77244C107.538 9.94353 107.872 9.77244 108.198 9.51923V9.51239Z" fill="white"/><path d="M109.271 10.6074V5.95386H110.098V8.15745L111.912 5.95386H112.899L111.005 8.15745L112.986 10.6143H111.999L110.098 8.24642V10.6143H109.271V10.6074Z" fill="white"/><path d="M114.299 10.6074H113.639V5.95386H114.466V9.2524L116.86 5.95386H117.6V10.6074H116.773V7.30886L114.299 10.6074Z" fill="white"/><path d="M119.494 10.6072H118.834V5.95369H119.661V9.25224L122.055 5.95369H122.715V10.6072H121.888V7.3087L119.494 10.6072ZM119.494 4.76978H120.234C120.314 5.02298 120.481 5.19407 120.808 5.19407C121.135 5.19407 121.302 5.02298 121.302 4.76978H122.042C122.042 5.02298 121.875 5.27619 121.715 5.44728C121.468 5.61836 121.135 5.70049 120.808 5.70049C120.395 5.70049 120.148 5.61836 119.901 5.44728C119.654 5.36516 119.488 5.11195 119.488 4.76978H119.494Z" fill="white"/><path d="M77.7671 16.6159V15.8562H79.8278C79.7477 15.4319 79.581 15.1787 79.2542 14.9255C78.9208 14.7544 78.594 14.5902 78.1805 14.5902C77.7671 14.5902 77.4403 14.6723 77.1068 14.9255L76.7801 14.3301C77.1935 13.9948 77.687 13.8237 78.3473 13.8237C79.0075 13.8237 79.5877 14.0769 79.9945 14.5012C80.408 14.9255 80.6547 15.5141 80.6547 16.2805C80.6547 17.047 80.408 17.6355 79.9945 18.0598C79.581 18.4841 79.0075 18.7373 78.2606 18.7373C77.9338 18.7373 77.6804 18.6552 77.3536 18.5662C77.1068 18.4841 76.8601 18.3952 76.6934 18.2309L77.0268 17.5534C77.3536 17.8066 77.7671 17.9777 78.1805 17.9777C78.594 17.9777 78.9208 17.8956 79.2542 17.6424C79.501 17.3892 79.7478 17.136 79.7478 16.7117H77.7671V16.6295V16.6159Z" fill="white"/><path d="M81.5625 18.5664V13.9128H82.3895V16.1164L84.2034 13.9128H85.1904L83.2964 16.1164L85.2771 18.5732H84.2034L82.3094 16.2054V18.5732H81.5692L81.5625 18.5664Z" fill="white"/><path d="M85.3496 16.2807C85.3496 15.6032 85.5964 15.0078 86.0098 14.5903C86.4233 14.166 86.9968 13.9128 87.7438 13.9128C88.404 13.9128 88.9775 14.166 89.4777 14.5903C89.8912 15.0146 90.1379 15.6032 90.1379 16.3696C90.1379 17.0471 89.8912 17.6357 89.4777 18.06C89.0642 18.4843 88.4907 18.7375 87.7438 18.7375C87.0835 18.7375 86.51 18.4843 86.0098 18.06C85.5163 17.5536 85.3496 16.9582 85.3496 16.2807ZM86.1766 16.2807C86.1766 16.7871 86.3433 17.1293 86.59 17.4646C86.9168 17.7999 87.2503 17.971 87.6637 17.971C88.1572 17.971 88.4907 17.7999 88.7374 17.4646C88.9842 17.1293 89.1509 16.7871 89.1509 16.2807C89.1509 15.7743 88.9842 15.4321 88.7374 15.0968C88.4107 14.7614 88.0772 14.6725 87.6637 14.6725C87.2503 14.6725 86.8368 14.8436 86.59 15.0968C86.2633 15.35 86.1766 15.7743 86.1766 16.2807Z" fill="white"/><path d="M93.5184 18.5663V14.6724H92.198L92.1179 15.521C92.0379 16.0274 92.0379 16.5338 91.9512 16.876C91.8712 17.2113 91.7845 17.5535 91.7045 17.8067C91.6244 18.0599 91.4577 18.231 91.3777 18.3131C91.211 18.3952 91.1309 18.4842 90.9642 18.5663H90.4707V17.7177H90.7175C90.7975 17.7177 90.8842 17.6356 90.9642 17.5466C91.0442 17.4645 91.1309 17.2934 91.211 17.1223C91.291 16.9513 91.3777 16.6159 91.3777 16.2738C91.4577 15.8495 91.4577 15.4252 91.5444 14.9187L91.6244 13.988H94.5121V18.6416H93.5251V18.5595L93.5184 18.5663Z" fill="white"/><path d="M95.166 16.2807C95.166 15.6032 95.4128 15.0078 95.8262 14.5903C96.2397 14.166 96.8132 13.9128 97.5602 13.9128C98.2204 13.9128 98.8006 14.166 99.2941 14.5903C99.7076 15.0146 99.9543 15.6032 99.9543 16.3696C99.9543 17.0471 99.7076 17.6357 99.2941 18.06C98.8806 18.4843 98.3071 18.7375 97.5602 18.7375C96.8999 18.7375 96.3264 18.4843 95.8262 18.06C95.4128 17.5536 95.166 16.9582 95.166 16.2807ZM96.073 16.2807C96.073 16.7871 96.2397 17.1293 96.4865 17.4646C96.8199 17.7999 97.1467 17.971 97.5602 17.971C98.0537 17.971 98.3871 17.7999 98.6339 17.4646C98.8806 17.1293 99.0474 16.7871 99.0474 16.2807C99.0474 15.7743 98.8806 15.4321 98.6339 15.0968C98.3071 14.7614 97.9737 14.6725 97.5602 14.6725C97.1467 14.6725 96.7332 14.8436 96.4865 15.0968C96.1597 15.35 96.073 15.7743 96.073 16.2807Z" fill="white"/><path d="M100.862 18.5664V13.9128H103.416V14.6725H101.682V18.5664H100.855H100.862Z" fill="white"/><path d="M104.816 18.5664H104.156V13.9128H104.983V17.2114L107.377 13.9128H108.118V18.5664H107.291V15.2678L104.816 18.5664Z" fill="white"/><path d="M112.325 13.9127V18.5662H111.498V16.6227C111.251 16.8759 110.837 16.958 110.424 16.958C110.01 16.958 109.684 16.8759 109.437 16.6227C109.19 16.3695 109.023 16.0273 109.023 15.5209V13.9127H109.85V15.2677C109.85 15.9452 110.097 16.1984 110.677 16.1984C111.011 16.1984 111.258 16.1163 111.584 15.8631V13.8306H112.325V13.9127Z" fill="white"/><path d="M113.639 18.5664V13.9128H116.28V14.6725H114.466V15.8564H116.113V16.616H114.466V17.7999H116.36V18.5595H113.639V18.5664Z" fill="white"/><path d="M120.487 17.5466L120.814 18.142C120.647 18.313 120.487 18.3952 120.241 18.4773C119.994 18.5594 119.66 18.6484 119.414 18.6484C118.753 18.6484 118.173 18.3952 117.68 17.9709C117.266 17.5466 117.02 16.958 117.02 16.1916C117.02 15.5141 117.186 14.9255 117.593 14.5012C118.007 14.0769 118.58 13.8237 119.327 13.8237C119.907 13.8237 120.401 13.9948 120.727 14.3301L120.401 14.9255C120.074 14.7544 119.74 14.5902 119.414 14.5902C119 14.5902 118.673 14.7613 118.34 15.0145C118.093 15.3498 117.927 15.692 117.927 16.1984C117.927 16.7048 118.093 17.047 118.34 17.3823C118.667 17.7177 119 17.8066 119.494 17.8066C119.82 17.8887 120.154 17.8066 120.481 17.5534L120.487 17.5466Z" fill="white"/><path d="M121.555 18.5664V13.9128H122.382V16.1164L124.196 13.9128H125.183L123.282 16.1164L125.263 18.5732H124.276L122.382 16.2054V18.5732H121.555V18.5664Z" fill="white"/><path d="M126.67 18.5664H126.01V13.9128H126.837V17.2114L129.231 13.9128H129.971V18.5664H129.144V15.2678L126.67 18.5664Z" fill="white"/><path d="M131.785 18.5664H131.045V13.9128H131.872V17.2114L134.266 13.9128H135.006V18.5664H134.179V15.2678L131.785 18.5664ZM131.785 12.811H132.525C132.605 13.0642 132.772 13.2353 133.106 13.2353C133.439 13.2353 133.599 13.0642 133.599 12.811H134.339C134.339 13.0642 134.173 13.3175 134.006 13.4885C133.759 13.6596 133.426 13.7417 133.099 13.7417C132.685 13.7417 132.439 13.6596 132.192 13.4885C131.945 13.3175 131.865 13.0642 131.779 12.811H131.785Z" fill="white"/><path d="M76.8594 24.2326C76.8594 23.5551 77.1061 22.9665 77.5196 22.5422C77.9331 22.118 78.5066 21.8647 79.2535 21.8647C79.9138 21.8647 80.494 22.118 80.9875 22.5422C81.4009 22.9665 81.6477 23.5551 81.6477 24.3215C81.6477 24.999 81.4009 25.5876 80.9875 26.0119C80.574 26.4362 80.0005 26.6894 79.2535 26.6894C78.5933 26.6894 78.0131 26.4362 77.5196 26.0119C77.0261 25.5055 76.8594 24.999 76.8594 24.2326ZM77.6863 24.2326C77.6863 24.739 77.8531 25.0812 78.0998 25.4165C78.4333 25.7518 78.76 25.9229 79.1735 25.9229C79.667 25.9229 80.0005 25.7518 80.2472 25.4165C80.494 25.0812 80.6607 24.739 80.6607 24.2326C80.6607 23.7262 80.494 23.384 80.2472 23.0487C79.9204 22.7133 79.587 22.6244 79.1735 22.6244C78.76 22.6244 78.3466 22.7955 78.0998 23.0487C77.8531 23.384 77.6863 23.7262 77.6863 24.2326Z" fill="white"/><path d="M85.3564 26.6074V22.7135H83.2957V26.6074H82.4688V21.9539H86.0967V26.6074H85.3564Z" fill="white"/><path d="M87.3301 26.6074V21.9539H89.971V22.7135H88.157V23.8974H89.8043V24.657H88.157V25.8409H90.051V26.6006H87.3301V26.6074Z" fill="white"/><path d="M91.8719 26.6074H91.0449V21.9539H92.3654C92.6922 21.9539 92.9456 21.9539 93.1923 22.036C93.4391 22.1181 93.6058 22.2071 93.7725 22.3713C93.9393 22.5424 94.0193 22.7066 94.0193 22.8777C94.0993 23.0488 94.0993 23.2131 94.0993 23.4731C94.0993 23.8974 93.9326 24.2327 93.6858 24.5749C93.3524 24.8281 93.0256 24.9992 92.4454 24.9992H91.8652V26.6074H91.8719ZM92.4521 22.7135H91.8719V24.1506H92.4521C92.6988 24.1506 92.9456 24.0685 93.0323 23.9795C93.199 23.8974 93.279 23.6442 93.279 23.3841C93.279 22.8777 93.0323 22.7066 92.4521 22.7066V22.7135Z" fill="white"/><path d="M94.0996 26.6074L95.9936 21.9539H96.6538L98.5545 26.6074H97.7275L97.234 25.4235H95.2533L94.7598 26.6074H94.0996ZM96.327 22.9667L95.6668 24.657H96.9873L96.327 22.9667Z" fill="white"/><path d="M98.3008 22.7135V21.9539H102.015V22.7135H100.528V26.6074H99.7013V22.7135H98.3008Z" fill="white"/><path d="M102.262 24.2326C102.262 23.5551 102.508 22.9665 102.922 22.5422C103.335 22.118 103.909 21.8647 104.656 21.8647C105.316 21.8647 105.896 22.118 106.39 22.5422C106.803 22.9665 107.05 23.5551 107.05 24.3215C107.05 24.999 106.803 25.5876 106.39 26.0119C105.976 26.4362 105.403 26.6894 104.656 26.6894C103.996 26.6894 103.422 26.4362 102.922 26.0119C102.428 25.5055 102.262 24.999 102.262 24.2326ZM103.089 24.2326C103.089 24.739 103.255 25.0812 103.502 25.4165C103.836 25.7518 104.162 25.9229 104.576 25.9229C105.069 25.9229 105.403 25.7518 105.65 25.4165C105.896 25.0812 106.063 24.739 106.063 24.2326C106.063 23.7262 105.896 23.384 105.65 23.0487C105.323 22.7133 104.989 22.6244 104.576 22.6244C104.162 22.6244 103.749 22.7955 103.502 23.0487C103.255 23.384 103.089 23.7262 103.089 24.2326Z" fill="white"/><path d="M108.69 26.6074H107.863V21.9539H109.184C109.511 21.9539 109.757 21.9539 110.011 22.036C110.257 22.1181 110.424 22.2071 110.591 22.3713C110.758 22.5424 110.838 22.7066 110.838 22.8777C110.918 23.0488 110.918 23.2131 110.918 23.4731C110.918 23.8974 110.751 24.2327 110.504 24.5749C110.177 24.8281 109.844 24.9992 109.27 24.9992H108.69V26.6074ZM109.27 22.7135H108.69V24.1506H109.27C109.517 24.1506 109.764 24.0685 109.851 23.9795C110.017 23.8974 110.097 23.6442 110.097 23.3841C110.097 22.8777 109.764 22.7066 109.27 22.7066V22.7135Z" fill="white"/></g><defs><clipPath id="clip0_8001_912"><rect width="135" height="32" fill="white"/></clipPath></defs></svg>