<svg width="168" height="47" viewBox="0 0 168 47" fill="none" xmlns="http://www.w3.org/2000/svg"><g clip-path="url(#clip0_8001_777)"><path d="M52.1202 17.4291H51.2383V12.0437H52.1202L53.9332 14.4916L55.7461 12.0437H56.6281V17.4291H55.7461V13.3166L54.1782 15.3729H53.6392L52.0712 13.3166L52.1202 17.4291Z" fill="white"/><path d="M58.8328 17.4291H58.0488V12.0437H58.9308V16.0093L62.0177 12.0437H62.8016V17.4291H61.9197V13.4635L58.8328 17.4291Z" fill="white"/><path d="M65.0558 17.4291H64.1738V12.0437H65.0558V14.1979H67.9957V12.0437H68.8777V17.4291H67.9957V14.9322H65.0558V17.4291Z" fill="white"/><path d="M71.0338 17.4291H70.2988V12.0437H71.1808V16.0093L74.2677 12.0437H75.0516V17.4291H74.1697V13.4635L71.0338 17.4291Z" fill="white"/><path d="M79.1176 17.5271C78.2847 17.5271 77.5497 17.2823 77.0107 16.7437C76.4227 16.2052 76.1777 15.5198 76.1777 14.7364C76.1777 13.9041 76.4717 13.2677 77.0107 12.7291C77.5987 12.1906 78.2847 11.9458 79.1176 11.9458C79.7056 11.9458 80.1956 12.0927 80.6366 12.2885V13.1208C80.1956 12.8271 79.7056 12.6802 79.1176 12.6802C78.5296 12.6802 78.0397 12.876 77.6477 13.2677C77.2557 13.6593 77.0597 14.1 77.0597 14.6875C77.0597 15.275 77.2557 15.7646 77.6477 16.1073C78.0397 16.4989 78.5296 16.6948 79.1666 16.6948C79.8036 16.6948 80.3426 16.5479 80.7836 16.2052V17.0375C80.2446 17.3802 79.7056 17.5271 79.1176 17.5271Z" fill="white"/><path d="M81.4707 12.827V12.0437H86.0765V12.827H84.2146V17.4781H83.3326V12.827H81.4707Z" fill="white"/><path d="M91.1237 17.4291H87.0078V12.0437H91.0257V12.827H87.8898V14.1979H90.4377V14.9812H87.8898V16.6458H91.1237V17.4291Z" fill="white"/><path d="M92.9365 17.4291H92.1035V12.0437H94.5534C95.1414 12.0437 95.6314 12.1906 95.9254 12.4843C96.2684 12.7781 96.4643 13.1697 96.4643 13.6104C96.4643 14.051 96.2684 14.4427 95.9254 14.7854C95.5824 15.0791 95.1414 15.226 94.5534 15.226H92.9855V17.4291H92.9365ZM92.9365 12.827V14.4427H94.4064C94.7494 14.4427 94.9944 14.3447 95.1904 14.2468C95.3864 14.1 95.4844 13.9041 95.4844 13.6593C95.4844 13.4145 95.3864 13.2187 95.1904 13.0718C94.9944 12.925 94.7494 12.876 94.4064 12.876L92.9365 12.827Z" fill="white"/><path d="M100.139 17.5271C99.3061 17.5271 98.5712 17.2823 98.0322 16.7437C97.4442 16.2052 97.1992 15.5198 97.1992 14.7364C97.1992 13.9041 97.4932 13.2677 98.0322 12.7291C98.6202 12.1906 99.3061 11.9458 100.139 11.9458C100.727 11.9458 101.217 12.0927 101.658 12.2885V13.1208C101.217 12.8271 100.727 12.6802 100.139 12.6802C99.5511 12.6802 99.0611 12.876 98.6692 13.2677C98.2772 13.6593 98.0812 14.1 98.0812 14.6875C98.0812 15.275 98.2772 15.7646 98.6692 16.1073C99.0611 16.4989 99.5511 16.6948 100.188 16.6948C100.825 16.6948 101.364 16.5479 101.805 16.2052V17.0375C101.315 17.3802 100.776 17.5271 100.139 17.5271Z" fill="white"/><path d="M102.49 12.827V12.0437H107.096V12.827H105.234V17.4781H104.352V12.827H102.49Z" fill="white"/><path d="M110.771 17.4291H108.027V12.0437H110.575C111.114 12.0437 111.457 12.1906 111.8 12.3864C112.094 12.6312 112.241 12.9739 112.241 13.3656C112.241 13.6104 112.143 13.8552 112.045 14.051C111.898 14.2468 111.751 14.3937 111.506 14.4427C111.849 14.4916 112.143 14.6875 112.339 14.9322C112.535 15.177 112.682 15.5197 112.682 15.9114C112.682 16.352 112.486 16.7437 112.143 17.0375C111.849 17.2822 111.408 17.4291 110.771 17.4291ZM108.909 12.827V14.1979H110.428C110.722 14.1979 110.967 14.1489 111.114 14.002C111.261 13.8552 111.359 13.7083 111.359 13.4635C111.359 13.2187 111.261 13.0718 111.114 12.925C110.967 12.7781 110.722 12.7291 110.428 12.7291H108.909V12.827ZM108.909 14.9322V16.6458H110.624C110.967 16.6458 111.261 16.5479 111.408 16.401C111.604 16.2541 111.702 16.0583 111.702 15.7645C111.702 15.5197 111.604 15.3239 111.408 15.1281C111.212 14.9812 110.967 14.9322 110.624 14.9322H108.909Z" fill="white"/><path d="M118.464 16.7437C117.925 17.2823 117.239 17.5271 116.406 17.5271C115.573 17.5271 114.887 17.2823 114.348 16.7437C113.809 16.2052 113.564 15.5198 113.564 14.7364C113.564 13.9531 113.809 13.2677 114.348 12.7781C114.887 12.2396 115.573 11.9458 116.406 11.9458C117.239 11.9458 117.925 12.2396 118.464 12.7781C119.003 13.3166 119.297 14.0021 119.297 14.7364C119.297 15.4708 119.003 16.2052 118.464 16.7437ZM115.034 16.1562C115.426 16.5479 115.867 16.7437 116.406 16.7437C116.945 16.7437 117.435 16.5479 117.778 16.1562C118.17 15.7646 118.366 15.275 118.366 14.7364C118.366 14.1489 118.17 13.6593 117.778 13.3166C117.386 12.925 116.945 12.7291 116.406 12.7291C115.867 12.7291 115.377 12.925 115.034 13.3166C114.642 13.7083 114.446 14.1489 114.446 14.7364C114.446 15.3239 114.642 15.7646 115.034 16.1562Z" fill="white"/><path d="M123.462 17.4291H122.58V12.0437H123.462V14.1979H126.402V12.0437H127.284V17.4291H126.402V14.9322H123.462V17.4291Z" fill="white"/><path d="M129.097 17.4292H128.166L130.616 11.9949H131.449L133.899 17.4292H132.968L132.331 16.1074H129.685L129.097 17.4292ZM131.057 13.072L130.028 15.324H132.086L131.057 13.072Z" fill="white"/><path d="M135.614 17.5272C135.271 17.5272 134.977 17.4782 134.83 17.3803V16.597C135.026 16.6949 135.222 16.7438 135.467 16.7438C135.712 16.7438 135.859 16.6949 136.055 16.548C136.202 16.4501 136.349 16.2053 136.545 15.8136L134.34 11.9949H135.369L137.035 14.9324L138.407 11.9949H139.338L137.28 16.2542C136.839 17.1355 136.3 17.5272 135.614 17.5272Z" fill="white"/><path d="M141.052 17.4291H140.17V12.0437H141.052V14.2468L143.355 12.0437H144.482L141.885 14.4916L144.923 17.4291H143.747L141.101 14.8343V17.4291H141.052Z" fill="white"/><path d="M146.491 17.4291H145.756V12.0437H146.638V16.0093L149.725 12.0437H150.509V17.4291H149.627V13.4635L146.491 17.4291Z" fill="white"/><path d="M52.0221 26.7802H51.2871V21.3948H52.1691V25.3604L55.256 21.3948H56.0399V26.7802H55.158V22.8146L52.0221 26.7802Z" fill="white"/><path d="M62.2634 26.7802H59.5195V21.3948H62.0674C62.6064 21.3948 62.9494 21.5417 63.2924 21.7375C63.5864 21.9823 63.7334 22.325 63.7334 22.7167C63.7334 22.9614 63.6354 23.2062 63.5374 23.4021C63.4394 23.5979 63.2434 23.7448 62.9984 23.7937C63.3414 23.8427 63.6354 24.0385 63.8314 24.2833C64.0274 24.5281 64.1744 24.8708 64.1744 25.2625C64.1744 25.7031 63.9784 26.0948 63.6354 26.3885C63.2924 26.6333 62.8514 26.7802 62.2634 26.7802ZM60.4015 22.1292V23.5H61.9204C62.2144 23.5 62.4594 23.451 62.6064 23.3041C62.7534 23.1573 62.8514 23.0104 62.8514 22.7656C62.8514 22.5208 62.7534 22.3739 62.6064 22.2271C62.4594 22.0802 62.2144 22.0312 61.9204 22.0312H60.4015V22.1292ZM60.4015 24.2833V25.9969H62.1164C62.4594 25.9969 62.7534 25.8989 62.9004 25.7521C63.0964 25.6052 63.1944 25.4094 63.1944 25.1156C63.1944 24.8708 63.0964 24.675 62.9004 24.4791C62.7044 24.3323 62.4594 24.2833 62.1164 24.2833H60.4015Z" fill="white"/><path d="M67.4079 26.7802H65.252V21.3948H66.1339V23.2552H67.4079C68.0449 23.2552 68.5838 23.4021 68.9758 23.7448C69.3678 24.0875 69.5638 24.4791 69.5638 25.0177C69.5638 25.5562 69.3678 25.9479 68.9758 26.2906C68.5348 26.6333 68.0449 26.7802 67.4079 26.7802ZM66.1339 24.0385V25.9969H67.3589C67.7509 25.9969 68.0448 25.8989 68.2898 25.7521C68.5348 25.6052 68.6328 25.3604 68.6328 25.0177C68.6328 24.675 68.5348 24.4302 68.2898 24.2833C68.0448 24.1364 67.7509 24.0385 67.3589 24.0385H66.1339ZM71.1317 26.7802H70.2498V21.3948H71.1317V26.7802Z" fill="white"/><path d="M75.1977 26.8781C74.3647 26.8781 73.6298 26.6333 73.0908 26.0948C72.5028 25.5563 72.2578 24.8708 72.2578 24.0875C72.2578 23.2552 72.5518 22.6187 73.0908 22.0802C73.6788 21.5417 74.3647 21.2969 75.1977 21.2969C75.7857 21.2969 76.2757 21.4438 76.7166 21.6396V22.4719C76.2757 22.1781 75.7857 22.0313 75.1977 22.0313C74.6097 22.0313 74.1197 22.2271 73.7278 22.6188C73.3358 23.0104 73.1398 23.451 73.1398 24.0385C73.1398 24.626 73.3358 25.1156 73.7278 25.4583C74.1197 25.85 74.6097 26.0458 75.2467 26.0458C75.8837 26.0458 76.4227 25.899 76.8636 25.5563V26.3885C76.3737 26.7313 75.8347 26.8781 75.1977 26.8781Z" fill="white"/><path d="M84.8011 26.7802H77.9414V21.3948H78.8234V26.0458H80.9303V21.3948H81.8123V26.0458H83.9192V21.3948H84.8011V26.7802Z" fill="white"/><path d="M90.2408 26.7802H86.125V21.3948H90.1428V22.1781H87.007V23.5H89.5549V24.2833H87.007V25.9969H90.2408V26.7802Z" fill="white"/><path d="M92.1027 26.7802H91.2207V21.3948H95.1896V22.1781H92.1027V26.7802Z" fill="white"/><path d="M100.628 26.0948C100.089 26.6333 99.4034 26.8781 98.5704 26.8781C97.7374 26.8781 97.0515 26.6333 96.5125 26.0948C95.9735 25.5563 95.7285 24.8708 95.7285 24.0875C95.7285 23.3042 95.9735 22.6188 96.5125 22.1292C97.0515 21.5906 97.7374 21.2969 98.5704 21.2969C99.4034 21.2969 100.089 21.5906 100.628 22.1292C101.167 22.6677 101.461 23.3531 101.461 24.0875C101.461 24.8219 101.167 25.5563 100.628 26.0948ZM97.1495 25.5073C97.5415 25.899 97.9824 26.0948 98.5214 26.0948C99.0604 26.0948 99.5504 25.899 99.8934 25.5073C100.285 25.1156 100.481 24.626 100.481 24.0875C100.481 23.5 100.285 23.0104 99.8934 22.6677C99.5014 22.276 99.0604 22.0802 98.5214 22.0802C97.9824 22.0802 97.4925 22.276 97.1495 22.6677C96.7575 23.0594 96.5615 23.5 96.5615 24.0875C96.6105 24.675 96.7575 25.1156 97.1495 25.5073Z" fill="white"/><path d="M109.449 26.0948C108.91 26.6333 108.224 26.8781 107.391 26.8781C106.558 26.8781 105.872 26.6333 105.333 26.0948C104.794 25.5563 104.549 24.8708 104.549 24.0875C104.549 23.3042 104.794 22.6188 105.333 22.1292C105.872 21.5906 106.558 21.2969 107.391 21.2969C108.224 21.2969 108.91 21.5906 109.449 22.1292C109.988 22.6677 110.282 23.3531 110.282 24.0875C110.282 24.8219 109.988 25.5563 109.449 26.0948ZM105.97 25.5073C106.362 25.899 106.803 26.0948 107.342 26.0948C107.881 26.0948 108.371 25.899 108.714 25.5073C109.106 25.1156 109.302 24.626 109.302 24.0875C109.302 23.5 109.106 23.0104 108.714 22.6677C108.322 22.276 107.881 22.0802 107.342 22.0802C106.803 22.0802 106.313 22.276 105.97 22.6677C105.578 23.0594 105.382 23.5 105.382 24.0875C105.431 24.675 105.627 25.1156 105.97 25.5073Z" fill="white"/><path d="M113.76 26.7802H111.408V21.3948H115.377V22.1781H112.29V23.3041H113.809C114.446 23.3041 114.936 23.451 115.328 23.7937C115.671 24.0875 115.916 24.5281 115.916 25.0667C115.916 25.6052 115.72 25.9969 115.328 26.3396C114.936 26.6333 114.397 26.7802 113.76 26.7802ZM112.241 24.0875V25.9969H113.662C114.054 25.9969 114.348 25.8989 114.593 25.7521C114.789 25.5562 114.936 25.3604 114.936 25.0667C114.936 24.7729 114.838 24.5281 114.593 24.3323C114.348 24.1364 114.054 24.0875 113.662 24.0875H112.241Z" fill="white"/><path d="M117.73 26.7802H116.848V21.3948H119.249C119.837 21.3948 120.327 21.5416 120.621 21.8354C120.964 22.1291 121.159 22.5208 121.159 22.9614C121.159 23.4021 120.964 23.7937 120.621 24.1364C120.278 24.4302 119.837 24.5771 119.249 24.5771H117.681V26.7802H117.73ZM117.73 22.1292V23.7448H119.2C119.543 23.7448 119.788 23.6469 119.984 23.5489C120.18 23.451 120.278 23.2062 120.278 22.9614C120.278 22.7167 120.18 22.5208 119.984 22.3739C119.788 22.2271 119.543 22.1781 119.2 22.1781L117.73 22.1292Z" fill="white"/><path d="M121.992 26.7801H121.061L123.51 21.3457H124.343L126.793 26.7801H125.911L125.274 25.4582H122.628L121.992 26.7801ZM123.951 22.3738L122.922 24.6259H124.98L123.951 22.3738Z" fill="white"/><path d="M129.489 26.878C128.705 26.878 128.068 26.7311 127.529 26.4374V25.6051C127.774 25.752 128.068 25.8988 128.411 25.9478C128.754 26.0457 129.048 26.0947 129.391 26.0947C129.832 26.0947 130.224 25.9968 130.518 25.8499C130.812 25.6541 130.91 25.4582 130.91 25.1645C130.91 24.9197 130.763 24.7238 130.518 24.528C130.273 24.3811 129.93 24.2832 129.489 24.2832H128.852V23.4999H129.636C129.979 23.4999 130.273 23.402 130.42 23.3041C130.616 23.1572 130.714 23.0103 130.714 22.7655C130.714 22.5207 130.616 22.3738 130.371 22.227C130.175 22.0801 129.832 22.0311 129.489 22.0311C128.901 22.0311 128.313 22.178 127.774 22.4228V21.6395C128.313 21.3457 128.901 21.2478 129.538 21.2478C130.175 21.2478 130.665 21.3947 131.008 21.6395C131.4 21.8843 131.596 22.2759 131.596 22.7166C131.596 23.0103 131.498 23.2551 131.302 23.4509C131.106 23.6468 130.91 23.7936 130.714 23.8426C131.008 23.9405 131.253 24.0874 131.498 24.3322C131.743 24.577 131.841 24.8707 131.841 25.2134C131.841 25.703 131.645 26.0947 131.204 26.4374C130.714 26.7311 130.175 26.878 129.489 26.878Z" fill="white"/><path d="M137.574 26.0948C137.035 26.6333 136.349 26.8781 135.516 26.8781C134.683 26.8781 133.997 26.6333 133.458 26.0948C132.919 25.5563 132.674 24.8708 132.674 24.0875C132.674 23.3042 132.919 22.6188 133.458 22.1292C133.997 21.5906 134.683 21.2969 135.516 21.2969C136.349 21.2969 137.035 21.5906 137.574 22.1292C138.113 22.6677 138.407 23.3531 138.407 24.0875C138.407 24.8219 138.113 25.5563 137.574 26.0948ZM134.095 25.5073C134.487 25.899 134.928 26.0948 135.467 26.0948C136.006 26.0948 136.496 25.899 136.839 25.5073C137.231 25.1156 137.427 24.626 137.427 24.0875C137.427 23.5 137.231 23.0104 136.839 22.6677C136.447 22.325 136.006 22.0802 135.467 22.0802C134.928 22.0802 134.438 22.276 134.095 22.6677C133.703 23.0594 133.507 23.5 133.507 24.0875C133.556 24.675 133.752 25.1156 134.095 25.5073Z" fill="white"/><path d="M142.277 26.7802H139.533V21.3948H142.081C142.62 21.3948 142.963 21.5417 143.306 21.7375C143.6 21.9823 143.747 22.325 143.747 22.7167C143.747 22.9614 143.649 23.2062 143.551 23.4021C143.404 23.5979 143.257 23.7448 143.012 23.7937C143.355 23.8427 143.649 24.0385 143.845 24.2833C144.041 24.5281 144.188 24.8708 144.188 25.2625C144.188 25.7031 143.992 26.0948 143.649 26.3885C143.306 26.6333 142.816 26.7802 142.277 26.7802ZM140.366 22.1292V23.5H141.885C142.179 23.5 142.424 23.451 142.571 23.3041C142.718 23.1573 142.816 23.0104 142.816 22.7656C142.816 22.5208 142.718 22.3739 142.571 22.2271C142.424 22.0802 142.179 22.0312 141.885 22.0312H140.366V22.1292ZM140.366 24.2833V25.9969H142.081C142.424 25.9969 142.718 25.8989 142.865 25.7521C143.061 25.6052 143.159 25.4094 143.159 25.1156C143.159 24.8708 143.061 24.675 142.865 24.4791C142.669 24.3323 142.424 24.2833 142.081 24.2833H140.366Z" fill="white"/><path d="M145.609 26.7801H144.678L147.128 21.3457H147.961L150.411 26.7801H149.48L148.843 25.4582H146.197L145.609 26.7801ZM147.569 22.3738L146.54 24.6259H148.598L147.569 22.3738Z" fill="white"/><path d="M152.224 26.7801H151.342V21.3947H152.224V23.4999H155.164V21.3457H156.046V26.7311H155.164V24.2342H152.224V26.7801Z" fill="white"/><path d="M158.153 26.7802H157.418V21.3948H158.3V25.3604L161.387 21.3948H162.171V26.7802H161.289V22.8146L158.153 26.7802Z" fill="white"/><path d="M164.131 26.7801H163.053L164.866 24.4301C164.474 24.3321 164.18 24.1853 163.935 23.8915C163.69 23.6467 163.592 23.304 163.592 22.9613C163.592 22.5207 163.739 22.129 164.082 21.8353C164.425 21.5415 164.866 21.4436 165.454 21.4436H168.002V26.829H167.12V24.479H165.797L164.131 26.7801ZM165.503 23.7446H167.169V22.129H165.503C165.209 22.129 164.915 22.2269 164.768 22.3249C164.572 22.4717 164.523 22.6676 164.523 22.9124C164.523 23.1571 164.621 23.353 164.768 23.4999C164.964 23.6467 165.209 23.7446 165.503 23.7446Z" fill="white"/><path d="M52.1202 36.1313H51.2383V30.7458H53.6882C54.2762 30.7458 54.7662 30.8927 55.0601 31.1865C55.4031 31.4802 55.5991 31.8719 55.5991 32.3125C55.5991 32.7531 55.4031 33.1448 55.0601 33.4875C54.7172 33.7813 54.2762 33.9281 53.6882 33.9281H52.1202V36.1313ZM52.1202 31.4802V33.0958H53.5902C53.9332 33.0958 54.1782 32.9979 54.3742 32.9C54.5702 32.7531 54.6682 32.5573 54.6682 32.3125C54.6682 32.0677 54.5702 31.8719 54.3742 31.725C54.1782 31.5781 53.9332 31.5292 53.5902 31.5292L52.1202 31.4802Z" fill="white"/><path d="M61.2826 35.3968C60.7436 35.9353 60.0577 36.1801 59.2247 36.1801C58.3917 36.1801 57.7058 35.9353 57.1668 35.3968C56.6278 34.8583 56.3828 34.1728 56.3828 33.3895C56.3828 32.6062 56.6278 31.9208 57.1668 31.4312C57.7058 30.8926 58.3917 30.5989 59.2247 30.5989C60.0577 30.5989 60.7436 30.8926 61.2826 31.4312C61.8216 31.9697 62.1156 32.6551 62.1156 33.3895C62.1156 34.1728 61.8216 34.8583 61.2826 35.3968ZM57.8528 34.8093C58.2447 35.201 58.6857 35.3968 59.2247 35.3968C59.7637 35.3968 60.2537 35.201 60.5967 34.8093C60.9886 34.4176 61.1846 33.928 61.1846 33.3895C61.1846 32.851 60.9886 32.3124 60.5967 31.9697C60.2047 31.578 59.7637 31.3822 59.2247 31.3822C58.6857 31.3822 58.1957 31.578 57.8528 31.9697C57.4608 32.3614 57.2648 32.802 57.2648 33.3895C57.2648 33.977 57.4608 34.4666 57.8528 34.8093Z" fill="white"/><path d="M66.0356 36.2292C65.2026 36.2292 64.4677 35.9844 63.9287 35.4459C63.3407 34.9073 63.0957 34.2219 63.0957 33.4386C63.0957 32.6063 63.3897 31.9698 63.9287 31.4313C64.5166 30.8927 65.2026 30.6479 66.0356 30.6479C66.6236 30.6479 67.1135 30.7948 67.5545 30.9907V31.823C67.1135 31.5292 66.6236 31.3823 66.0356 31.3823C65.4476 31.3823 64.9576 31.5782 64.5656 31.9698C64.1737 32.3615 63.9777 32.8021 63.9777 33.3896C63.9777 33.9771 64.1737 34.4667 64.5656 34.8094C64.9576 35.2011 65.4476 35.3969 66.0846 35.3969C66.7216 35.3969 67.2605 35.25 67.7015 34.9073V35.7396C67.2115 36.0823 66.6726 36.2292 66.0356 36.2292Z" fill="white"/><path d="M71.3774 36.2292C70.5444 36.2292 69.8094 35.9844 69.2705 35.4459C68.6825 34.9073 68.4375 34.2219 68.4375 33.4386C68.4375 32.6063 68.7315 31.9698 69.2705 31.4313C69.8584 30.8927 70.5444 30.6479 71.3774 30.6479C71.9654 30.6479 72.4554 30.7948 72.8963 30.9907V31.823C72.4554 31.5292 71.9654 31.3823 71.3774 31.3823C70.7894 31.3823 70.2994 31.5782 69.9074 31.9698C69.5155 32.3615 69.3195 32.8021 69.3195 33.3896C69.3195 33.9771 69.5155 34.4667 69.9074 34.8094C70.2994 35.2011 70.7894 35.3969 71.4264 35.3969C72.0634 35.3969 72.6023 35.25 73.0433 34.9073V35.7396C72.5044 36.0823 71.9654 36.2292 71.3774 36.2292Z" fill="white"/><path d="M74.8072 36.1313H74.0723V30.7458H74.9542V34.7115L78.0411 30.7458H78.8251V36.1313H77.9431V32.1656L74.8072 36.1313Z" fill="white"/><path d="M80.9303 36.1313H80.1953V30.7459H81.0773V34.7115L84.1642 30.7459H84.9481V36.1313H84.0662V32.1657L80.9303 36.1313ZM82.5472 30.3542C82.1552 30.3542 81.7633 30.2073 81.5183 30.0115C81.2733 29.7667 81.1263 29.473 81.1263 29.0813H81.8613C81.8613 29.2771 81.9102 29.424 82.0572 29.5219C82.2042 29.6688 82.3512 29.7178 82.5472 29.7178C82.7432 29.7178 82.9392 29.6688 83.0372 29.5219C83.1842 29.375 83.2332 29.2282 83.2332 29.0813H83.9682C83.9682 29.473 83.8212 29.7667 83.5762 30.0115C83.3312 30.2563 82.9882 30.3542 82.5472 30.3542Z" fill="white"/><path d="M89.0161 36.2292C88.1831 36.2292 87.4481 35.9844 86.9091 35.4459C86.3212 34.9073 86.0762 34.2219 86.0762 33.4386C86.0762 32.6063 86.3702 31.9698 86.9091 31.4313C87.4971 30.8927 88.1831 30.6479 89.0161 30.6479C89.604 30.6479 90.094 30.7948 90.535 30.9907V31.823C90.094 31.5292 89.604 31.3823 89.0161 31.3823C88.4281 31.3823 87.9381 31.5782 87.5461 31.9698C87.1541 32.3615 86.9581 32.8021 86.9581 33.3896C86.9581 33.9771 87.1541 34.4667 87.5461 34.8094C87.9381 35.2011 88.4281 35.3969 89.0651 35.3969C89.702 35.3969 90.241 35.25 90.682 34.9073V35.7396C90.192 36.0823 89.653 36.2292 89.0161 36.2292Z" fill="white"/><path d="M92.6417 36.1313H91.7598V30.7458H92.6417V32.949L94.9446 30.7458H96.0716L93.4747 33.1938L96.5126 36.1313H95.2876L92.6417 33.5365V36.1313Z" fill="white"/><path d="M101.462 35.3968C100.923 35.9353 100.237 36.1801 99.4044 36.1801C98.5714 36.1801 97.8854 35.9353 97.3465 35.3968C96.8075 34.8583 96.5625 34.1728 96.5625 33.3895C96.5625 32.6062 96.8075 31.9208 97.3465 31.4312C97.8854 30.8926 98.5714 30.5989 99.4044 30.5989C100.237 30.5989 100.923 30.8926 101.462 31.4312C102.001 31.9697 102.295 32.6551 102.295 33.3895C102.246 34.1728 102.001 34.8583 101.462 35.3968ZM97.9834 34.8093C98.3754 35.201 98.8164 35.3968 99.3554 35.3968C99.8944 35.3968 100.384 35.201 100.727 34.8093C101.119 34.4176 101.315 33.928 101.315 33.3895C101.315 32.851 101.119 32.3124 100.727 31.9697C100.335 31.578 99.8944 31.3822 99.3554 31.3822C98.8164 31.3822 98.3264 31.578 97.9834 31.9697C97.5915 32.3614 97.3955 32.802 97.3955 33.3895C97.4445 33.977 97.5915 34.4666 97.9834 34.8093Z" fill="white"/><path d="M104.157 36.1313H103.373V30.7459H104.255V34.7115L107.342 30.7459H108.126V36.1313H107.244V32.1657L104.157 36.1313ZM105.725 30.3542C105.333 30.3542 104.941 30.2073 104.696 30.0115C104.451 29.7667 104.304 29.473 104.304 29.0813H105.039C105.039 29.2771 105.088 29.424 105.235 29.5219C105.382 29.6688 105.529 29.7178 105.725 29.7178C105.921 29.7178 106.117 29.6688 106.215 29.5219C106.362 29.375 106.411 29.2282 106.411 29.0813H107.146C107.146 29.473 106.999 29.7667 106.754 30.0115C106.46 30.2563 106.166 30.3542 105.725 30.3542Z" fill="white"/><path d="M115.034 36.2781H114.152V35.6906C113.27 35.6416 112.584 35.4458 112.094 35.0051C111.653 34.5645 111.408 34.026 111.408 33.3895C111.408 33.0958 111.457 32.802 111.604 32.5572C111.702 32.2635 111.898 32.0187 112.094 31.8229C112.29 31.5781 112.633 31.4312 112.976 31.2843C113.319 31.1374 113.76 31.0885 114.201 31.0395V30.501H115.083V31.0395C115.524 31.0395 115.916 31.1374 116.308 31.2354C116.651 31.3822 116.945 31.5291 117.19 31.7739C117.435 32.0187 117.582 32.2145 117.68 32.5083C117.778 32.802 117.876 33.0958 117.876 33.3406C117.876 33.5854 117.827 33.9281 117.68 34.1729C117.533 34.4176 117.386 34.7114 117.19 34.9072C116.945 35.152 116.651 35.2989 116.308 35.4458C115.965 35.5926 115.524 35.6416 115.083 35.6416L115.034 36.2781ZM114.152 34.9562V31.7739C113.564 31.7739 113.074 31.9208 112.78 32.2145C112.486 32.5083 112.339 32.8999 112.339 33.3406C112.339 33.7812 112.486 34.1729 112.78 34.4666C113.074 34.7604 113.564 34.9072 114.152 34.9562ZM115.034 31.7739V34.9562C115.671 34.9562 116.112 34.8093 116.406 34.5156C116.7 34.2218 116.847 33.8301 116.847 33.3895C116.847 32.9489 116.7 32.5572 116.406 32.2635C116.112 31.9208 115.622 31.7739 115.034 31.7739Z" fill="white"/><path d="M122.922 36.1313H118.807V30.7458H122.824V31.5292H119.689V32.9H122.237V33.6834H119.689V35.3969H122.922V36.1313Z" fill="white"/><path d="M124.491 37.2573H123.658V35.3479H124.197C124.491 34.9073 124.736 34.4177 124.834 33.8302C124.981 33.2427 125.03 32.4594 125.03 31.4802V30.7458H128.754V35.3969H129.538V37.3063H128.705V36.1313H124.442L124.491 37.2573ZM125.128 35.299H127.872V31.4313H125.863C125.863 32.3125 125.814 33.0959 125.667 33.6834C125.618 34.3688 125.422 34.9073 125.128 35.299Z" fill="white"/><path d="M134.585 36.1313H130.469V30.7458H134.487V31.5292H131.351V32.9H133.899V33.6834H131.351V35.3969H134.585V36.1313Z" fill="white"/><path d="M136.446 36.1313H135.564V30.7458H138.014C138.602 30.7458 139.092 30.8927 139.386 31.1865C139.729 31.4802 139.925 31.8719 139.925 32.3125C139.925 32.7531 139.729 33.1448 139.386 33.4875C139.043 33.7813 138.602 33.9281 138.014 33.9281H136.446V36.1313ZM136.446 31.4802V33.0958H137.916C138.259 33.0958 138.504 32.9979 138.7 32.9C138.896 32.7531 138.994 32.5573 138.994 32.3125C138.994 32.0677 138.896 31.8719 138.7 31.725C138.504 31.5781 138.259 31.5292 137.916 31.5292L136.446 31.4802Z" fill="white"/><path d="M140.708 36.1312H139.777L142.227 30.6968H143.06L145.51 36.1312H144.579L143.942 34.8093H141.296L140.708 36.1312ZM142.668 31.7249L141.639 33.977H143.697L142.668 31.7249Z" fill="white"/><path d="M151.782 37.2572H150.949V36.0822H146.441V30.6968H147.323V35.3478H150.067V30.6968H150.949V35.3478H151.733V37.2572H151.782Z" fill="white"/><path d="M153.448 36.1313H152.713V30.7458H153.595V34.7115L156.682 30.7458H157.466V36.1313H156.584V32.1656L153.448 36.1313Z" fill="white"/><path d="M159.573 36.1313H158.838V30.7458H159.72V34.7115L162.807 30.7458H163.591V36.1313H162.709V32.1656L159.573 36.1313Z" fill="white"/><path d="M33.0575 35.0542C32.9105 35.0542 32.8125 35.1521 32.8125 35.299C32.8125 35.4459 32.9105 35.5438 33.0575 35.5438C33.2045 35.5438 33.3025 35.4459 33.3025 35.299C33.3025 35.2011 33.2045 35.0542 33.0575 35.0542Z" fill="white"/><path d="M33.8906 37.453C33.8906 37.5999 33.9886 37.6978 34.1356 37.6978C34.2826 37.6978 34.3806 37.5999 34.3806 37.453C34.3806 37.3062 34.2826 37.2083 34.1356 37.2083C33.9886 37.2083 33.8906 37.3062 33.8906 37.453Z" fill="white"/><path d="M33.0575 37.2083C32.9105 37.2083 32.8125 37.3062 32.8125 37.453C32.8125 37.5999 32.9105 37.6978 33.0575 37.6978C33.2045 37.6978 33.3025 37.5999 33.3025 37.453C33.3025 37.3062 33.2045 37.2083 33.0575 37.2083Z" fill="white"/><path d="M34.9688 37.453C34.9688 37.5999 35.0667 37.6978 35.2137 37.6978C35.3607 37.6978 35.4587 37.5999 35.4587 37.453C35.4587 37.3062 35.3607 37.2083 35.2137 37.2083C35.0667 37.2083 34.9688 37.3062 34.9688 37.453Z" fill="white"/><path d="M32.7146 32.6553L32.7636 33.2917L32.2246 33.2428V33.9282L32.7636 33.8303L32.7146 34.4667H33.4006L33.3516 33.8303L33.8905 33.9282V33.2428L33.3516 33.2917L33.4006 32.6553H32.7146Z" fill="white"/><path d="M33.5 34.8584V37.0615H35.6069C35.4599 35.9355 34.578 35.0542 33.5 34.8584Z" fill="white"/><path d="M33.0575 36.1313C32.9105 36.1313 32.8125 36.2293 32.8125 36.3761C32.8125 36.523 32.9105 36.6209 33.0575 36.6209C33.2045 36.6209 33.3025 36.523 33.3025 36.3761C33.3025 36.2293 33.2045 36.1313 33.0575 36.1313Z" fill="white"/><path d="M33.941 38.9219C33.892 38.9219 33.696 39.4604 33.892 39.8521C33.99 40.0479 34.186 40.1458 34.382 40.0969C34.578 40.0479 34.627 39.8521 34.627 39.7542C34.578 39.3135 34.235 38.9219 33.941 38.9219Z" fill="white"/><path d="M32.176 38.9219C31.882 38.9219 31.5391 39.3135 31.5391 39.7542C31.5391 39.901 31.5881 40.0479 31.7841 40.0969C31.98 40.1458 32.176 40.0479 32.274 39.8521C32.372 39.4604 32.225 38.9219 32.176 38.9219Z" fill="white"/><path d="M33.0579 38.6282C32.862 38.6282 32.274 39.7542 32.715 40.2928C32.813 40.3907 32.911 40.4396 33.0579 40.4396C33.2049 40.4396 33.3519 40.3907 33.4009 40.2928C33.7929 39.7542 33.2539 38.6282 33.0579 38.6282Z" fill="white"/><path d="M30.4611 37.4532C30.4611 37.2084 30.5101 37.0125 30.5101 37.0125H32.617V35.25V34.8094C31.5881 35.0053 30.7551 35.7886 30.5101 36.8167C30.4611 36.9146 30.2651 36.9636 30.1181 36.9146C29.3342 36.8167 27.7662 36.523 27.7662 36.1803C27.7662 35.6907 28.1092 35.4948 28.4032 35.4948C28.8442 35.4948 29.3342 35.7396 29.7262 35.1521C28.3052 35.2011 29.3832 33.1448 28.2072 32.7532C28.2562 33.2917 28.2072 34.2219 28.0112 34.7115C28.0112 34.7115 27.5702 34.2709 27.1293 34.075C27.1782 34.4667 27.0803 35.25 26.9333 35.6417C26.9333 35.6417 26.4433 35.1521 25.9043 35.0053C26.3943 35.6907 26.3943 36.7188 26.2473 37.3063C26.1983 37.5021 26.3453 37.698 26.6883 37.698C27.2762 37.649 29.2362 37.7469 30.0691 38.0896C30.3141 38.1875 30.5591 38.3344 30.6571 38.5303C30.7551 38.775 30.9511 39.1667 31.2451 39.3625C31.3921 38.9219 31.8821 38.4323 32.2251 38.4813C32.3231 38.4813 32.4211 38.6771 32.47 38.824C32.519 38.6771 32.764 38.2365 33.009 38.2365C33.254 38.2365 33.499 38.5792 33.597 38.873C33.646 38.6771 33.744 38.4813 33.842 38.4813C34.185 38.4813 34.626 38.775 34.773 39.3136C34.92 39.1667 35.5079 38.3834 35.5569 37.8448H30.4611C30.4611 37.8938 30.4611 37.698 30.4611 37.4532Z" fill="white"/><path d="M31.7363 37.453C31.7363 37.5999 31.8343 37.6978 31.9813 37.6978C32.1283 37.6978 32.2263 37.5999 32.2263 37.453C32.2263 37.3062 32.1283 37.2083 31.9813 37.2083C31.8343 37.2083 31.7363 37.3062 31.7363 37.453Z" fill="white"/><path d="M30.707 37.453C30.707 37.5999 30.805 37.6978 30.952 37.6978C31.099 37.6978 31.197 37.5999 31.197 37.453C31.197 37.3062 31.099 37.2083 30.952 37.2083C30.805 37.2083 30.707 37.3062 30.707 37.453Z" fill="white"/><path d="M10.4219 38.5303C10.3239 38.6282 10.1279 39.1667 10.2259 39.5094C10.2749 39.6563 10.3239 39.7053 10.4709 39.7053C10.6179 39.7053 10.6669 39.6074 10.7159 39.4605C10.7649 39.1178 10.5199 38.5792 10.4219 38.5303Z" fill="white"/><path d="M12.2334 40.048C12.1354 40.1949 11.9885 40.2439 11.9395 40.2928C11.9885 40.3418 12.1354 40.4397 12.2824 40.4397C12.3804 40.4397 12.4784 40.3907 12.5274 40.3418C12.6744 40.048 12.5274 39.8032 12.4784 39.7053C12.4294 39.8032 12.3804 39.9501 12.2334 40.048Z" fill="white"/><path d="M11.5478 39.3626C11.7438 39.1667 11.7928 39.0199 11.7438 38.9219C11.6948 38.7751 11.2538 38.3344 10.7638 37.7959C10.7638 37.8938 10.7148 37.9917 10.7148 38.0897C11.0578 38.5792 11.2048 39.0688 11.1068 39.5094C11.1395 39.5421 11.1722 39.5584 11.2048 39.5584C11.3028 39.6563 11.4498 39.5094 11.5478 39.3626Z" fill="white"/><path d="M12.2334 39.4114C12.2334 39.3135 12.2334 39.2645 12.1844 39.2156H12.1354C12.0864 39.2156 12.0374 39.3135 11.9884 39.3625C11.9394 39.4114 11.8904 39.5093 11.7924 39.6072C11.6944 39.7052 11.6454 39.7541 11.5474 39.852C11.4494 39.901 11.4004 39.9989 11.4004 40.0479V40.0968C11.4331 40.1295 11.4657 40.1458 11.4984 40.1458C11.5474 40.1458 11.6944 40.0968 11.9394 39.852C12.1844 39.6072 12.2334 39.5093 12.2334 39.4114Z" fill="white"/><path d="M9.00034 36.8166C9.00034 36.8166 8.95134 36.8655 8.90234 36.9634C9.00034 36.9634 9.14733 36.9634 9.24533 37.0124V36.6697C9.14733 36.6697 9.04934 36.7676 9.00034 36.8166Z" fill="white"/><path d="M10.3224 36.9635C10.3224 36.9635 11.3513 37.8447 11.6943 38.1874C11.7923 38.2853 11.8903 38.2853 11.9883 38.2364C12.0373 38.1874 12.1353 38.1874 12.2333 38.1385C13.2622 37.7958 14.9282 37.7468 15.5162 37.7468C15.9081 37.7468 16.0061 37.551 15.9571 37.3551C15.8591 36.7676 15.8101 35.7395 16.3001 35.0541C15.7611 35.2499 15.2712 35.6905 15.2712 35.6905C15.0752 35.3478 15.0262 34.5155 15.0752 34.1239C14.5852 34.2708 14.1932 34.7603 14.1932 34.7603C13.9972 34.2708 13.9482 33.3405 13.9972 32.802C12.8213 33.1937 13.8992 35.2989 12.4783 35.201C12.8703 35.7885 13.3602 35.5437 13.8012 35.5437C14.0952 35.5437 14.4872 35.7395 14.4382 36.2291C14.3892 36.5718 12.4783 36.9635 11.6943 36.9635C11.1553 36.9635 10.7633 36.8166 10.5183 36.4249C10.3714 36.2291 10.2734 36.1801 10.1264 36.1801C9.93037 36.2291 9.73438 36.376 9.73438 36.8655C9.73438 37.1593 9.88137 37.8447 10.2244 37.8447C10.4203 37.8937 10.4203 37.3062 10.3224 36.9635Z" fill="white"/><path d="M8.36361 36.6699H8.5106C8.36361 36.8657 8.36361 37.0126 8.41261 37.0616C8.5106 37.1595 8.5596 36.9636 8.80459 36.7188C9.04958 36.4741 9.19658 36.3761 9.14758 36.2782C9.09858 36.2293 8.95159 36.2293 8.75559 36.3761C8.75559 36.3272 8.80459 36.2782 8.75559 36.2293C8.6576 35.9845 8.31461 35.6907 8.06962 35.6907H7.97162C8.06962 35.5438 8.02062 35.4459 7.97162 35.348C7.92262 35.2991 7.87363 35.348 7.77563 35.4459C7.77563 35.397 7.77563 35.2991 7.72663 35.2011C7.43264 34.7116 5.76671 33.1449 5.37472 32.998C5.12973 32.9001 5.08073 33.047 5.08073 33.047C5.08073 33.047 4.93374 33.1449 5.03173 33.3407C5.17873 33.7324 6.79567 35.348 7.23665 35.6418C7.33465 35.6907 7.43264 35.7397 7.48164 35.6907C7.38364 35.7886 7.33465 35.7886 7.43264 35.8866C7.48164 35.9355 7.57964 35.9845 7.72663 35.8866V35.9845C7.82463 36.1803 8.11862 36.572 8.36361 36.6699Z" fill="white"/><path d="M9.5383 37.8447C9.5383 37.6978 9.24432 37.4041 8.85233 37.4041C8.31335 37.4041 8.06836 37.7468 8.06836 37.9426C8.06836 38.2853 8.41135 38.3343 8.50934 38.3343C8.85233 38.3343 9.48931 37.9426 9.5383 37.8447Z" fill="white"/><path d="M9.05013 38.677C8.90314 38.8728 8.85414 39.0686 8.90314 39.2155C8.95214 39.4113 9.14813 39.5093 9.34412 39.5093C9.54012 39.5093 9.73611 39.4113 9.83411 39.2645C10.0301 38.9218 10.0301 38.1874 9.9811 38.1384C9.78511 38.1384 9.29512 38.3343 9.05013 38.677Z" fill="white"/><path d="M4.24756 31.0395C4.10057 30.8926 3.75758 31.1374 3.56159 30.9905C3.65958 30.501 4.00257 30.9905 4.29656 30.6968C4.44355 30.5499 4.34556 30.3541 4.29656 30.3051C4.14956 30.452 3.95357 30.403 3.90457 30.3051C4.24756 29.4239 3.56159 28.4937 2.87561 28.5916C3.02261 28.7874 3.0716 29.4239 2.97361 29.5708C3.2186 29.7666 3.0716 30.2072 2.77761 30.0603C2.58162 29.9624 2.23863 29.4728 2.63062 29.1791C2.63062 29.0322 2.38563 29.0322 2.18964 29.326C2.33663 28.7874 1.30767 28.9343 1.11168 29.0812C1.01368 29.326 0.866686 30.3541 1.40567 30.1583C1.11168 30.403 1.16068 30.6478 1.25867 30.6478C1.60166 30.2562 2.04264 30.5499 2.14064 30.7458C2.28763 31.0395 1.84665 31.2353 1.65066 30.9905C1.50366 31.0395 0.866686 31.0395 0.719692 30.8926C0.621696 31.578 1.60166 32.3124 2.43463 31.9208C2.53262 31.9208 2.58162 32.1655 2.43463 32.3124C2.48363 32.4103 2.72862 32.4593 2.82661 32.3124C3.1696 31.9697 2.67962 31.627 3.1206 31.5291C3.2186 31.7249 3.02261 32.0676 3.1696 32.2145C3.41459 32.4593 3.70858 31.9697 4.05157 31.9697C4.05157 31.578 4.49255 31.2843 4.24756 31.0395ZM1.69966 29.9135C1.69966 29.9135 1.55266 29.8155 1.74865 29.5708C1.94465 29.3749 2.04264 29.5218 2.04264 29.5218C2.04264 29.5218 2.23863 29.9135 2.28763 30.1093C2.09164 30.1093 1.69966 29.9135 1.69966 29.9135ZM3.2676 31.1374C3.1696 31.1374 2.92461 31.3822 2.82661 31.2353L2.28763 30.6968L2.58162 30.403L2.87561 30.1093L3.41459 30.6478C3.46359 30.7947 3.2676 31.0395 3.2676 31.1374Z" fill="white"/><path d="M4.39521 32.0188C4.34621 32.0188 4.29722 32.0188 4.24822 32.0678C4.19922 32.1167 4.19922 32.2146 4.19922 32.3125C4.19922 32.4105 4.29722 32.5084 4.39521 32.6063C4.44421 32.7532 4.5912 32.8021 4.6892 32.8021C4.7382 32.8021 4.7872 32.8021 4.83619 32.7532C4.93419 32.6553 4.88519 32.3615 4.7382 32.2146C4.6402 32.1167 4.49321 32.0188 4.39521 32.0188Z" fill="white"/><path d="M2.82719 30.4031L2.6802 30.55L2.5332 30.6968C2.5332 30.6968 2.82719 31.0885 3.07218 30.9416C3.21918 30.6968 2.82719 30.4031 2.82719 30.4031Z" fill="white"/><path d="M31.4406 28.9344C31.4406 29.0323 31.0487 29.2281 30.7547 28.6896C30.4607 28.6406 30.1667 28.5427 29.9707 28.4448C30.3137 29.1302 30.6077 29.7177 31.0977 30.0115C31.8326 30.4521 32.9596 30.3542 33.3026 29.8646C32.6656 29.5219 31.9306 28.6406 31.5386 27.8083C31.4407 28.0042 31.2937 28.3469 31.1957 28.5917C31.2447 28.6896 31.3427 28.8365 31.4406 28.9344Z" fill="white"/><path d="M38.2526 18.2126C39.0365 17.8699 40.1635 17.0866 40.7025 16.597C40.7515 16.6949 40.9475 17.1355 40.3595 17.6251C39.9185 17.9678 39.0365 18.4084 38.3996 18.6532C38.1056 19.0938 37.5176 19.5834 36.7336 20.122C38.3016 19.8772 40.1635 19.2407 41.0945 18.3595C42.8094 16.6459 41.9274 14.5897 41.6824 14.1001C40.5555 15.5199 38.3995 16.9886 36.3906 17.772C37.0766 17.8699 37.7626 18.0168 38.2526 18.2126Z" fill="white"/><path d="M36.9786 15.0792C38.0076 14.2469 39.0855 12.5823 39.2815 11.9948C39.5265 12.1417 39.6245 12.6313 39.3305 13.1698C38.7915 14.1 37.8116 14.9323 36.9786 15.6177C36.9296 16.2052 36.6846 16.9396 36.3906 17.4782C37.6156 16.6459 39.0365 15.4219 39.6735 14.5896C40.5065 13.5125 40.8495 12.4354 40.7025 11.3584C40.7515 10.1344 39.8695 8.91045 39.5265 8.6167C39.2815 9.93857 37.9586 12.1907 36.7826 13.4636C36.8806 13.9042 36.9786 14.5407 36.9786 15.0792Z" fill="white"/><path d="M36.1948 22.8147C36.4398 23.1084 36.6848 23.4512 36.8808 23.7449C37.8117 23.9407 38.9387 23.8918 38.9387 23.8918C38.9387 23.8918 38.8897 24.3814 38.2527 24.4303C37.9587 24.4303 37.0768 24.2834 36.7338 24.1855C36.5868 24.2345 35.9008 24.4303 35.2148 24.5282C36.1948 24.8709 37.6158 25.2137 38.4977 25.2137H38.7427C40.1637 25.0668 40.8986 23.7449 40.9476 23.0105C40.5066 23.1084 39.7717 23.1574 39.0367 23.1574C38.3507 23.1574 37.1258 23.1084 36.1948 22.8147Z" fill="white"/><path d="M42.1238 19.0938C40.8498 19.7792 38.5959 20.4646 36.783 20.4646C37.2239 20.7583 37.6649 21.0521 37.9589 21.3458C38.6939 21.2969 39.7228 21.0521 40.3108 20.8562C40.3108 20.9542 40.3108 21.4438 39.6248 21.6396C39.1349 21.7865 38.4489 21.7865 37.9099 21.7865C37.4689 22.0802 36.8319 22.325 36.293 22.5208C36.783 22.5698 37.4199 22.6188 37.9589 22.6188C38.8899 22.6188 39.7718 22.5208 40.3108 22.325C40.8008 22.1781 42.4177 21.4927 42.1238 19.0938Z" fill="white"/><path d="M35.2631 25.85C35.8021 26.0948 36.39 26.2906 36.88 26.3396C36.88 26.3396 36.782 26.8292 36.0471 26.7313C35.6061 26.6823 35.1161 26.3396 35.0181 26.2906C34.6751 26.3396 33.9891 26.3396 33.7441 26.2906C34.5771 26.8781 35.8511 27.5636 36.929 27.6615H37.076C38.203 27.6615 39.0849 26.5354 39.3299 25.9969C38.203 25.9969 36.243 25.5073 35.0671 24.8708C35.1161 25.0667 35.2141 25.4583 35.2631 25.85Z" fill="white"/><path d="M33.3041 27.3678C33.5981 27.7105 34.0881 27.9064 34.0881 27.9064C34.0881 27.9064 33.9411 28.1512 33.6471 28.1512C33.5491 28.1512 33.4511 28.1022 33.3531 28.0532C33.1571 27.9553 32.8631 27.6126 32.8631 27.6126C32.4711 27.5637 32.1281 27.5147 31.7852 27.4168C32.3731 28.1512 33.3531 29.0814 34.4311 29.3262C34.578 29.3751 34.725 29.3751 34.921 29.3751C35.852 29.3751 36.636 28.6897 36.832 28.2491C35.754 28.1022 34.1861 27.2699 33.4021 26.4866C33.4021 26.7803 33.3531 27.123 33.3041 27.3678Z" fill="white"/><path d="M26.2959 39.3626C26.8349 39.3626 27.1779 39.1668 27.4229 38.6282C26.6879 38.9709 25.9039 38.7751 24.434 38.3345C24.434 38.3345 23.895 38.5793 23.552 38.6282C24.434 38.873 25.7079 39.3136 25.9039 39.8032C26.0019 40.1949 25.7569 40.2928 25.7569 40.2928C25.2669 39.7053 24.679 39.3626 23.405 38.9709C23.405 39.2157 23.356 39.3626 23.356 39.3626C23.356 39.3626 23.111 39.4116 22.523 39.3136C23.013 39.7053 24.189 40.7334 24.336 41.8105C24.434 42.5449 23.895 42.5938 23.895 42.5938C23.846 41.4678 23.356 40.7824 22.2781 39.6563C22.2781 39.6563 22.0821 39.9011 21.8861 40.048C21.8861 40.048 21.4941 39.9991 21.2001 39.7543C21.3471 41.223 21.3961 44.748 21.2981 45.2866C21.2491 45.6782 21.0041 45.8741 21.0041 45.8741C21.0041 45.8741 20.7591 45.7272 20.7101 45.2866C20.6121 44.6991 20.7101 41.1741 20.8081 39.7543C20.4651 39.9501 20.1221 40.048 20.1221 40.048C19.8771 39.9011 19.7302 39.6563 19.7302 39.6563C18.7012 40.7824 18.2112 41.5168 18.1132 42.5938C18.1132 42.5938 17.6232 42.5449 17.6722 41.8105C17.8192 40.7334 18.9952 39.7053 19.4852 39.3136C18.9462 39.4116 18.6522 39.3626 18.6522 39.3626C18.6522 39.3626 18.6032 39.2157 18.6032 38.9709C17.3292 39.3626 16.7903 39.7053 16.2513 40.2928C16.2513 40.2928 16.0063 40.2438 16.1043 39.8032C16.3003 39.3136 17.5742 38.922 18.4562 38.6282C18.1622 38.5793 17.5742 38.3345 17.5742 38.3345C16.1533 38.7751 15.3203 38.9709 14.5853 38.6282C14.7813 39.1668 15.1733 39.3626 15.7123 39.3626C15.0263 39.6074 14.3894 40.2928 14.1934 40.9782C14.6833 42.7897 16.2513 43.3282 16.2513 43.3282C15.8593 42.447 16.0063 40.7334 18.3582 39.5584C16.9373 40.9782 16.3493 42.3001 16.7413 43.5241C17.0843 44.6501 18.2602 45.0907 19.0932 45.1397C18.5052 43.2793 18.7502 41.5657 20.0241 40.2438C19.4852 41.7126 18.7012 46.2657 20.9061 47.0001C23.111 46.2657 22.3271 41.7126 21.7881 40.2438C23.062 41.6147 23.307 43.2793 22.719 45.1397C23.601 45.1397 24.728 44.6501 25.071 43.5241C25.4629 42.3001 24.924 40.9782 23.454 39.5584C25.8059 40.7334 25.9529 42.4959 25.5609 43.3282C25.5609 43.3282 27.1289 42.7897 27.6189 40.9782C27.6189 40.2928 26.9329 39.6563 26.2959 39.3626Z" fill="white"/><path d="M11.1073 30.0115C11.5972 29.7177 11.8912 29.1302 12.2342 28.4448C12.0382 28.5427 11.7442 28.6406 11.4502 28.6896C11.1563 29.2281 10.7643 29.0323 10.7643 28.9344C10.8623 28.8365 10.9603 28.6896 11.0093 28.5917C10.9113 28.3469 10.7643 28.0042 10.6663 27.8083C10.2743 28.6896 9.49032 29.5219 8.90234 29.8646C9.24533 30.3542 10.3723 30.4521 11.1073 30.0115Z" fill="white"/><path d="M5.42319 20.1218C4.59022 19.5833 4.05124 19.0937 3.75725 18.6531C3.07128 18.4083 2.18931 17.9677 1.79733 17.625C1.20935 17.1354 1.40534 16.6948 1.45434 16.5968C1.94432 17.1354 3.07128 17.8698 3.90425 18.2125C4.39423 18.0166 5.0802 17.8698 5.76618 17.7718C3.75725 17.0375 1.60133 15.5198 0.474375 14.1489C0.229384 14.5896 -0.701581 16.6948 1.06235 18.4083C1.94432 19.2406 3.85525 19.8771 5.42319 20.1218Z" fill="white"/><path d="M5.76662 17.4291C5.47263 16.8905 5.22764 16.2051 5.17864 15.5687C4.34567 14.9322 3.41471 14.0999 2.82673 13.1208C2.53274 12.5822 2.63073 12.0926 2.87573 11.9458C3.07172 12.5333 4.14968 14.1978 5.17864 15.0301C5.17864 14.4916 5.27664 13.8551 5.42363 13.4145C4.24767 12.1416 2.87573 9.8895 2.67973 8.56763C2.33675 8.86138 1.45478 10.0853 1.50378 11.3093C1.35678 12.3864 1.69977 13.4635 2.53274 14.5405C3.12072 15.3728 4.54166 16.6458 5.76662 17.4291Z" fill="white"/><path d="M5.27566 23.7449C5.42266 23.4512 5.71665 23.1084 5.96164 22.8147C5.03067 23.0595 3.80572 23.1084 3.16874 23.1084C2.38477 23.1084 1.6498 23.0595 1.25781 22.9616C1.30681 23.7449 2.04178 25.0668 3.46273 25.1647H3.70772C4.58969 25.1647 6.01063 24.822 6.9906 24.4793C6.30462 24.3814 5.61865 24.2345 5.47165 24.1366C5.07967 24.3324 4.1977 24.4793 3.90371 24.4303C3.26674 24.3814 3.21774 23.8918 3.21774 23.8918C3.21774 23.8918 4.3447 23.9407 5.27566 23.7449Z" fill="white"/><path d="M1.84643 22.3741C2.38541 22.5699 3.21838 22.6678 4.19834 22.6678C4.78632 22.6678 5.3743 22.6189 5.86428 22.5699C5.3253 22.3741 4.68832 22.1293 4.24734 21.8355C3.70836 21.8355 2.97339 21.7866 2.5324 21.6887C1.84643 21.4928 1.84643 21.0032 1.84643 20.9053C2.43441 21.1501 3.46337 21.3949 4.19834 21.3949C4.49233 21.1501 4.88432 20.8074 5.3743 20.5137C3.61036 20.5137 1.30745 19.8282 0.0334964 19.1428C-0.260493 21.4928 1.35645 22.1782 1.84643 22.3741Z" fill="white"/><path d="M5.12892 27.6125H5.27591C6.35387 27.5146 7.62782 26.8292 8.46079 26.2417C8.2158 26.2907 7.48083 26.2907 7.18684 26.2417C7.08884 26.3396 6.54986 26.6334 6.15788 26.6823C5.37391 26.7802 5.32491 26.2907 5.32491 26.2907C5.81489 26.2417 6.40287 26.0459 6.94185 25.8011C6.99085 25.4094 7.08884 25.0177 7.18684 24.7729C5.96188 25.4584 4.00196 25.948 2.875 25.948C3.11999 26.4865 4.00196 27.6125 5.12892 27.6125Z" fill="white"/><path d="M7.2371 29.3751C7.38409 29.3751 7.58009 29.3751 7.72708 29.3262C8.75604 29.0814 9.785 28.1512 10.373 27.4168C10.03 27.5147 9.68701 27.6126 9.29502 27.6126C9.29502 27.6126 9.05003 27.9064 8.80504 28.0532C8.70704 28.1022 8.60905 28.1512 8.51105 28.1512C8.21706 28.1512 8.07007 27.9064 8.07007 27.9064C8.07007 27.9064 8.56005 27.6616 8.85404 27.3678C8.80504 27.123 8.75604 26.7803 8.75604 26.4866C7.92307 27.3189 6.40413 28.1022 5.32617 28.2491C5.52216 28.6897 6.25714 29.3751 7.2371 29.3751Z" fill="white"/><path d="M20.6621 2.59478C20.6621 2.83957 20.8581 2.98644 21.0541 2.98644C21.2501 2.98644 21.4461 2.79061 21.4461 2.59478C21.4461 2.34998 21.2501 2.20311 21.0541 2.20311C20.8581 2.15415 20.6621 2.34998 20.6621 2.59478Z" fill="white"/><path d="M20.8085 1.71354H21.3475L21.2985 1.02812L21.8865 1.12604V0.5875L21.2985 0.636458L21.3475 0H20.8085L20.8575 0.636458L20.2695 0.5875V1.12604L20.8575 1.02812L20.8085 1.71354Z" fill="white"/><path d="M18.8973 8.17607C18.9463 8.17607 19.0443 8.22503 19.0933 8.22503H23.0132C23.1112 8.22503 23.1602 8.22503 23.2092 8.17607C23.3562 8.12712 23.4052 8.0292 23.4542 7.88232H18.6523C18.7013 8.07816 18.7993 8.12712 18.8973 8.17607Z" fill="white"/><path d="M23.2103 7.58844C23.2593 7.58844 23.2593 7.53949 23.2593 7.53949V7.24574C23.2593 7.19678 23.2103 7.19678 23.2103 7.19678H18.9474C18.8984 7.19678 18.8984 7.24574 18.8984 7.24574V7.53949C18.8984 7.58844 18.9474 7.58844 18.9474 7.58844H23.2103Z" fill="white"/><path d="M23.6511 6.85426C23.7491 6.70739 24.2881 5.67926 24.2881 4.60218C24.2881 3.62301 23.0631 3.08447 22.3771 3.08447C22.2791 4.45531 21.7402 6.60947 21.0542 6.60947C20.4172 6.60947 19.8292 4.45531 19.7312 3.08447C18.9963 3.08447 17.8203 3.62301 17.8203 4.60218C17.8203 5.67926 18.3593 6.75635 18.4573 6.85426H23.6511Z" fill="white"/><path d="M21.0538 5.92389C21.3968 5.92389 21.7888 4.89577 21.9358 3.86764C21.9358 3.67181 21.5928 3.37806 21.0538 3.3291C20.5149 3.3291 20.1719 3.62285 20.1719 3.86764C20.3189 4.79785 20.7599 5.92389 21.0538 5.92389Z" fill="white"/><path d="M27.2774 21.9823C27.2774 21.8355 27.1794 21.7375 27.0324 21.7375H15.1259C14.9789 21.7375 14.8809 21.8355 14.8809 21.9823V30.2563C14.8809 30.2563 14.8809 30.6969 15.0769 31.1865C15.3218 31.774 16.3508 32.7532 17.6248 33.4386C19.4377 34.3688 20.5156 35.1032 21.0546 35.5438C21.5936 35.1032 22.6716 34.3688 24.4845 33.4386C25.8074 32.7532 26.7874 31.774 27.0324 31.1865C27.2774 30.648 27.2284 30.2563 27.2284 30.2563L27.2774 21.9823ZM23.2595 24.9688V25.0178C23.4065 25.6053 23.5535 26.2417 23.6025 26.8292C24.0925 27.2209 24.5335 27.6125 24.9255 28.0042C25.6605 27.1719 26.0524 26.3886 26.0524 25.7521C25.7095 25.7521 25.4155 25.4584 25.4155 25.1157C25.4155 24.9688 25.4645 24.8709 25.5135 24.773C25.1705 24.6261 24.7785 24.5771 24.4355 24.5771C24.1415 24.5771 23.8475 24.6261 23.5045 24.675H23.4555L23.3575 24.724L23.4065 24.675C23.4555 24.5771 23.4555 24.5282 23.5045 24.4303C24.4845 24.2344 25.2685 24.3323 25.7585 24.6261C25.8564 24.5771 25.9544 24.5282 26.0524 24.5282C26.3954 24.5282 26.6894 24.8219 26.6894 25.1646C26.6894 25.4094 26.5424 25.6053 26.3464 25.7032C26.3464 26.3886 25.9544 27.2698 25.1215 28.249L25.2685 28.3959L25.3665 28.4938V28.5428L25.2195 28.6896H25.1215C25.0888 28.657 25.0725 28.6244 25.0725 28.5917C25.0235 28.5428 25.0235 28.4938 24.9745 28.4448L24.6805 28.7386L24.5825 28.8855C24.4355 28.9834 24.2885 29.0323 24.1905 28.9834H24.1415L24.1905 28.9344C24.4355 28.7386 24.6315 28.4938 24.8275 28.3469C24.5335 28.0042 24.1415 27.6615 23.7495 27.3188C23.7985 27.6615 23.7985 28.0042 23.7985 28.3469C23.7985 28.6407 23.7985 28.9834 23.7495 29.3261C23.7005 29.375 23.6025 29.424 23.5535 29.473L23.5045 29.5219V29.473C23.5535 29.0813 23.5535 28.6896 23.5535 28.3469V27.9063C23.5535 27.6615 23.5045 26.9761 23.4555 26.5355C23.4065 26.1438 23.3085 25.7521 23.2105 25.3605V25.3115L23.3575 25.1646L23.2595 24.9688ZM19.2417 24.0875C19.7317 22.9125 20.4177 22.2761 21.1036 22.2761C21.7896 22.2761 22.4756 22.9125 22.9656 24.0875V24.1365H22.9166C22.8676 24.1365 22.8186 24.1855 22.7206 24.2344H22.6716V24.1855C22.2306 23.1573 21.6426 22.5698 21.0546 22.5698C20.4667 22.5698 19.8787 23.1573 19.4377 24.1855V24.2344H19.3887C19.3397 24.1365 19.2417 24.1365 19.2417 24.0875ZM19.0457 24.3813C19.1927 24.4792 19.6337 24.724 20.1237 24.5771C20.5646 24.4303 21.0546 24.4303 21.0546 24.4303C21.0546 24.4303 21.5936 24.4303 21.9856 24.5771C22.4756 24.724 22.9166 24.4792 23.0636 24.3813C23.0962 24.3813 23.1125 24.3976 23.1125 24.4303C23.0636 24.6261 22.9166 25.1157 22.1816 25.3115C21.4956 25.4584 21.1526 26.2417 21.0546 26.5844C21.0546 26.6334 21.0056 26.6334 20.9566 26.5844C20.8586 26.2417 20.5156 25.4584 19.8297 25.3115C19.0947 25.1646 18.9477 24.6261 18.8987 24.4303C18.9967 24.3813 19.0457 24.3813 19.0457 24.3813ZM20.2217 26.3396C20.3197 26.3396 20.4667 26.2907 20.5646 26.2417C20.6136 26.3396 20.6626 26.4865 20.7116 26.5844C20.5646 26.6823 20.4177 26.7313 20.2217 26.7313C19.6827 26.7313 19.2907 26.2907 19.2907 25.8011C19.2907 25.6542 19.3397 25.5563 19.3887 25.4584C19.4867 25.5073 19.5847 25.5563 19.7317 25.6053C19.6827 25.6542 19.6827 25.7521 19.6827 25.8011C19.6337 26.0948 19.9277 26.3396 20.2217 26.3396ZM19.9767 25.7521V25.6542C20.1237 25.7032 20.2707 25.85 20.3687 25.948C20.3197 25.9969 20.2707 25.9969 20.2217 25.9969C20.0747 25.9969 19.9767 25.899 19.9767 25.7521ZM20.2217 27.025C20.4177 27.025 20.6626 26.9761 20.8586 26.8292C20.9076 26.8782 21.0056 27.074 21.0546 27.074C21.1526 27.074 21.2016 26.8782 21.2506 26.8292C21.4466 26.9271 21.6916 27.025 21.8876 27.025C22.2306 27.025 22.5246 26.8782 22.7696 26.6823V26.7313C22.8676 27.123 22.9166 27.6125 22.8676 27.8084C22.8676 28.0042 22.7696 28.2 22.7206 28.3959C22.6226 28.6407 22.5736 28.8365 22.5736 28.8365C22.5736 28.8365 22.5736 28.8855 22.5246 28.9834C22.4756 29.1792 22.3286 29.5219 22.1326 29.8646C21.7406 29.6198 21.3486 29.5219 20.8586 29.5219C20.4177 29.5219 20.0257 29.6198 19.6827 29.8157C19.5357 29.473 19.3887 29.1792 19.3397 29.0323C19.2907 28.9344 19.2907 28.8855 19.2907 28.8855C19.2907 28.8855 19.1927 28.6896 19.0947 28.3959C19.0457 28.249 18.9967 28.0532 18.9967 27.8573C18.9967 27.7105 18.9477 27.2209 19.0947 26.7803C19.0947 26.7313 19.1437 26.6823 19.1437 26.6334C19.4867 26.8292 19.8787 27.025 20.2217 27.025ZM21.9366 26.3396C22.2796 26.3396 22.5246 26.0948 22.5246 25.7521C22.5246 25.6542 22.5246 25.6053 22.4756 25.5563C22.5736 25.5073 22.7206 25.4584 22.8186 25.4094C22.8676 25.5073 22.9166 25.6542 22.9166 25.7521C22.9166 26.2907 22.4756 26.6823 21.9856 26.6823C21.7896 26.6823 21.6426 26.6334 21.4956 26.5355C21.5446 26.4375 21.5936 26.3396 21.6426 26.1928C21.6916 26.2907 21.8386 26.3396 21.9366 26.3396ZM21.7896 25.948C21.8876 25.8011 22.0346 25.7032 22.1816 25.6542V25.7521C22.1816 25.899 22.0836 25.9969 21.9366 25.9969C21.8876 25.9969 21.8386 25.9969 21.7896 25.948ZM16.1058 24.5771C16.2528 24.5771 16.3508 24.6261 16.4488 24.675C16.7918 24.4792 17.1838 24.3813 17.7228 24.3813C18.0167 24.3813 18.3107 24.4303 18.6537 24.4792H18.7027C18.7027 24.5282 18.7517 24.6261 18.8007 24.724L18.8497 24.773L18.7517 24.724H18.6537C18.3597 24.675 18.0657 24.6261 17.7718 24.6261C17.4288 24.6261 16.9878 24.675 16.6938 24.8709C16.7428 24.9688 16.7918 25.0667 16.7918 25.2136C16.7918 25.5563 16.4978 25.85 16.1548 25.85C16.1548 26.4375 16.5468 27.2209 17.2818 28.1021C17.6738 27.7105 18.1147 27.2698 18.6047 26.9271C18.6537 26.3396 18.8007 25.7032 18.9477 25.1157V25.0667L18.9967 25.1157L19.1437 25.2625L19.1927 25.3115V25.3605C19.0947 25.7521 18.9967 26.0948 18.9477 26.4865V26.5355C18.8987 26.8292 18.8497 27.2209 18.8497 27.6125C18.8497 27.9063 18.8007 28.1511 18.8007 28.3469C18.8007 28.6407 18.8007 28.9344 18.8497 29.3261V29.375H18.8007C18.7027 29.3261 18.6537 29.3261 18.6047 29.3261H18.5557V29.2771C18.5557 29.0323 18.5067 28.6896 18.5067 28.3469C18.5067 28.0042 18.5067 27.6615 18.5557 27.3188C18.1637 27.6615 17.7717 28.0042 17.4778 28.3469C17.7228 28.6407 18.0657 28.9344 18.4577 29.2771L18.5067 29.3261H18.4577C18.3597 29.375 18.2127 29.375 18.1147 29.3261C17.8207 29.0323 17.5758 28.8365 17.3308 28.5917C17.2818 28.6407 17.2328 28.6896 17.2328 28.7386L17.1838 28.7875C17.1348 28.7875 17.0858 28.8365 16.9878 28.8855L16.9388 28.8365C16.9388 28.8365 16.8898 28.8365 16.8898 28.7875H16.8408V28.7386C16.9388 28.5917 17.0368 28.4938 17.1348 28.3959C16.3018 27.4657 15.9098 26.5844 15.9098 25.899C15.7138 25.8011 15.5668 25.6053 15.5668 25.3605C15.4688 24.8709 15.7628 24.5771 16.1058 24.5771ZM23.0636 32.1657C22.7206 33.1448 22.2306 33.8303 21.6916 34.124C21.6426 34.4178 21.3976 34.6625 21.1036 34.6625C20.8096 34.6625 20.5646 34.4178 20.5156 34.124C19.9767 33.8303 19.4867 33.1938 19.1437 32.2146V32.1657L19.4377 32.0678V32.1167C19.7317 32.949 20.1237 33.5365 20.5646 33.8303C20.6626 33.5855 20.8586 33.3896 21.1526 33.3896C21.4466 33.3896 21.6426 33.5855 21.7406 33.7813C22.1816 33.4875 22.5736 32.9 22.8676 32.1167V32.0678H22.9166C22.9166 32.1167 22.9656 32.1167 23.0636 32.1657ZM20.5646 32.1167C20.5646 31.9209 20.6136 31.3823 20.7116 31.1865C20.8096 31.1375 20.9566 31.0886 21.1036 31.0886C21.2506 31.0886 21.3976 31.1375 21.5446 31.2355C21.5936 31.4313 21.6916 31.9209 21.6916 32.1167C21.6916 32.3125 21.2016 32.4594 21.1526 32.5084C21.0056 32.4594 20.5646 32.3615 20.5646 32.1167ZM26.8364 30.1584C26.7874 30.2073 26.7384 30.2563 26.6894 30.2563C26.6404 30.2563 26.5914 30.3053 26.4934 30.3053H26.4444C26.3464 30.3053 26.2484 30.3053 26.1994 30.2563C26.1504 30.2563 26.1504 30.2073 26.1014 30.2073C25.9544 30.2073 25.6115 30.3053 25.5135 30.3542C25.5625 30.3542 26.0034 30.4032 26.2974 30.648C26.4444 30.7459 26.7384 30.7948 26.8364 30.7948C26.8364 30.8438 26.3464 31.1865 25.4155 30.9907L25.1705 30.9417C24.7295 30.8438 24.3375 30.7948 23.8965 30.7948C23.9455 30.7948 23.9945 30.8438 23.9945 30.8438C24.0925 30.8928 24.2395 30.9417 24.3375 30.9907C24.3375 30.9907 24.3865 30.9907 24.3865 31.0396H24.4355C24.4845 31.0396 24.5335 31.0396 24.5335 31.0886C24.5825 31.0886 24.6315 31.1375 24.6805 31.1375C24.7295 31.1865 24.8275 31.2355 24.8275 31.2844C24.8275 31.3334 24.8765 31.3334 24.8765 31.3823C24.8765 31.4803 24.8765 31.5292 24.8275 31.6271C24.6805 31.823 24.4845 31.823 24.2885 31.6271L24.2395 31.5782C24.1905 31.5292 24.1415 31.4803 24.0925 31.3823V31.3334H24.0435C23.9455 31.2844 23.8965 31.1865 23.7985 31.1865C23.6515 31.1375 23.4555 31.0886 23.3085 31.0396H23.1615C23.3085 31.1375 23.4555 31.2355 23.5045 31.3334V31.3823C23.6025 31.5292 23.6025 31.6761 23.6515 31.823C23.7985 32.1167 23.8475 32.1657 23.9945 32.2636C23.8475 32.3125 23.1126 32.3125 22.7696 31.774C22.7696 31.774 22.7206 31.725 22.7206 31.6761C22.6226 31.4803 22.5736 31.2844 22.5246 31.1375C22.4756 30.9907 22.5736 30.8438 22.4756 30.7948C22.3776 30.7459 22.3286 30.7948 22.3286 30.7948L22.2796 30.8438V30.8928C22.2796 30.9417 22.2306 30.9417 22.2306 30.9417V30.9907C22.2306 30.9907 22.2306 31.0396 22.1816 31.0396H21.9856C21.9856 31.0396 21.9366 31.0396 21.9366 31.0886C21.8876 31.0886 21.8386 31.1375 21.7896 31.1375C21.7406 31.1375 21.6916 31.0886 21.6916 31.0396V30.9417H21.5936C21.5609 30.9417 21.5283 30.9254 21.4956 30.8928V30.7459C21.4629 30.7785 21.4303 30.7948 21.3976 30.7948H21.2996C21.2506 30.7948 21.2506 30.7459 21.2506 30.6969V30.648V30.599H21.1526C21.1036 30.599 21.0056 30.55 20.9566 30.55H20.9076C20.8586 30.55 20.7606 30.599 20.7116 30.599H20.6136V30.55V30.5011L20.6626 30.4521V30.4032H20.5646V30.4521H20.5156V30.55C20.5156 30.599 20.5156 30.648 20.4666 30.648C20.434 30.6806 20.4013 30.6806 20.3687 30.648C20.3687 30.648 20.3197 30.648 20.3197 30.599C20.3197 30.599 20.2707 30.599 20.2707 30.55C20.2707 30.55 20.2707 30.599 20.3197 30.599V30.6969C20.287 30.7296 20.2543 30.7459 20.2217 30.7459H20.1237C20.1237 30.7948 20.1727 30.7948 20.1237 30.8438C20.1237 30.8928 20.0747 30.8928 20.0257 30.8928H19.8297L19.7807 30.8438H19.6827C19.6827 30.8438 19.6337 30.8438 19.6337 30.7948L19.5847 30.7459V30.6969C19.4867 30.599 19.3397 30.9417 19.3397 30.9417C18.8987 31.8719 17.8207 32.0678 17.8207 32.0188C17.8207 32.0188 18.0657 31.9209 18.1637 31.5782C18.2127 31.3823 18.2127 31.3334 18.3107 31.1375C18.3107 31.0886 18.3597 31.0886 18.3597 31.0396C18.4087 30.9417 18.5557 30.8928 18.6537 30.7948H18.5067C18.3597 30.8438 18.2127 30.8438 18.0167 30.9417C17.9187 30.9907 17.8697 31.0396 17.7718 31.0886H17.7228V31.1375C17.7228 31.1865 17.6738 31.2355 17.6248 31.3334L17.5758 31.3823C17.3798 31.5782 17.2328 31.5782 17.0368 31.3823L16.9878 31.3334C16.9388 31.2844 16.9388 31.1865 16.9878 31.1375C16.9878 31.0886 17.0368 31.0396 17.0858 30.9907C17.1348 30.9417 17.1838 30.9417 17.2328 30.8928C17.2818 30.8438 17.3308 30.8438 17.3798 30.8438C17.4288 30.8438 17.4288 30.8438 17.4778 30.7948H17.5758C17.5758 30.7948 17.5758 30.7459 17.6248 30.7459C17.6738 30.7459 17.7228 30.6969 17.7718 30.6969C17.8207 30.6969 17.8697 30.648 17.9187 30.648C17.9187 30.648 17.9677 30.648 18.0167 30.599C17.6248 30.599 17.2328 30.648 16.7918 30.7459C16.7428 30.7459 16.6448 30.7948 16.5468 30.7948C16.0568 30.8928 15.1259 30.648 15.1259 30.599C15.1259 30.55 15.3708 30.55 15.6158 30.4032C15.8118 30.3053 15.9098 30.2073 16.0568 30.1584C16.3018 30.3542 16.5958 30.3542 16.6448 30.3542C16.5468 30.3053 16.1058 30.2563 15.9588 30.2073C15.9588 30.2073 15.9098 30.2563 15.8608 30.2563C15.7628 30.3053 15.6648 30.3053 15.5668 30.3053C15.5178 30.3053 15.4198 30.3053 15.3708 30.2563C15.3218 30.2563 15.2728 30.2073 15.2238 30.1584C15.1748 30.1094 15.1748 30.0605 15.1748 29.9136C15.2238 29.7178 15.4198 29.6198 15.6648 29.6688C15.8118 29.7178 15.9098 29.7667 15.9588 29.8157L16.0078 29.8646C16.1548 29.8646 16.3508 29.9625 16.5468 30.0115C16.7428 30.1094 16.8898 30.1584 16.9878 30.1584C16.9388 30.1584 16.8898 30.1094 16.8408 30.1094C16.7918 30.1094 16.7428 30.0605 16.7428 30.0605C16.6938 30.0115 16.6448 30.0115 16.5958 29.9625C16.3018 29.8157 16.0078 29.6688 15.8118 29.473C15.6648 29.2771 15.6158 29.1792 15.5668 28.9834C15.5178 28.5428 15.3218 28.3469 15.3218 28.298C15.3708 28.249 16.0568 28.5917 16.3018 28.8365C16.4488 29.0323 16.4978 29.1792 16.5468 29.3261V29.375C16.5958 29.5219 16.7428 29.6688 16.9878 29.8157C17.0368 29.8157 17.0368 29.8646 17.0858 29.8646C17.0368 29.7667 16.9878 29.7178 16.9388 29.6198V29.5709L16.8898 29.5219C16.8898 29.5219 16.8408 29.473 16.8408 29.424C16.7918 29.375 16.7918 29.3261 16.7428 29.2771C16.6938 29.1303 16.6938 28.9834 16.7428 28.9344C16.7918 28.8855 16.8408 28.8365 16.9388 28.7875C17.1348 28.7386 17.2818 28.8365 17.3308 29.1303V29.5219C17.4288 29.8157 17.6738 30.0605 17.9677 30.2563C17.6248 29.9625 17.4288 29.2771 17.4778 29.2771C17.5268 29.2282 17.8207 29.424 18.1147 29.5709C18.2617 29.6198 18.4087 29.7178 18.5557 29.8157C18.6537 29.8646 18.7517 29.9625 18.8007 30.0115C18.8987 30.0605 18.9477 30.1584 18.9967 30.2073L19.1437 30.3542L19.2417 30.4521C19.3397 30.5011 19.4867 30.4521 19.4867 30.4521C19.5357 30.4521 19.5847 30.4521 19.6337 30.4032L19.6827 30.3542C19.7317 30.3053 19.7807 30.3053 19.8297 30.3053V30.2563C19.8297 30.1584 19.8787 30.1094 19.9767 30.0605C19.9767 30.0605 20.0257 30.0605 20.0257 30.0115H20.1727C20.1727 29.9625 20.2217 29.9625 20.2707 29.9136C20.3687 29.8646 20.5156 29.8646 20.6136 29.9625C20.6626 30.0115 20.6626 30.0605 20.7116 30.1094V30.3542H21.0056C21.0546 30.3542 21.1036 30.3542 21.1526 30.4032C21.2016 30.4032 21.2506 30.3542 21.2996 30.3542H21.4466V30.2073C21.4466 30.1584 21.4466 30.1094 21.4956 30.0605C21.4956 30.0605 21.4956 30.0115 21.5446 30.0115L21.5936 29.9625C21.6916 29.9136 21.7896 29.9136 21.8876 29.9625C21.9366 29.9625 21.9366 30.0115 21.9856 30.0605H22.1816C22.2796 30.1094 22.3286 30.1584 22.3286 30.2563H22.4266C22.4266 30.2563 22.6716 30.2563 22.7206 30.3053H22.9656L23.0636 30.2073L23.2595 30.0115C23.3575 29.9625 23.4065 29.8646 23.5045 29.8157C23.6515 29.7178 23.8475 29.6688 23.9945 29.6198C24.4845 29.424 24.5335 29.1303 24.5825 29.1303C24.6315 29.1792 24.4845 29.9625 24.1415 30.2563C24.3865 30.0605 24.6315 29.8157 24.7785 29.5219V29.1303C24.8765 28.8855 24.9745 28.7386 25.1705 28.7875C25.2685 28.8365 25.3175 28.8855 25.3665 28.9344C25.4155 29.0323 25.4155 29.1303 25.3665 29.2771C25.3665 29.3261 25.3175 29.375 25.2685 29.424L25.1705 29.5219L25.1215 29.5709V29.6198C25.0725 29.7178 25.0235 29.7667 24.9255 29.8646L25.0235 29.7667C25.2685 29.5709 25.4155 29.424 25.4645 29.2771C25.5135 29.1303 25.5625 28.9834 25.7095 28.7875C25.9544 28.5428 26.0034 28.4448 26.2484 28.298C26.2974 28.249 26.6404 28.2 26.6894 28.2C26.7384 28.249 26.4444 28.3469 26.3464 28.8365C26.2974 28.9834 26.2484 29.2282 26.1014 29.424C25.9054 29.6688 25.7095 29.7178 25.4645 29.8646L25.4155 29.9136C25.3665 29.9625 25.3175 29.9625 25.2195 30.0115C25.1215 30.0605 25.0725 30.1094 25.0235 30.1094C25.1705 30.0605 25.3175 30.0115 25.5135 29.9625C25.6605 29.8646 25.8564 29.8157 26.0524 29.8157C26.0524 29.8157 26.0524 29.7667 26.1014 29.7667C26.1504 29.7178 26.2484 29.6688 26.3954 29.6198C26.6404 29.5219 26.8364 29.6198 26.8854 29.8646C26.9344 30.0115 26.8854 30.1094 26.8364 30.1584Z" fill="white"/><path d="M35.4109 20.3176C36.1459 19.9749 37.3708 19.1426 37.8608 18.5551C37.1748 18.3103 35.8029 18.1635 35.0189 18.1635C36.6358 17.0374 36.6848 14.6874 36.2439 12.9739C35.8519 14.3447 34.8719 15.4708 34.2349 16.1562C34.2839 16.8416 34.0879 18.0166 33.6959 18.702C34.2349 18.8978 34.8719 19.1916 35.3129 19.5343C35.0189 19.926 34.3819 20.4645 33.9899 20.8072C34.3329 21.1499 34.8719 21.7864 35.1659 22.178C34.7739 22.4718 33.9899 22.7655 33.549 22.9124C33.7449 23.353 34.0389 24.0874 34.1369 24.626C33.6469 24.7239 33.01 24.7728 32.324 24.7728C32.373 25.2624 32.275 26.0458 32.177 26.5353C31.54 26.4864 30.8051 26.2416 30.4621 26.0458C30.2661 26.7312 29.8251 27.4166 29.8251 27.4655C29.2371 26.7801 28.6491 26.5353 28.1102 26.5353V26.0947C28.6491 26.0947 29.2371 26.2905 29.6781 26.7312C29.8741 26.3885 30.0701 25.752 30.1681 25.3603C30.5601 25.5562 31.197 25.801 31.736 25.8989C31.785 25.4093 31.834 24.7728 31.785 24.2833C32.324 24.3322 32.912 24.3322 33.549 24.2343C33.451 23.7937 33.059 23.0593 32.814 22.6676C33.353 22.5208 34.0389 22.227 34.3819 22.0312C34.0879 21.6395 33.5979 21.101 33.255 20.7583C33.6469 20.4645 34.2839 19.9749 34.5289 19.6812C34.0879 19.3874 33.5 19.0937 33.01 18.8978C33.6959 17.9676 33.8429 16.0583 33.6959 15.177C33.108 17.1843 31.344 18.653 30.2661 19.3385C30.2171 19.3874 30.1681 19.4364 30.1191 19.4364C30.0701 19.4853 29.8741 19.7301 29.9721 20.0239C29.9721 20.1218 30.0211 20.1708 30.0211 20.2687C30.1191 20.6603 30.1191 21.2478 29.5311 21.7864C29.0411 22.227 28.4531 22.276 28.1102 22.227V21.1499C28.1102 21.003 28.0122 20.9051 27.8652 20.9051H27.1302L26.7872 20.5624H27.5222C27.9142 20.5135 28.3551 20.3176 28.3551 20.3176C28.3551 20.3176 27.9142 20.3176 27.7182 20.2687C27.4732 20.3176 26.9342 20.0728 26.4932 19.5833C26.3462 19.3874 26.1992 19.1916 26.1012 18.9958C25.7092 18.653 25.2683 18.2124 24.9743 17.576C24.7783 17.1353 24.6803 16.4989 24.6313 16.1072C24.4843 16.2051 24.3373 16.401 24.1413 16.6458C23.7983 17.0864 23.6513 17.7228 23.6513 17.7228L23.5043 18.2124L23.2593 17.7718C23.2593 17.7718 22.9163 17.1843 22.8673 16.4499C22.8673 16.1072 22.8673 15.8135 22.9163 15.5687C22.8183 15.6176 22.6714 15.7155 22.5244 15.8135C21.9364 16.2541 21.5934 16.6947 21.5934 16.6947C21.2994 17.0864 21.1034 17.4291 21.0544 17.576C21.0054 17.3801 20.8094 17.0864 20.5154 16.6947C20.5154 16.6947 20.2214 16.2051 19.5845 15.8135C19.4375 15.7155 19.2905 15.6176 19.1925 15.5687C19.2415 15.8135 19.2415 16.1562 19.2415 16.4499C19.1925 17.1843 18.8495 17.7228 18.8495 17.7718L18.6045 18.1635L18.4575 17.6739C18.4575 17.6739 18.2615 17.0374 17.9675 16.5968C17.7715 16.352 17.6245 16.1562 17.4776 16.0583C17.4286 16.4499 17.3306 17.1353 17.1346 17.527C16.8406 18.1635 16.4486 18.653 16.0076 18.9468C15.9096 19.1426 15.7626 19.3385 15.6156 19.5343C15.1746 20.0239 14.6357 20.2687 14.3907 20.3176C14.1947 20.3666 13.7537 20.3666 13.7537 20.3666C13.7537 20.3666 14.1947 20.5624 14.5867 20.6114C14.9786 20.6603 15.3216 20.6114 15.3216 20.6114L14.9786 20.9541H14.2437C14.0967 20.9541 13.9987 21.052 13.9987 21.1989V22.276C13.6557 22.3249 13.0187 22.276 12.5777 21.8353C12.0388 21.2968 11.9898 20.7093 12.0878 20.3176C12.1368 20.2687 12.1368 20.1708 12.1368 20.0728C12.2347 19.7791 12.0388 19.5343 11.9898 19.4853C11.9408 19.4364 11.8918 19.3874 11.8428 19.3874C10.7648 18.702 9.04987 17.2333 8.41289 15.226C8.2659 16.1072 8.46189 17.9676 9.09887 18.9468C8.60888 19.1426 7.97191 19.4364 7.57992 19.7301C7.82491 20.0239 8.46189 20.5624 8.85387 20.8072C8.51089 21.101 7.97191 21.6885 7.72692 22.0801C8.0699 22.276 8.75588 22.5697 9.29486 22.7166C9.04987 23.1083 8.65788 23.8426 8.55989 24.2833C9.14786 24.3812 9.78484 24.3812 10.3238 24.3322C10.2748 24.8218 10.3238 25.5072 10.3728 25.9478C10.9118 25.8499 11.5488 25.6541 11.9408 25.4093C12.0388 25.752 12.2347 26.4374 12.4307 26.7801C12.8717 26.3395 13.4597 26.1437 13.9987 26.1437V26.5843C13.4597 26.5843 12.8717 26.8291 12.2837 27.5145C12.2837 27.4655 11.8428 26.7801 11.6468 26.0947C11.3038 26.2416 10.5688 26.5353 9.93183 26.5843C9.83384 26.0947 9.78484 25.3114 9.78484 24.8218C9.09887 24.8218 8.46189 24.7728 7.97191 24.6749C8.0699 24.1364 8.36389 23.402 8.55989 22.9614C8.1189 22.8145 7.33493 22.4718 6.94295 22.227C7.18794 21.8353 7.77591 21.1989 8.1189 20.8562C7.72692 20.5624 7.08994 19.9749 6.79595 19.5833C7.23693 19.2405 7.87391 18.9468 8.41289 18.751C8.02091 18.0166 7.82491 16.8416 7.87391 16.2051C7.18794 15.5197 6.20797 14.3937 5.86499 13.0228C5.375 14.7364 5.473 17.1353 7.08994 18.2124C6.30597 18.2124 4.93402 18.4083 4.24805 18.6041C4.73803 19.1916 5.96298 19.9749 6.69796 20.3666C6.10998 20.5624 5.08102 21.1499 4.64003 21.5416C5.17901 21.8843 6.40397 22.276 6.99194 22.4228C6.64896 22.7166 5.96298 23.4999 5.71799 23.8916C6.20797 24.0385 7.18794 24.1853 7.82491 24.1853C7.62892 24.626 7.38393 25.3603 7.33493 25.801C7.62892 25.8499 8.65788 25.801 9.19686 25.6541C9.14786 26.0947 9.14786 26.8291 9.24586 27.1718C9.73584 27.1228 10.4708 26.878 10.8138 26.7801C10.9118 27.1718 11.2548 27.9551 11.4018 28.151C11.6468 28.102 11.8918 28.053 12.1368 27.9551C12.8227 27.7103 13.5577 28.0041 13.8517 28.6405C14.3417 29.7666 14.1457 31.0885 13.2147 30.8437C12.1368 31.0395 12.8717 32.4103 12.2347 32.851C13.0677 33.4385 13.3127 32.0676 14.3907 32.3124C14.2927 32.802 14.2927 33.7322 14.3907 34.1239C14.7337 33.8791 15.2236 33.6833 15.5176 33.6343C15.4196 33.928 15.3706 34.6135 15.4686 35.0541C15.6646 34.9072 17.0856 34.5155 17.0856 34.5155C17.0856 34.5155 16.5466 35.5926 16.8896 36.6697C17.0856 36.8166 18.3595 36.1801 18.3595 35.8374C18.4085 36.278 17.8695 37.2572 17.0366 37.453C17.9185 38.3343 18.7025 38.2853 18.8005 38.2853C18.9475 38.2853 19.0455 38.2853 19.1435 38.1874C19.0945 38.4322 19.0455 38.7749 19.0945 38.9708H19.2415C19.4865 38.9708 19.6825 38.9218 19.8295 38.8728C19.8785 39.1176 19.9765 39.3624 20.1235 39.5583C20.1561 39.5909 20.1888 39.6235 20.2214 39.6562C20.4174 39.6562 20.9074 39.4114 21.0054 39.2645C21.1034 39.4114 21.5934 39.6562 21.7894 39.6562C21.8384 39.6072 21.8874 39.6072 21.8874 39.5583C22.0834 39.3624 22.1814 39.0687 22.1814 38.8728C22.3774 38.9708 22.5734 38.9708 22.7694 38.9708H22.9163C22.9653 38.7749 22.9653 38.4322 22.8673 38.1874C22.9653 38.2364 23.1123 38.2853 23.2103 38.2853C23.3083 38.2853 24.0923 38.3343 24.9743 37.453C24.1413 37.2572 23.6023 36.278 23.6513 35.8374C23.6513 36.2291 24.9253 36.8166 25.1213 36.6697C25.4643 35.5926 24.9253 34.5155 24.9253 34.5155C24.9253 34.5155 26.2972 34.8582 26.5422 35.0541C26.6402 34.6135 26.5912 33.928 26.4932 33.6343C26.7872 33.6343 27.2772 33.8791 27.6202 34.1239C27.7182 33.7322 27.7182 32.851 27.6202 32.3124C28.6491 32.0676 28.8941 33.4385 29.7761 32.851C29.1881 32.4103 29.9231 31.0395 28.7961 30.8437C27.8652 31.1374 27.6692 29.7666 28.1592 28.6405C28.4531 28.0041 29.2371 27.7103 29.8741 27.9551C30.1191 28.053 30.3641 28.102 30.6091 28.151C30.7071 27.9551 31.099 27.1718 31.197 26.7801C31.54 26.927 32.275 27.1228 32.765 27.1718C32.814 26.8291 32.863 26.0947 32.814 25.6541C33.304 25.752 34.3819 25.801 34.6759 25.801C34.6269 25.3114 34.3819 24.577 34.1859 24.1853C34.8229 24.1364 35.8029 24.0385 36.2928 23.8916C36.0479 23.451 35.3619 22.6676 35.0189 22.4228C35.6069 22.276 36.8318 21.8843 37.3708 21.5416C37.0278 21.101 35.9989 20.5135 35.4109 20.3176ZM27.4732 31.3333C27.4242 31.4312 27.3752 31.4801 27.3262 31.578C27.3262 31.627 27.2772 31.627 27.2772 31.676C27.2282 31.7249 27.1792 31.7739 27.1302 31.8718C27.0975 31.9044 27.0649 31.9371 27.0322 31.9697C26.9832 32.0676 26.8852 32.1166 26.8362 32.2145C26.7872 32.2635 26.7382 32.3124 26.6892 32.3614C26.6402 32.4103 26.5912 32.4593 26.5422 32.5083C26.4932 32.5572 26.4442 32.6062 26.3462 32.7041C26.3136 32.7367 26.2809 32.7694 26.2482 32.802C26.1012 32.9489 25.9052 33.0958 25.7092 33.1937C25.4643 33.3895 25.2193 33.5364 24.9253 33.6833C24.8273 33.7322 24.7293 33.7812 24.6313 33.8301C22.4264 34.9562 21.3484 35.8374 21.0054 36.0822H20.9564C20.6134 35.7885 19.5355 34.9562 17.3306 33.8301C17.2326 33.7812 17.1346 33.7322 17.0366 33.6833C16.7426 33.5364 16.4976 33.3895 16.2526 33.1937C16.0566 33.0468 15.9096 32.8999 15.7136 32.802C15.6646 32.753 15.6156 32.753 15.6156 32.7041C15.5666 32.6551 15.4686 32.6062 15.4196 32.5083C15.3706 32.4593 15.3216 32.4103 15.2726 32.3614C15.2236 32.3124 15.1746 32.2635 15.1256 32.2145C15.0276 32.1166 14.9786 32.0676 14.9296 31.9697L14.8317 31.8718C14.7827 31.8228 14.7337 31.7739 14.6847 31.676C14.6847 31.627 14.6357 31.627 14.6357 31.578C14.5867 31.4801 14.5377 31.4312 14.4887 31.3333C14.1947 30.6968 14.2437 30.1583 14.2437 30.1583V21.5905C14.2437 21.4437 14.3417 21.3458 14.4887 21.3458H27.4242C27.5712 21.3458 27.6692 21.4437 27.6692 21.5905V30.1583C27.7182 30.1583 27.7672 30.6968 27.4732 31.3333Z" fill="white"/><path d="M27.1788 7.83337C27.3747 7.83337 27.4727 7.68649 27.4727 7.49066C27.4727 7.29482 27.3258 7.14795 27.1788 7.14795C26.9828 7.14795 26.8848 7.29482 26.8848 7.49066C26.8848 7.68649 27.0318 7.83337 27.1788 7.83337Z" fill="white"/><path d="M27.1791 9.64468C27.3751 9.64468 27.5711 8.81239 27.5711 8.42072C27.5711 8.17593 27.3751 8.02905 27.1791 8.02905C26.9831 8.02905 26.7871 8.17593 26.7871 8.42072C26.7871 8.81239 26.9831 9.64468 27.1791 9.64468Z" fill="white"/><path d="M26.9822 6.65843H27.4232L27.3252 6.11989L27.8641 6.16885V5.72822L27.3252 5.82614L27.4232 5.2876H26.9822L27.0312 5.82614L26.4922 5.72822V6.16885L27.0312 6.11989L26.9822 6.65843Z" fill="white"/><path d="M25.2672 10.624C25.4142 10.673 25.5611 10.673 25.7081 10.7219H26.3451C26.7371 10.7219 27.1291 10.624 27.5211 10.5261C27.9131 10.4282 28.305 10.3303 28.746 10.3303H29.04C29.138 9.88965 29.285 9.40007 29.285 9.10632C29.285 8.51882 28.942 7.88236 27.8151 7.68652C27.8151 8.4209 27.4721 10.1344 27.0801 10.1344H27.0311C26.6391 10.1344 26.2961 8.4209 26.2961 7.68652C25.1692 7.88236 24.8262 8.51882 24.8262 9.10632C24.8262 9.44902 24.9732 10.0855 25.1202 10.5261C25.2182 10.5587 25.2672 10.5914 25.2672 10.624Z" fill="white"/><path d="M31.1481 7.5396C31.1481 7.5396 30.8541 6.75627 31.3441 6.51148C31.8831 6.31564 31.1481 6.41356 31.5401 5.33648C31.9811 4.06356 32.9611 4.35731 32.9611 4.35731C32.2751 3.81877 31.7361 3.86773 31.3441 4.16148C31.0991 4.35731 30.7561 4.74898 30.5112 5.53231C30.3152 6.51148 30.6582 7.44169 31.1481 7.5396Z" fill="white"/><path d="M33.6961 5.6301C33.7451 7.24572 36.44 7.93114 36.44 7.93114C36.44 7.93114 34.872 6.8051 35.166 5.9728C35.166 5.9728 36.195 6.41343 37.3709 6.2176C34.872 5.67905 35.705 4.89572 35.068 4.25926C34.4311 3.57385 33.4511 3.52489 33.2061 3.47593C32.5691 3.42697 32.5201 3.42697 31.7852 3.6228C33.5001 3.67176 33.6961 4.55301 33.6961 5.6301Z" fill="white"/><path d="M33.3529 8.66564C33.6959 7.39273 33.0589 6.80523 33.0589 6.80523C32.863 6.56043 31.834 6.60939 31.442 6.85418C31.442 6.85418 32.422 6.85418 32.275 8.27398C32.128 9.69377 30.1681 9.98752 29.6291 10.0365L29.5801 10.2323C30.511 10.2323 32.961 9.93856 33.3529 8.66564Z" fill="white"/><path d="M23.1108 8.6167H22.1309C22.6208 9.98753 24.0418 10.4282 24.9728 10.575L24.9238 10.4282C23.9438 10.0365 23.4538 9.64482 23.1108 8.6167Z" fill="white"/><path d="M14.9773 7.83337C15.1733 7.83337 15.2713 7.68649 15.2713 7.49066C15.2713 7.29482 15.1243 7.14795 14.9773 7.14795C14.7813 7.14795 14.6833 7.29482 14.6833 7.49066C14.6343 7.68649 14.7813 7.83337 14.9773 7.83337Z" fill="white"/><path d="M14.9779 9.64468C15.1739 9.64468 15.3699 8.81239 15.3699 8.42072C15.3699 8.17593 15.1739 8.02905 14.9779 8.02905C14.7819 8.02905 14.5859 8.17593 14.5859 8.42072C14.5859 8.81239 14.7329 9.64468 14.9779 9.64468Z" fill="white"/><path d="M14.734 6.65843H15.1749L15.1259 6.11989L15.6649 6.16885V5.72822L15.1259 5.82614L15.1749 5.2876H14.734L14.8319 5.82614L14.293 5.72822V6.16885L14.8319 6.11989L14.734 6.65843Z" fill="white"/><path d="M13.0188 10.3301H13.3128C13.7537 10.3791 14.1947 10.4281 14.5377 10.526C14.8807 10.6239 15.3217 10.7218 15.7137 10.7218H16.3506C16.4976 10.7218 16.6446 10.6729 16.7916 10.6239C16.7916 10.5913 16.808 10.5749 16.8406 10.5749C16.9876 10.1343 17.1346 9.49785 17.1346 9.15514C17.1346 8.56764 16.8406 7.93118 15.6647 7.73535C15.6647 8.42077 15.3217 10.1833 14.9297 10.1833H14.8807C14.4887 10.1833 14.1457 8.46973 14.1457 7.73535C13.0188 7.93118 12.6758 8.56764 12.6758 9.15514C12.6758 9.44889 12.7738 9.93848 12.9208 10.3791C12.9534 10.3465 12.9861 10.3301 13.0188 10.3301Z" fill="white"/><path d="M9.14648 4.35736C9.14648 4.35736 10.1264 4.06361 10.5674 5.33653C10.9594 6.41361 10.2244 6.31569 10.7634 6.51153C11.3024 6.70736 10.9594 7.53965 10.9594 7.53965C11.4984 7.44173 11.8414 6.51153 11.5474 5.4834C11.3024 4.70007 10.9594 4.3084 10.7144 4.11257C10.3224 3.86778 9.83246 3.81882 9.14648 4.35736Z" fill="white"/><path d="M6.94142 5.97295C7.2354 6.80524 5.66746 7.93128 5.66746 7.93128C5.66746 7.93128 8.41136 7.24587 8.41136 5.63024C8.46036 4.55316 8.60735 3.67191 10.2733 3.62295C9.53832 3.47607 9.48932 3.47607 8.85234 3.47607C8.60735 3.47607 7.62739 3.57399 6.99041 4.25941C6.40244 4.89587 7.18641 5.6792 4.6875 6.21774C5.91245 6.41357 6.94142 5.97295 6.94142 5.97295Z" fill="white"/><path d="M9.8825 8.27408C9.73551 6.85429 10.7155 6.85429 10.7155 6.85429C10.3725 6.6095 9.34352 6.6095 9.09853 6.80533C9.09853 6.80533 8.46155 7.34387 8.80454 8.66575C9.14753 9.93866 11.6464 10.2324 12.5774 10.2324L12.5284 10.0366C11.9894 9.98762 10.0295 9.69387 9.8825 8.27408Z" fill="white"/><path d="M20.0255 8.6167H19.0455C18.7025 9.64482 18.2126 10.0365 17.2326 10.4282L17.1836 10.575C18.1636 10.4282 19.5355 9.98753 20.0255 8.6167Z" fill="white"/><path d="M22.3268 14.6385C22.0328 15.0791 21.7878 15.5687 21.5918 16.0583C21.7388 15.8625 21.9838 15.6666 22.2288 15.4708C22.6698 15.1771 23.0617 14.9812 23.0617 14.9812L23.4537 14.8343L23.3557 15.226C23.3557 15.226 23.2087 15.8625 23.2577 16.401C23.2577 16.6458 23.3557 16.8906 23.4047 17.0375C23.5027 16.7927 23.6497 16.5479 23.7967 16.3031C24.2867 15.6666 24.6787 15.4218 24.6787 15.4218L24.9727 15.275V15.6177C24.9727 15.6177 25.0707 16.7437 25.3157 17.3312C25.7566 18.3104 26.5896 18.8489 27.0796 19.0937L26.8346 18.8489C26.5896 18.6041 26.3446 18.1635 26.1976 17.2333C26.0996 16.45 26.3936 15.6666 26.4916 15.4218C26.5406 15.6177 26.6386 15.8135 26.7366 15.8625C26.7366 15.8625 26.7366 15.6666 26.7856 15.4708C26.8836 14.9323 27.4716 14.1 28.2555 13.6104C28.4025 13.5125 28.5495 13.4146 28.6475 13.3656C28.7945 13.3166 28.8925 13.2187 28.9905 13.1208C28.8435 13.1208 28.6475 13.1698 28.5005 13.1698H28.0106C27.6186 13.1698 27.1776 13.1208 26.8346 12.8271C26.4916 12.5333 26.3446 12.2396 26.2956 12.0437H25.7076C25.4137 12.0437 25.1687 11.9458 25.0217 11.9458C24.6297 12.1906 24.2377 12.2885 23.7477 12.3375H23.5517C23.6987 12.4843 23.8947 12.5823 24.0417 12.6802H24.0907L23.9927 12.7291C24.0417 12.6802 23.3557 13.0718 22.3268 14.6385Z" fill="white"/><path d="M28.746 11.897H28.207V12.1907C28.256 12.3376 28.305 12.4355 28.403 12.5334C28.55 12.4355 28.697 12.1907 28.746 11.897Z" fill="white"/><path d="M29.1386 10.7709C29.1059 10.7709 29.1059 10.7709 29.1386 10.7709H28.9426C28.5506 10.7709 28.1586 10.8688 27.7667 10.9667C27.3747 11.0646 26.9337 11.1626 26.5417 11.1626H25.8557C24.9738 11.0646 24.3858 10.7709 24.0918 10.624C24.1408 10.7219 24.2388 10.8199 24.3858 10.9667C24.4348 11.0157 24.4838 11.0646 24.5328 11.1136C24.6308 11.2115 24.7778 11.3094 24.9248 11.4074C25.1208 11.5053 25.9537 11.848 27.0317 11.7011C28.2566 11.5053 28.5016 11.5542 28.7956 11.5542H28.8936C29.3346 11.6032 29.9716 11.848 30.2166 11.9949C30.3146 11.7501 30.4616 11.5053 30.5106 11.2605C30.4616 11.2115 30.3636 11.1136 30.1676 11.0157C30.1186 10.9667 30.0696 10.9667 29.9716 10.9178C29.8736 10.8688 29.7266 10.8199 29.5306 10.8199C29.3346 10.7709 29.2366 10.7709 29.1386 10.7709Z" fill="white"/><path d="M32.5674 14.7854C32.5184 14.7854 32.0774 15.0302 31.1464 14.4427C30.2154 13.8552 29.5295 13.6104 29.1375 13.5125C29.0395 13.5614 28.9905 13.6104 28.8925 13.6593C28.7945 13.7083 28.6475 13.8062 28.5005 13.9041C28.4515 13.9531 28.4025 13.9531 28.3535 14.002H28.4515C29.3335 14.1 30.0195 14.5895 30.0685 14.7854H30.1175C30.2154 14.4916 30.0685 14.2468 30.0685 14.2468C30.0685 14.2468 30.4604 14.4916 31.2444 14.9322C32.0774 15.4708 32.4204 14.9812 32.5674 14.7854Z" fill="white"/><path d="M27.9141 12.3865C27.8651 12.3376 27.8161 12.2397 27.7671 12.1907C27.7181 12.0928 27.7181 12.0438 27.7181 11.9949C27.5221 11.9949 27.2771 12.0438 26.9831 12.0928H26.7871C26.9341 12.3865 27.1791 12.6803 27.6691 12.7782H27.8651C28.0611 12.8272 28.3061 12.8272 28.453 12.8272C28.796 12.8272 29.188 12.7782 29.58 12.6803C29.678 12.5824 29.727 12.4355 29.825 12.3376C29.825 12.3376 29.776 12.2886 29.727 12.2886C29.629 12.2397 29.384 12.0928 29.237 12.0438C29.188 12.1907 29.09 12.3376 28.992 12.4355C28.845 12.5334 28.649 12.5824 28.453 12.5824C28.2571 12.5824 28.0611 12.5334 27.9631 12.4355C27.9141 12.4355 27.9141 12.3865 27.9141 12.3865Z" fill="white"/><path d="M30.5098 11.6521C30.2158 12.4354 29.7258 13.0229 29.3828 13.3167C31.5877 12.7292 31.9797 13.8552 31.9797 13.9042C31.9797 13.9531 31.9797 13.9531 32.0287 13.9042C32.0777 13.8552 32.8127 13.0719 32.2737 12.3375C31.8327 11.75 30.8528 11.6521 30.5098 11.6521ZM30.5098 12.2396C30.6078 12.1417 30.6568 11.9458 30.6568 11.9458C30.8038 11.9458 31.0977 11.9948 31.0977 12.1906C30.9018 12.1417 30.6568 12.1417 30.5098 12.2396Z" fill="white"/><path d="M13.9491 12.1907V11.897H13.4102C13.4592 12.1907 13.6061 12.4355 13.7531 12.5334C13.8511 12.4355 13.9001 12.3376 13.9491 12.1907Z" fill="white"/><path d="M16.4473 11.1135C16.4146 11.1135 16.4146 11.1135 16.4473 11.1135H15.7613C15.3203 11.1135 14.9283 11.0156 14.5364 10.9177C14.0954 10.8687 13.7034 10.7708 13.3114 10.7708H12.9194C12.7234 10.7708 12.5764 10.8197 12.4784 10.8687C12.4294 10.9177 12.3314 10.9177 12.2824 10.9666C12.1354 11.0645 12.0374 11.1135 11.9395 11.2114C11.9885 11.4562 12.1354 11.75 12.2334 11.9458C12.4784 11.7989 13.1154 11.5052 13.5564 11.5052H13.6544C13.9484 11.5052 14.1934 11.4562 15.4183 11.652C16.4963 11.7989 17.2803 11.4562 17.5252 11.3583C17.6722 11.2604 17.8192 11.1625 17.9172 11.0645C17.9662 11.0156 18.0152 10.9666 18.0642 10.9177C18.1622 10.7708 18.2602 10.6729 18.3582 10.575C17.9172 10.7218 17.3293 11.0156 16.4473 11.1135Z" fill="white"/><path d="M9.58789 14.7854C9.73489 14.9322 10.0779 15.4708 10.8618 15.0301C11.6458 14.5895 12.0378 14.3447 12.0378 14.3447C12.0378 14.3447 11.8908 14.5895 11.9888 14.8833H12.0378C12.1358 14.6874 12.8218 14.1489 13.6547 14.0999H13.7527C13.7037 14.051 13.6547 14.051 13.6057 14.002C13.4587 13.9041 13.3118 13.8062 13.2138 13.7572C13.1158 13.7083 13.0668 13.6593 12.9688 13.6104C12.5768 13.6593 11.8908 13.9531 10.9598 14.5406C10.0779 15.0301 9.63689 14.7854 9.58789 14.7854Z" fill="white"/><path d="M12.92 12.0438L12.43 12.2886C12.381 12.2886 12.381 12.3376 12.332 12.3376C12.43 12.4845 12.479 12.5824 12.577 12.6803C12.969 12.7782 13.361 12.8272 13.704 12.8272C13.9 12.8272 14.096 12.8272 14.292 12.7782H14.488C14.9779 12.6803 15.2719 12.3376 15.3699 12.0928H15.1739C14.8799 12.0438 14.6349 11.9949 14.439 11.9949C14.439 12.0438 14.39 12.1417 14.39 12.1907C14.341 12.2886 14.292 12.3376 14.243 12.3865L14.194 12.4355C14.047 12.5334 13.9 12.5824 13.704 12.5824C13.508 12.5824 13.312 12.5334 13.165 12.4355C13.018 12.3376 12.969 12.1907 12.92 12.0438Z" fill="white"/><path d="M9.83329 12.3375C9.29431 13.0719 10.0293 13.8552 10.0783 13.9042C10.1273 13.9531 10.1273 13.9042 10.1273 13.9042C10.1273 13.8552 10.5193 12.7292 12.7242 13.3167C12.3812 13.0229 11.8912 12.4354 11.5972 11.6521C11.3032 11.6521 10.2743 11.75 9.83329 12.3375ZM11.6462 12.2396C11.4992 12.1417 11.2542 12.1417 11.0582 12.1906C11.0582 11.9948 11.3522 11.9458 11.4992 11.9458C11.4992 11.9458 11.5482 12.1417 11.6462 12.2396Z" fill="white"/><path d="M18.554 12.3375H18.358C17.8681 12.3375 17.4761 12.1906 17.0841 11.9458C16.9371 11.9948 16.6431 12.0437 16.3981 12.0437H15.8101C15.7611 12.2396 15.6141 12.5823 15.2712 12.8271C14.9282 13.1208 14.4872 13.1698 14.0952 13.1698H13.6052C13.5072 13.1698 13.3112 13.1208 13.1152 13.1208C13.2622 13.2187 13.3602 13.2677 13.4582 13.3656C13.5562 13.4146 13.7032 13.5125 13.8502 13.6104C14.6342 14.1489 15.2222 14.9323 15.3202 15.4708C15.3691 15.6666 15.3691 15.8625 15.3691 15.8625C15.4671 15.8135 15.5651 15.6177 15.6141 15.4218C15.7121 15.6666 16.0551 16.45 15.9081 17.2333C15.7611 18.1635 15.5161 18.6041 15.2712 18.8489C15.1732 18.9468 15.0752 19.0448 15.0262 19.0937C15.5161 18.8489 16.3491 18.3104 16.7901 17.3312C17.0351 16.7927 17.1331 15.6666 17.1331 15.6666V15.3239L17.4271 15.4708C17.4271 15.4708 17.8681 15.7156 18.309 16.3521C18.456 16.5968 18.603 16.8416 18.701 17.0864C18.75 16.8906 18.799 16.6948 18.848 16.45C18.897 15.8625 18.75 15.275 18.75 15.275L18.652 14.8833L19.044 15.0302C19.044 15.0302 19.436 15.1771 19.877 15.5198C20.171 15.7156 20.367 15.9114 20.514 16.1073C20.318 15.6177 20.122 15.1281 19.779 14.6875C18.75 13.1208 18.113 12.7781 18.113 12.7781L18.0151 12.7291H18.064C18.211 12.5823 18.407 12.4354 18.554 12.3375Z" fill="white"/></g><defs><clipPath id="clip0_8001_777"><rect width="168" height="47" fill="white"/></clipPath></defs></svg>