<svg width="44" height="44" viewBox="0 0 44 44" fill="none" xmlns="http://www.w3.org/2000/svg">
<g clip-path="url(#clip0_6003_818)">
<path d="M11.0001 24.0625C11.0024 24.2437 10.9684 24.4235 10.9001 24.5914C10.8318 24.7593 10.7306 24.9118 10.6025 25.0399C10.4743 25.1681 10.3218 25.2693 10.154 25.3375C9.9861 25.4058 9.80626 25.4398 9.62505 25.4375H2.06255C1.80711 25.4354 1.55704 25.364 1.33907 25.2308C1.1211 25.0976 0.943426 24.9076 0.825055 24.6812C0.714982 24.4507 0.66963 24.1946 0.693849 23.9403C0.718068 23.686 0.810947 23.4431 0.962555 23.2375C2.17941 21.6041 3.80316 20.3181 5.67193 19.5078C4.86892 18.7727 4.25195 17.8575 3.8718 16.8374C3.49164 15.8173 3.35918 14.7214 3.48531 13.6401C3.61143 12.5588 3.99254 11.5229 4.59727 10.6177C5.202 9.71244 6.01306 8.96375 6.96369 8.43323C7.91432 7.90271 8.97735 7.60553 10.0653 7.56615C11.1532 7.52676 12.235 7.7463 13.2215 8.20669C14.208 8.66708 15.071 9.35516 15.7396 10.2143C16.4082 11.0734 16.8633 12.0791 17.0672 13.1484C17.1181 13.4269 17.0828 13.7143 16.9661 13.9723C16.8494 14.2302 16.6569 14.4465 16.4141 14.5922C14.1911 15.9104 12.5004 17.966 11.636 20.4016C11.2099 21.5748 10.9946 22.8142 11.0001 24.0625ZM43.0376 23.2375C41.8207 21.6041 40.197 20.3181 38.3282 19.5078C39.1312 18.7727 39.7482 17.8575 40.1283 16.8374C40.5085 15.8173 40.6409 14.7214 40.5148 13.6401C40.3887 12.5588 40.0076 11.5229 39.4028 10.6177C38.7981 9.71244 37.9871 8.96375 37.0364 8.43323C36.0858 7.90271 35.0228 7.60553 33.9348 7.56615C32.8469 7.52676 31.7652 7.7463 30.7787 8.20669C29.7921 8.66708 28.9291 9.35516 28.2605 10.2143C27.5919 11.0734 27.1369 12.0791 26.9329 13.1484C26.882 13.4269 26.9173 13.7143 27.034 13.9723C27.1507 14.2302 27.3432 14.4465 27.586 14.5922C29.8119 15.907 31.5035 17.9638 32.3641 20.4016C32.7903 21.5748 33.0055 22.8142 33.0001 24.0625C32.9977 24.2437 33.0317 24.4235 33.1 24.5914C33.1683 24.7593 33.2695 24.9118 33.3976 25.0399C33.5258 25.1681 33.6783 25.2693 33.8461 25.3375C34.014 25.4058 34.1938 25.4398 34.3751 25.4375H41.9376C42.1929 25.4375 42.4432 25.3664 42.6604 25.2321C42.8777 25.0979 43.0532 24.9058 43.1674 24.6774C43.2816 24.449 43.3299 24.1933 43.307 23.939C43.2841 23.6847 43.1908 23.4418 43.0376 23.2375ZM27.0188 30.6109C28.3872 29.5621 29.3927 28.1108 29.8938 26.4611C30.395 24.8114 30.3667 23.0461 29.8129 21.4133C29.2592 19.7805 28.2077 18.3622 26.8064 17.3577C25.4051 16.3532 23.7242 15.8131 22.0001 15.8131C20.2759 15.8131 18.5951 16.3532 17.1937 17.3577C15.7924 18.3622 14.7409 19.7805 14.1872 21.4133C13.6334 23.0461 13.6051 24.8114 14.1063 26.4611C14.6074 28.1108 15.6129 29.5621 16.9813 30.6109C14.3078 31.7979 12.1404 33.8922 10.8626 36.5234C10.7609 36.7325 10.7153 36.9645 10.7304 37.1965C10.7455 37.4285 10.8206 37.6527 10.9485 37.8469C11.0675 38.0461 11.2362 38.211 11.438 38.3255C11.6399 38.44 11.868 38.5001 12.1001 38.5H31.9001C32.1321 38.5001 32.3602 38.44 32.5621 38.3255C32.7639 38.211 32.9326 38.0461 33.0516 37.8469C33.1795 37.6527 33.2546 37.4285 33.2697 37.1965C33.2848 36.9645 33.2392 36.7325 33.1376 36.5234C31.8597 33.8922 29.6923 31.7979 27.0188 30.6109Z" fill="black"/>
</g>
<defs>
<clipPath id="clip0_6003_818">
<rect width="44" height="44" fill="white"/>
</clipPath>
</defs>
</svg>
